<?xml version="1.0" encoding="UTF-8" standalone="no"?>
<!DOCTYPE svg PUBLIC "-//W3C//DTD SVG 1.1//EN"
 "http://www.w3.org/Graphics/SVG/1.1/DTD/svg11.dtd">
<!-- Generated by graphviz version 15.1.0 (20260618.0150)
 -->
<!-- Title: DirectApplicationRuntime::publishRecordingState Pages: 1 -->
<!--zoomable 211 -->

<svg id="main" version="1.1" xmlns="http://www.w3.org/2000/svg" xmlns:xlink="http://www.w3.org/1999/xlink" xml:space="preserve">

<style type="text/css"><![CDATA[
.node, .edge {opacity: 0.7;}
.node.selected, .edge.selected {opacity: 1;}
.edge:hover path { stroke: red; }
.edge:hover polygon { stroke: red; fill: red; }
]]></style>

<defs>
  <circle id="rim" cx="0" cy="0" r="7"/>
  <circle id="rim2" cx="0" cy="0" r="3.5"/>
  <g id="zoomPlus">
    <use xlink:href="#rim" fill="#404040"><set attributeName="fill" to="#808080" begin="zoomplus.mouseover" end="zoomplus.mouseout"/></use>
    <path d="M-4,0h8M0,-4v8" fill="none" stroke="white" stroke-width="1.5" pointer-events="none"/>
  </g>
  <g id="zoomMin">
    <use xlink:href="#rim" fill="#404040"><set attributeName="fill" to="#808080" begin="zoomminus.mouseover" end="zoomminus.mouseout"/></use>
    <path d="M-4,0h8" fill="none" stroke="white" stroke-width="1.5" pointer-events="none"/>
  </g>
  <g id="arrowUp" transform="translate(30 24)">
    <use xlink:href="#rim"/>
    <path pointer-events="none" fill="none" stroke="white" stroke-width="1.5" d="M0,-3.0v7 M-2.5,-0.5L0,-3.0L2.5,-0.5"/>
  </g>
  <g id="arrowRight" transform="rotate(90) translate(36 -43)">
    <use xlink:href="#rim"/>
    <path pointer-events="none" fill="none" stroke="white" stroke-width="1.5" d="M0,-3.0v7 M-2.5,-0.5L0,-3.0L2.5,-0.5"/>
  </g>
  <g id="arrowDown" transform="rotate(180) translate(-30 -48)">
    <use xlink:href="#rim"/>
    <path pointer-events="none" fill="none" stroke="white" stroke-width="1.5" d="M0,-3.0v7 M-2.5,-0.5L0,-3.0L2.5,-0.5"/>
  </g>
  <g id="arrowLeft" transform="rotate(270) translate(-36 17)">
    <use xlink:href="#rim"/>
    <path pointer-events="none" fill="none" stroke="white" stroke-width="1.5" d="M0,-3.0v7 M-2.5,-0.5L0,-3.0L2.5,-0.5"/>
  </g>
  <g id="resetDef">
    <use xlink:href="#rim2" fill="#404040"><set attributeName="fill" to="#808080" begin="reset.mouseover" end="reset.mouseout"/></use>
  </g>
</defs>
<script type="application/ecmascript" xlink:href="svg.min.js"/>
<svg id="graph" class="graph" data-view-width="874" data-view-height="211" data-section-id="dynsection-26">
<g id="viewport">
<title>DirectApplicationRuntime::publishRecordingState</title>
<!-- Node1 -->
<g id="Node000001" class="node">
<title>Node1</title>
<g id="a_Node000001"><a xlink:title="Performs the publish recording state operation.">
<polygon fill="#999999" stroke="#666666" points="127,-128.88 0,-128.88 0,-98.38 127,-98.38 127,-128.88"/>
<text xml:space="preserve" text-anchor="start" x="8" y="-115.38" font-family="Helvetica,sans-Serif" font-size="10.00">DirectApplicationRuntime</text>
<text xml:space="preserve" text-anchor="middle" x="63.5" y="-104.12" font-family="Helvetica,sans-Serif" font-size="10.00">::publishRecordingState</text>
</a>
</g>
</g>
<!-- Node2 -->
<g id="Node000002" class="node">
<title>Node2</title>
<g id="a_Node000002"><a xlink:href="class_recording_service.html#a26fbbe76f509ced7c5d86231d2cbdfc3" target="_top" xlink:title="Reports whether paused is true.">
<polygon fill="white" stroke="#666666" points="308.38,-203.25 168.62,-203.25 168.62,-184 308.38,-184 308.38,-203.25"/>
<text xml:space="preserve" text-anchor="middle" x="238.5" y="-189.75" font-family="Helvetica,sans-Serif" font-size="10.00">RecordingService::isPaused</text>
</a>
</g>
</g>
<!-- Node1&#45;&gt;Node2 -->
<g id="edge1_Node000001_Node000002" class="edge">
<title>Node1&#45;&gt;Node2</title>
<g id="a_edge1_Node000001_Node000002"><a xlink:title=" ">
<path fill="none" stroke="#63b8ff" d="M84.92,-129.27C104.12,-143.29 134.15,-163.45 163,-175.62 167.02,-177.32 171.24,-178.88 175.53,-180.31"/>
<polygon fill="#63b8ff" stroke="#63b8ff" points="174.26,-183.58 184.85,-183.15 176.3,-176.88 174.26,-183.58"/>
</a>
</g>
</g>
<!-- Node3 -->
<g id="Node000003" class="node">
<title>Node3</title>
<g id="a_Node000003"><a xlink:href="class_recording_service.html#a9e5faab16b85d3ddc1c95f67cc72d642" target="_top" xlink:title="Reports whether recording is true.">
<polygon fill="white" stroke="#666666" points="314,-166.25 163,-166.25 163,-147 314,-147 314,-166.25"/>
<text xml:space="preserve" text-anchor="middle" x="238.5" y="-152.75" font-family="Helvetica,sans-Serif" font-size="10.00">RecordingService::isRecording</text>
</a>
</g>
</g>
<!-- Node1&#45;&gt;Node3 -->
<g id="edge2_Node000001_Node000003" class="edge">
<title>Node1&#45;&gt;Node3</title>
<g id="a_edge2_Node000001_Node000003"><a xlink:title=" ">
<path fill="none" stroke="#63b8ff" d="M127.45,-129.27C146.65,-134.04 167.53,-139.23 185.88,-143.8"/>
<polygon fill="#63b8ff" stroke="#63b8ff" points="184.93,-147.17 195.48,-146.18 186.62,-140.37 184.93,-147.17"/>
</a>
</g>
</g>
<!-- Node4 -->
<g id="Node000004" class="node">
<title>Node4</title>
<g id="a_Node000004"><a xlink:href="class_recording_service.html#a3e8ee8ae7d46725ba613419695ec7ed0" target="_top" xlink:title="Returns the current record count.">
<polygon fill="white" stroke="#666666" points="301.62,-128.88 175.38,-128.88 175.38,-98.38 301.62,-98.38 301.62,-128.88"/>
<text xml:space="preserve" text-anchor="start" x="183.38" y="-115.38" font-family="Helvetica,sans-Serif" font-size="10.00">RecordingService::record</text>
<text xml:space="preserve" text-anchor="middle" x="238.5" y="-104.12" font-family="Helvetica,sans-Serif" font-size="10.00">Count</text>
</a>
</g>
</g>
<!-- Node1&#45;&gt;Node4 -->
<g id="edge3_Node000001_Node000004" class="edge">
<title>Node1&#45;&gt;Node4</title>
<g id="a_edge3_Node000001_Node000004"><a xlink:title=" ">
<path fill="none" stroke="#63b8ff" d="M127.45,-113.62C139.16,-113.62 151.5,-113.62 163.51,-113.62"/>
<polygon fill="#63b8ff" stroke="#63b8ff" points="163.38,-117.13 173.38,-113.63 163.38,-110.13 163.38,-117.13"/>
</a>
</g>
</g>
<!-- Node6 -->
<g id="Node000006" class="node">
<title>Node6</title>
<g id="a_Node000006"><a xlink:href="class_recording_service.html#ac36c5351de37045fc101da63a991399d" target="_top" xlink:title="Returns the elapsed time between the first and last saved packets.">
<polygon fill="white" stroke="#666666" points="308,-79.88 169,-79.88 169,-49.38 308,-49.38 308,-79.88"/>
<text xml:space="preserve" text-anchor="start" x="177" y="-66.38" font-family="Helvetica,sans-Serif" font-size="10.00">RecordingService::recording</text>
<text xml:space="preserve" text-anchor="middle" x="238.5" y="-55.12" font-family="Helvetica,sans-Serif" font-size="10.00">Duration</text>
</a>
</g>
</g>
<!-- Node1&#45;&gt;Node6 -->
<g id="edge6_Node000001_Node000006" class="edge">
<title>Node1&#45;&gt;Node6</title>
<g id="a_edge6_Node000001_Node000006"><a xlink:title=" ">
<path fill="none" stroke="#63b8ff" d="M119.71,-97.99C136.02,-93.37 154.04,-88.26 170.97,-83.47"/>
<polygon fill="#63b8ff" stroke="#63b8ff" points="171.8,-86.87 180.46,-80.78 169.89,-80.14 171.8,-86.87"/>
</a>
</g>
</g>
<!-- Node12 -->
<g id="Node000012" class="node">
<title>Node12</title>
<g id="a_Node000012"><a xlink:href="class_i_application_runtime.html#abfc82e2a4cfef4760d066bd8a57e1931" target="_top" xlink:title="Notifies observers about recording state changed.">
<polygon fill="white" stroke="#666666" points="300.5,-30.88 176.5,-30.88 176.5,-0.37 300.5,-0.37 300.5,-30.88"/>
<text xml:space="preserve" text-anchor="start" x="184.5" y="-17.38" font-family="Helvetica,sans-Serif" font-size="10.00">IApplicationRuntime</text>
<text xml:space="preserve" text-anchor="middle" x="238.5" y="-6.12" font-family="Helvetica,sans-Serif" font-size="10.00">::recordingStateChanged</text>
</a>
</g>
</g>
<!-- Node1&#45;&gt;Node12 -->
<g id="edge16_Node000001_Node000012" class="edge">
<title>Node1&#45;&gt;Node12</title>
<g id="a_edge16_Node000001_Node000012"><a xlink:title=" ">
<path fill="none" stroke="#63b8ff" d="M81.87,-98.08C100.72,-81.88 132.24,-56.67 163,-40.62 166.43,-38.84 170.02,-37.14 173.68,-35.53"/>
<polygon fill="#63b8ff" stroke="#63b8ff" points="174.82,-38.84 182.74,-31.81 172.16,-32.37 174.82,-38.84"/>
</a>
</g>
</g>
<!-- Node5 -->
<g id="Node000005" class="node">
<title>Node5</title>
<g id="a_Node000005"><a xlink:href="class_i_recording_transaction.html#a03d1e2b5362d3f20fb1c3b87206939d5" target="_top" xlink:title="Returns the number of records committed to the active transaction.">
<polygon fill="white" stroke="#666666" points="478.5,-128.88 364.25,-128.88 364.25,-98.38 478.5,-98.38 478.5,-128.88"/>
<text xml:space="preserve" text-anchor="start" x="372.25" y="-115.38" font-family="Helvetica,sans-Serif" font-size="10.00">IRecordingTransaction</text>
<text xml:space="preserve" text-anchor="middle" x="421.38" y="-104.12" font-family="Helvetica,sans-Serif" font-size="10.00">::recordCount</text>
</a>
</g>
</g>
<!-- Node4&#45;&gt;Node5 -->
<g id="edge4_Node000004_Node000005" class="edge">
<title>Node4&#45;&gt;Node5</title>
<g id="a_edge4_Node000004_Node000005"><a xlink:title=" ">
<path fill="none" stroke="#63b8ff" d="M302,-113.62C318.34,-113.62 336.04,-113.62 352.64,-113.62"/>
<polygon fill="#63b8ff" stroke="#63b8ff" points="352.42,-117.13 362.42,-113.63 352.42,-110.13 352.42,-117.13"/>
</a>
</g>
</g>
<!-- Node5&#45;&gt;Node5 -->
<g id="edge5_Node000005_Node000005" class="edge">
<title>Node5&#45;&gt;Node5</title>
<g id="a_edge5_Node000005_Node000005"><a xlink:title=" ">
<path fill="none" stroke="#63b8ff" d="M388.97,-129.36C382.36,-138.43 393.16,-146.88 421.38,-146.88 436.81,-146.88 447.03,-144.35 452.04,-140.58"/>
<polygon fill="#63b8ff" stroke="#63b8ff" points="455.48,-141.27 453.55,-130.86 448.56,-140.2 455.48,-141.27"/>
</a>
</g>
</g>
<!-- Node7 -->
<g id="Node000007" class="node">
<title>Node7</title>
<g id="a_Node000007"><a xlink:href="class_session_timestamp.html#abdcdc65dfb0177686e5c9065caf4932f" target="_top" xlink:title="Clamps signed milliseconds to the supported closed interval.">
<polygon fill="white" stroke="#666666" points="492.75,-79.88 350,-79.88 350,-49.38 492.75,-49.38 492.75,-79.88"/>
<text xml:space="preserve" text-anchor="start" x="358" y="-66.38" font-family="Helvetica,sans-Serif" font-size="10.00">SessionTimestamp::clamped</text>
<text xml:space="preserve" text-anchor="middle" x="421.38" y="-55.12" font-family="Helvetica,sans-Serif" font-size="10.00">Milliseconds</text>
</a>
</g>
</g>
<!-- Node6&#45;&gt;Node7 -->
<g id="edge7_Node000006_Node000007" class="edge">
<title>Node6&#45;&gt;Node7</title>
<g id="a_edge7_Node000006_Node000007"><a xlink:title=" ">
<path fill="none" stroke="#63b8ff" d="M308.4,-64.62C318.19,-64.62 328.34,-64.62 338.35,-64.62"/>
<polygon fill="#63b8ff" stroke="#63b8ff" points="338.06,-68.13 348.06,-64.63 338.06,-61.13 338.06,-68.13"/>
</a>
</g>
</g>
<!-- Node11 -->
<g id="Node000011" class="node">
<title>Node11</title>
<g id="a_Node000011"><a xlink:href="class_session_timestamp.html#aeb247cf8e65e75c49239bfefb1fe72b8" target="_top" xlink:title="Returns the canonical zero value.">
<polygon fill="white" stroke="#666666" points="671.12,-19.25 546.38,-19.25 546.38,0 671.12,0 671.12,-19.25"/>
<text xml:space="preserve" text-anchor="middle" x="608.75" y="-5.75" font-family="Helvetica,sans-Serif" font-size="10.00">SessionTimestamp::zero</text>
</a>
</g>
</g>
<!-- Node6&#45;&gt;Node11 -->
<g id="edge15_Node000006_Node000011" class="edge">
<title>Node6&#45;&gt;Node11</title>
<g id="a_edge15_Node000006_Node000011"><a xlink:title=" ">
<path fill="none" stroke="#63b8ff" d="M307.09,-48.89C321.22,-45.9 336.06,-42.97 350,-40.62 411.98,-30.19 482.92,-21.93 534.66,-16.56"/>
<polygon fill="#63b8ff" stroke="#63b8ff" points="534.97,-20.05 544.56,-15.55 534.25,-13.09 534.97,-20.05"/>
</a>
</g>
</g>
<!-- Node8 -->
<g id="Node000008" class="node">
<title>Node8</title>
<g id="a_Node000008"><a xlink:href="class_session_timestamp.html#afcb01ba58c3c29059a2ea8f70f829056" target="_top" xlink:title="Returns the largest timestamp accepted by the application domain.">
<polygon fill="white" stroke="#666666" points="683.12,-150.25 534.38,-150.25 534.38,-131 683.12,-131 683.12,-150.25"/>
<text xml:space="preserve" text-anchor="middle" x="608.75" y="-136.75" font-family="Helvetica,sans-Serif" font-size="10.00">SessionTimestamp::maximum</text>
</a>
</g>
</g>
<!-- Node7&#45;&gt;Node8 -->
<g id="edge8_Node000007_Node000008" class="edge">
<title>Node7&#45;&gt;Node8</title>
<g id="a_edge8_Node000007_Node000008"><a xlink:title=" ">
<path fill="none" stroke="#63b8ff" d="M472.41,-80.27C479.39,-83.07 486.35,-86.19 492.75,-89.62 510.37,-99.08 510.91,-107.58 528.75,-116.62 536.66,-120.64 545.36,-124.11 554.01,-127.07"/>
<polygon fill="#63b8ff" stroke="#63b8ff" points="552.84,-130.37 563.43,-130.09 554.98,-123.71 552.84,-130.37"/>
</a>
</g>
</g>
<!-- Node9 -->
<g id="Node000009" class="node">
<title>Node9</title>
<g id="a_Node000009"><a xlink:href="class_session_timestamp.html#adc21abc1a6730f873208b13edc77f94a" target="_top" xlink:title="Constructs the zero timestamp.">
<polygon fill="white" stroke="#666666" points="866,-117.88 724.75,-117.88 724.75,-87.38 866,-87.38 866,-117.88"/>
<text xml:space="preserve" text-anchor="start" x="732.75" y="-104.38" font-family="Helvetica,sans-Serif" font-size="10.00">SessionTimestamp::Session</text>
<text xml:space="preserve" text-anchor="middle" x="795.38" y="-93.12" font-family="Helvetica,sans-Serif" font-size="10.00">Timestamp</text>
</a>
</g>
</g>
<!-- Node7&#45;&gt;Node9 -->
<g id="edge11_Node000007_Node000009" class="edge">
<title>Node7&#45;&gt;Node9</title>
<g id="a_edge11_Node000007_Node000009"><a xlink:title=" ">
<path fill="none" stroke="#63b8ff" d="M493.17,-78.34C505.02,-80.33 517.21,-82.19 528.75,-83.62 590.3,-91.3 660.29,-96.15 712.96,-99.03"/>
<polygon fill="#63b8ff" stroke="#63b8ff" points="712.59,-102.51 722.76,-99.55 712.96,-95.52 712.59,-102.51"/>
</a>
</g>
</g>
<!-- Node10 -->
<g id="Node000010" class="node">
<title>Node10</title>
<g id="a_Node000010"><a xlink:href="class_session_timestamp.html#a9e69c8185d47045ab21667be1a2976f7" target="_top" xlink:title="Returns the exact integer representation used for ordering and storage.">
<polygon fill="white" stroke="#666666" points="688.75,-74.25 528.75,-74.25 528.75,-55 688.75,-55 688.75,-74.25"/>
<text xml:space="preserve" text-anchor="middle" x="608.75" y="-60.75" font-family="Helvetica,sans-Serif" font-size="10.00">SessionTimestamp::milliseconds</text>
</a>
</g>
</g>
<!-- Node7&#45;&gt;Node10 -->
<g id="edge10_Node000007_Node000010" class="edge">
<title>Node7&#45;&gt;Node10</title>
<g id="a_edge10_Node000007_Node000010"><a xlink:title=" ">
<path fill="none" stroke="#63b8ff" d="M492.99,-64.62C500.84,-64.62 508.93,-64.62 516.99,-64.62"/>
<polygon fill="#63b8ff" stroke="#63b8ff" points="516.84,-68.13 526.84,-64.63 516.84,-61.13 516.84,-68.13"/>
</a>
</g>
</g>
<!-- Node7&#45;&gt;Node11 -->
<g id="edge12_Node000007_Node000011" class="edge">
<title>Node7&#45;&gt;Node11</title>
<g id="a_edge12_Node000007_Node000011"><a xlink:title=" ">
<path fill="none" stroke="#63b8ff" d="M475,-49.01C502.72,-40.79 536.37,-30.8 562.85,-22.95"/>
<polygon fill="#63b8ff" stroke="#63b8ff" points="563.68,-26.35 572.27,-20.15 561.69,-19.64 563.68,-26.35"/>
</a>
</g>
</g>
<!-- Node8&#45;&gt;Node9 -->
<g id="edge9_Node000008_Node000009" class="edge">
<title>Node8&#45;&gt;Node9</title>
<g id="a_edge9_Node000008_Node000009"><a xlink:title=" ">
<path fill="none" stroke="#63b8ff" d="M658.74,-130.54C675.45,-127.1 694.61,-123.16 713.16,-119.34"/>
<polygon fill="#63b8ff" stroke="#63b8ff" points="713.73,-122.8 722.82,-117.35 712.32,-115.94 713.73,-122.8"/>
</a>
</g>
</g>
<!-- Node11&#45;&gt;Node9 -->
<g id="edge13_Node000011_Node000009" class="edge">
<title>Node11&#45;&gt;Node9</title>
<g id="a_edge13_Node000011_Node000009"><a xlink:title=" ">
<path fill="none" stroke="#63b8ff" d="M632.76,-19.62C648.62,-26.63 670.12,-36.37 688.75,-45.62 711.63,-57 736.83,-70.55 756.87,-81.59"/>
<polygon fill="#63b8ff" stroke="#63b8ff" points="755.07,-84.6 765.52,-86.38 758.46,-78.47 755.07,-84.6"/>
</a>
</g>
</g>
<!-- Node11&#45;&gt;Node11 -->
<g id="edge14_Node000011_Node000011" class="edge">
<title>Node11&#45;&gt;Node11</title>
<g id="a_edge14_Node000011_Node000011"><a xlink:title=" ">
<path fill="none" stroke="#63b8ff" d="M579.53,-19.54C566.21,-28.15 575.94,-37.25 608.75,-37.25 627.72,-37.25 638.97,-34.21 642.52,-29.98"/>
<polygon fill="#63b8ff" stroke="#63b8ff" points="645.78,-28.69 638.57,-20.93 639.36,-31.49 645.78,-28.69"/>
</a>
</g>
</g>
</g>
</svg>

<g id="navigator" transform="translate(0 0)" fill="#404254">
  <rect fill="#f2f5e9" fill-opacity="0.5" stroke="#606060" stroke-width=".5" x="0" y="0" width="60" height="60"/>
  <use id="zoomplus" xlink:href="#zoomPlus" x="17" y="9" data-zoom="in"/>
  <use id="zoomminus" xlink:href="#zoomMin" x="42" y="9" data-zoom="out"/>
  <use id="reset" xlink:href="#resetDef" x="30" y="36" data-reset="true"/>
  <use id="arrowup" xlink:href="#arrowUp" x="0" y="0" data-pan-x="0" data-pan-y="-1"/>
  <use id="arrowright" xlink:href="#arrowRight" x="0" y="0" data-pan-x="1" data-pan-y="0"/>
  <use id="arrowdown" xlink:href="#arrowDown" x="0" y="0" data-pan-x="0" data-pan-y="1"/>
  <use id="arrowleft" xlink:href="#arrowLeft" x="0" y="0" data-pan-x="-1" data-pan-y="0"/>
</g>
<svg viewBox="0 0 15 15" width="100%" height="30px" preserveAspectRatio="xMaxYMin meet">
 <g id="arrow_out" transform="scale(0.3 0.3)">
  <a xlink:href="class_direct_application_runtime_a19ee8db2836b58824708a362a72fbda1_cgraph_org.svg" target="_base">
   <rect id="button" ry="5" rx="5" y="6" x="6" height="38" width="38"
        fill="#f2f5e9" fill-opacity="0.5" stroke="#606060" stroke-width="1.0"/>
   <path id="arrow"
     d="M 11.500037,31.436501 C 11.940474,20.09759 22.043105,11.32322 32.158766,21.979434 L 37.068811,17.246167 C 37.068811,17.246167 37.088388,32 37.088388,32 L 22.160133,31.978069 C 22.160133,31.978069 26.997745,27.140456 26.997745,27.140456 C 18.528582,18.264221 13.291696,25.230495 11.500037,31.436501 z"
     style="fill:#404040;"/>
  </a>
 </g>
</svg>

<style type='text/css'>
<![CDATA[
[data-mouse-over-selected='false'] { opacity: 0.7; }
[data-mouse-over-selected='true']  { opacity: 1.0; }
]]>
</style>
</svg>
