<?xml version="1.0" encoding="UTF-8" standalone="no"?>
<!DOCTYPE svg PUBLIC "-//W3C//DTD SVG 1.1//EN"
 "http://www.w3.org/Graphics/SVG/1.1/DTD/svg11.dtd">
<!-- Generated by graphviz version 15.1.0 (20260618.0150)
 -->
<!-- Title: RecordingPipelineCoordinator::publishState Pages: 1 -->
<!--zoomable 604 -->

<svg id="main" version="1.1" xmlns="http://www.w3.org/2000/svg" xmlns:xlink="http://www.w3.org/1999/xlink" xml:space="preserve">

<style type="text/css"><![CDATA[
.node, .edge {opacity: 0.7;}
.node.selected, .edge.selected {opacity: 1;}
.edge:hover path { stroke: red; }
.edge:hover polygon { stroke: red; fill: red; }
]]></style>

<defs>
  <circle id="rim" cx="0" cy="0" r="7"/>
  <circle id="rim2" cx="0" cy="0" r="3.5"/>
  <g id="zoomPlus">
    <use xlink:href="#rim" fill="#404040"><set attributeName="fill" to="#808080" begin="zoomplus.mouseover" end="zoomplus.mouseout"/></use>
    <path d="M-4,0h8M0,-4v8" fill="none" stroke="white" stroke-width="1.5" pointer-events="none"/>
  </g>
  <g id="zoomMin">
    <use xlink:href="#rim" fill="#404040"><set attributeName="fill" to="#808080" begin="zoomminus.mouseover" end="zoomminus.mouseout"/></use>
    <path d="M-4,0h8" fill="none" stroke="white" stroke-width="1.5" pointer-events="none"/>
  </g>
  <g id="arrowUp" transform="translate(30 24)">
    <use xlink:href="#rim"/>
    <path pointer-events="none" fill="none" stroke="white" stroke-width="1.5" d="M0,-3.0v7 M-2.5,-0.5L0,-3.0L2.5,-0.5"/>
  </g>
  <g id="arrowRight" transform="rotate(90) translate(36 -43)">
    <use xlink:href="#rim"/>
    <path pointer-events="none" fill="none" stroke="white" stroke-width="1.5" d="M0,-3.0v7 M-2.5,-0.5L0,-3.0L2.5,-0.5"/>
  </g>
  <g id="arrowDown" transform="rotate(180) translate(-30 -48)">
    <use xlink:href="#rim"/>
    <path pointer-events="none" fill="none" stroke="white" stroke-width="1.5" d="M0,-3.0v7 M-2.5,-0.5L0,-3.0L2.5,-0.5"/>
  </g>
  <g id="arrowLeft" transform="rotate(270) translate(-36 17)">
    <use xlink:href="#rim"/>
    <path pointer-events="none" fill="none" stroke="white" stroke-width="1.5" d="M0,-3.0v7 M-2.5,-0.5L0,-3.0L2.5,-0.5"/>
  </g>
  <g id="resetDef">
    <use xlink:href="#rim2" fill="#404040"><set attributeName="fill" to="#808080" begin="reset.mouseover" end="reset.mouseout"/></use>
  </g>
</defs>
<script type="application/ecmascript" xlink:href="svg.min.js"/>
<svg id="graph" class="graph" data-view-width="868" data-view-height="604" data-section-id="dynsection-42">
<g id="viewport">
<title>RecordingPipelineCoordinator::publishState</title>
<!-- Node1 -->
<g id="Node000001" class="node">
<title>Node1</title>
<g id="a_Node000001"><a xlink:title=" ">
<polygon fill="#999999" stroke="#666666" points="860,-301.5 715,-301.5 715,-271 860,-271 860,-301.5"/>
<text xml:space="preserve" text-anchor="start" x="723" y="-288" font-family="Helvetica,sans-Serif" font-size="10.00">RecordingPipelineCoordinator</text>
<text xml:space="preserve" text-anchor="middle" x="787.5" y="-276.75" font-family="Helvetica,sans-Serif" font-size="10.00">::publishState</text>
</a>
</g>
</g>
<!-- Node2 -->
<g id="Node000002" class="node">
<title>Node2</title>
<g id="a_Node000002"><a xlink:href="class_recording_pipeline_coordinator.html#a6d3a6226b2bda44c1f3e75ed96a203d2" target="_top" xlink:title=" ">
<polygon fill="white" stroke="#666666" points="492,-472.5 347,-472.5 347,-442 492,-442 492,-472.5"/>
<text xml:space="preserve" text-anchor="start" x="355" y="-459" font-family="Helvetica,sans-Serif" font-size="10.00">RecordingPipelineCoordinator</text>
<text xml:space="preserve" text-anchor="middle" x="419.5" y="-447.75" font-family="Helvetica,sans-Serif" font-size="10.00">::discardRecording</text>
</a>
</g>
</g>
<!-- Node1&#45;&gt;Node2 -->
<g id="edge1_Node000001_Node000002" class="edge">
<title>Node1&#45;&gt;Node2</title>
<g id="a_edge1_Node000001_Node000002"><a xlink:title=" ">
<path fill="none" stroke="#63b8ff" d="M742.68,-306.72C668.65,-341.31 520.4,-410.57 454,-441.6"/>
<polygon fill="#63b8ff" stroke="#63b8ff" points="744.1,-309.92 751.68,-302.52 741.14,-303.58 744.1,-309.92"/>
</a>
</g>
</g>
<!-- Node5 -->
<g id="Node000005" class="node">
<title>Node5</title>
<g id="a_Node000005"><a xlink:href="class_recording_pipeline_coordinator.html#a1c0bcb6d083f48bf5b8c991f684ef287" target="_top" xlink:title=" ">
<polygon fill="white" stroke="#666666" points="679,-301.5 528,-301.5 528,-271 679,-271 679,-301.5"/>
<text xml:space="preserve" text-anchor="start" x="536" y="-288" font-family="Helvetica,sans-Serif" font-size="10.00">RecordingPipelineCoordinator</text>
<text xml:space="preserve" text-anchor="middle" x="603.5" y="-276.75" font-family="Helvetica,sans-Serif" font-size="10.00">::RecordingPipelineCoordinator</text>
</a>
</g>
</g>
<!-- Node1&#45;&gt;Node5 -->
<g id="edge4_Node000001_Node000005" class="edge">
<title>Node1&#45;&gt;Node5</title>
<g id="a_edge4_Node000001_Node000005"><a xlink:title=" ">
<path fill="none" stroke="#63b8ff" d="M703.11,-286.25C695.24,-286.25 687.29,-286.25 679.49,-286.25"/>
<polygon fill="#63b8ff" stroke="#63b8ff" points="703.06,-289.75 713.06,-286.25 703.06,-282.75 703.06,-289.75"/>
</a>
</g>
</g>
<!-- Node18 -->
<g id="Node000018" class="node">
<title>Node18</title>
<g id="a_Node000018"><a xlink:href="class_recording_pipeline_coordinator.html#a61aee7a56b9997f21e15b4f93c886bdd" target="_top" xlink:title=" ">
<polygon fill="white" stroke="#666666" points="676,-141.5 531,-141.5 531,-111 676,-111 676,-141.5"/>
<text xml:space="preserve" text-anchor="start" x="539" y="-128" font-family="Helvetica,sans-Serif" font-size="10.00">RecordingPipelineCoordinator</text>
<text xml:space="preserve" text-anchor="middle" x="603.5" y="-116.75" font-family="Helvetica,sans-Serif" font-size="10.00">::startRecording</text>
</a>
</g>
</g>
<!-- Node1&#45;&gt;Node18 -->
<g id="edge30_Node000001_Node000018" class="edge">
<title>Node1&#45;&gt;Node18</title>
<g id="a_edge30_Node000001_Node000018"><a xlink:title=" ">
<path fill="none" stroke="#63b8ff" d="M760.31,-263.23C722.77,-230.22 654.62,-170.31 622.35,-141.95"/>
<polygon fill="#63b8ff" stroke="#63b8ff" points="757.76,-265.64 767.58,-269.62 762.38,-260.39 757.76,-265.64"/>
</a>
</g>
</g>
<!-- Node3 -->
<g id="Node000003" class="node">
<title>Node3</title>
<g id="a_Node000003"><a xlink:href="class_recording_runtime_worker.html#a154cf912563f9f470f74e3a435f62d33" target="_top" xlink:title=" ">
<polygon fill="white" stroke="#666666" points="311,-595.5 183.25,-595.5 183.25,-565 311,-565 311,-595.5"/>
<text xml:space="preserve" text-anchor="start" x="191.25" y="-582" font-family="Helvetica,sans-Serif" font-size="10.00">RecordingRuntimeWorker</text>
<text xml:space="preserve" text-anchor="middle" x="247.12" y="-570.75" font-family="Helvetica,sans-Serif" font-size="10.00">::discardRecording</text>
</a>
</g>
</g>
<!-- Node2&#45;&gt;Node3 -->
<g id="edge2_Node000002_Node000003" class="edge">
<title>Node2&#45;&gt;Node3</title>
<g id="a_edge2_Node000002_Node000003"><a xlink:title=" ">
<path fill="none" stroke="#63b8ff" d="M397.23,-481.05C376.83,-502.72 344.31,-534.42 311,-555.25 305.52,-558.68 299.5,-561.78 293.41,-564.55"/>
<polygon fill="#63b8ff" stroke="#63b8ff" points="399.68,-483.54 403.91,-473.83 394.55,-478.79 399.68,-483.54"/>
</a>
</g>
</g>
<!-- Node4 -->
<g id="Node000004" class="node">
<title>Node4</title>
<g id="a_Node000004"><a xlink:href="class_threaded_application_runtime.html#a64a7ffeac8da299d916f08425831c814" target="_top" xlink:title=" ">
<polygon fill="white" stroke="#666666" points="147.25,-325.5 0,-325.5 0,-295 147.25,-295 147.25,-325.5"/>
<text xml:space="preserve" text-anchor="start" x="8" y="-312" font-family="Helvetica,sans-Serif" font-size="10.00">ThreadedApplicationRuntime</text>
<text xml:space="preserve" text-anchor="middle" x="73.62" y="-300.75" font-family="Helvetica,sans-Serif" font-size="10.00">::ThreadedApplicationRuntime</text>
</a>
</g>
</g>
<!-- Node3&#45;&gt;Node4 -->
<g id="edge3_Node000003_Node000004" class="edge">
<title>Node3&#45;&gt;Node4</title>
<g id="a_edge3_Node000003_Node000004"><a xlink:title=" ">
<path fill="none" stroke="#63b8ff" d="M186.52,-558.16C185.39,-557.23 184.3,-556.26 183.25,-555.25 113.5,-488.16 85.38,-368.35 77.29,-325.78"/>
<polygon fill="#63b8ff" stroke="#63b8ff" points="184.38,-560.93 194.6,-563.72 188.35,-555.17 184.38,-560.93"/>
</a>
</g>
</g>
<!-- Node6 -->
<g id="Node000006" class="node">
<title>Node6</title>
<g id="a_Node000006"><a xlink:href="class_recording_runtime_worker.html#a20f5f9aa9890afcfdaffae9ebe29d987" target="_top" xlink:title=" ">
<polygon fill="white" stroke="#666666" points="483.38,-301.5 355.62,-301.5 355.62,-271 483.38,-271 483.38,-301.5"/>
<text xml:space="preserve" text-anchor="start" x="363.62" y="-288" font-family="Helvetica,sans-Serif" font-size="10.00">RecordingRuntimeWorker</text>
<text xml:space="preserve" text-anchor="middle" x="419.5" y="-276.75" font-family="Helvetica,sans-Serif" font-size="10.00">::initialize</text>
</a>
</g>
</g>
<!-- Node5&#45;&gt;Node6 -->
<g id="edge5_Node000005_Node000006" class="edge">
<title>Node5&#45;&gt;Node6</title>
<g id="a_edge5_Node000005_Node000006"><a xlink:title=" ">
<path fill="none" stroke="#63b8ff" d="M516.3,-286.25C505.31,-286.25 494.24,-286.25 483.71,-286.25"/>
<polygon fill="#63b8ff" stroke="#63b8ff" points="516.17,-289.75 526.17,-286.25 516.17,-282.75 516.17,-289.75"/>
</a>
</g>
</g>
<!-- Node6&#45;&gt;Node3 -->
<g id="edge8_Node000006_Node000003" class="edge">
<title>Node6&#45;&gt;Node3</title>
<g id="a_edge8_Node000006_Node000003"><a xlink:title=" ">
<path fill="none" stroke="#63b8ff" d="M404.46,-311.79C388.98,-340.66 364.01,-389.37 347,-433.25 326.57,-485.96 349.11,-513.49 311,-555.25 307.67,-558.89 303.75,-562.02 299.51,-564.69"/>
<polygon fill="#63b8ff" stroke="#63b8ff" points="407.5,-313.54 409.18,-303.08 401.34,-310.21 407.5,-313.54"/>
</a>
</g>
</g>
<!-- Node6&#45;&gt;Node4 -->
<g id="edge28_Node000006_Node000004" class="edge">
<title>Node6&#45;&gt;Node4</title>
<g id="a_edge28_Node000006_Node000004"><a xlink:title=" ">
<path fill="none" stroke="#63b8ff" d="M410.87,-259.74C397.81,-219.97 367.03,-146.21 311,-115.25 261.3,-87.79 232.2,-86.48 183.25,-115.25 114.92,-155.4 86.44,-255.84 77.75,-294.62"/>
<polygon fill="#63b8ff" stroke="#63b8ff" points="407.51,-260.74 413.84,-269.24 414.19,-258.65 407.51,-260.74"/>
</a>
</g>
</g>
<!-- Node7 -->
<g id="Node000007" class="node">
<title>Node7</title>
<g id="a_Node000007"><a xlink:href="class_recording_runtime_worker.html#aacd8a9f67ff011851f1c871a8792f023" target="_top" xlink:title=" ">
<polygon fill="white" stroke="#666666" points="311,-546.5 183.25,-546.5 183.25,-516 311,-516 311,-546.5"/>
<text xml:space="preserve" text-anchor="start" x="191.25" y="-533" font-family="Helvetica,sans-Serif" font-size="10.00">RecordingRuntimeWorker</text>
<text xml:space="preserve" text-anchor="middle" x="247.12" y="-521.75" font-family="Helvetica,sans-Serif" font-size="10.00">::appendRecordingBatch</text>
</a>
</g>
</g>
<!-- Node6&#45;&gt;Node7 -->
<g id="edge6_Node000006_Node000007" class="edge">
<title>Node6&#45;&gt;Node7</title>
<g id="a_edge6_Node000006_Node000007"><a xlink:title=" ">
<path fill="none" stroke="#63b8ff" d="M405.9,-312.19C377.72,-370.18 311.98,-505.34 311,-506.25 307.12,-509.84 302.67,-512.95 297.95,-515.62"/>
<polygon fill="#63b8ff" stroke="#63b8ff" points="408.97,-313.88 410.19,-303.36 402.67,-310.82 408.97,-313.88"/>
</a>
</g>
</g>
<!-- Node8 -->
<g id="Node000008" class="node">
<title>Node8</title>
<g id="a_Node000008"><a xlink:href="class_recording_runtime_worker.html#aa76cc0185ae0de8655ed2bec919c0d7b" target="_top" xlink:title=" ">
<polygon fill="white" stroke="#666666" points="311,-497.5 183.25,-497.5 183.25,-467 311,-467 311,-497.5"/>
<text xml:space="preserve" text-anchor="start" x="191.25" y="-484" font-family="Helvetica,sans-Serif" font-size="10.00">RecordingRuntimeWorker</text>
<text xml:space="preserve" text-anchor="middle" x="247.12" y="-472.75" font-family="Helvetica,sans-Serif" font-size="10.00">::pauseRecording</text>
</a>
</g>
</g>
<!-- Node6&#45;&gt;Node8 -->
<g id="edge9_Node000006_Node000008" class="edge">
<title>Node6&#45;&gt;Node8</title>
<g id="a_edge9_Node000006_Node000008"><a xlink:title=" ">
<path fill="none" stroke="#63b8ff" d="M408.38,-312.19C392.75,-349.16 359.37,-417 311,-457.25 306.76,-460.78 301.95,-463.86 296.93,-466.53"/>
<polygon fill="#63b8ff" stroke="#63b8ff" points="411.53,-313.75 412.09,-303.17 405.05,-311.09 411.53,-313.75"/>
</a>
</g>
</g>
<!-- Node9 -->
<g id="Node000009" class="node">
<title>Node9</title>
<g id="a_Node000009"><a xlink:href="class_recording_runtime_worker.html#a7b606cadc9e93783b990e48399a68e96" target="_top" xlink:title=" ">
<polygon fill="white" stroke="#666666" points="311,-448.5 183.25,-448.5 183.25,-418 311,-418 311,-448.5"/>
<text xml:space="preserve" text-anchor="start" x="191.25" y="-435" font-family="Helvetica,sans-Serif" font-size="10.00">RecordingRuntimeWorker</text>
<text xml:space="preserve" text-anchor="middle" x="247.12" y="-423.75" font-family="Helvetica,sans-Serif" font-size="10.00">::persistenceFinished</text>
</a>
</g>
</g>
<!-- Node6&#45;&gt;Node9 -->
<g id="edge11_Node000006_Node000009" class="edge">
<title>Node6&#45;&gt;Node9</title>
<g id="a_edge11_Node000006_Node000009"><a xlink:title=" ">
<path fill="none" stroke="#63b8ff" d="M402.07,-311.05C383,-338.16 349.24,-381.33 311,-408.25 306.01,-411.77 300.45,-414.89 294.76,-417.62"/>
<polygon fill="#63b8ff" stroke="#63b8ff" points="404.76,-313.31 407.55,-303.09 399,-309.34 404.76,-313.31"/>
</a>
</g>
</g>
<!-- Node10 -->
<g id="Node000010" class="node">
<title>Node10</title>
<g id="a_Node000010"><a xlink:href="class_recording_runtime_worker.html#aa95e5c13c8f695fd05b3228cd1027b4d" target="_top" xlink:title=" ">
<polygon fill="white" stroke="#666666" points="311,-399.5 183.25,-399.5 183.25,-369 311,-369 311,-399.5"/>
<text xml:space="preserve" text-anchor="start" x="191.25" y="-386" font-family="Helvetica,sans-Serif" font-size="10.00">RecordingRuntimeWorker</text>
<text xml:space="preserve" text-anchor="middle" x="247.12" y="-374.75" font-family="Helvetica,sans-Serif" font-size="10.00">::recordingInputDrained</text>
</a>
</g>
</g>
<!-- Node6&#45;&gt;Node10 -->
<g id="edge13_Node000006_Node000010" class="edge">
<title>Node6&#45;&gt;Node10</title>
<g id="a_edge13_Node000006_Node000010"><a xlink:title=" ">
<path fill="none" stroke="#63b8ff" d="M389.3,-308.65C368.28,-324.12 338.83,-344.5 311,-359.25 304.77,-362.55 298.01,-365.68 291.31,-368.53"/>
<polygon fill="#63b8ff" stroke="#63b8ff" points="391.19,-311.6 397.12,-302.82 387.01,-305.99 391.19,-311.6"/>
</a>
</g>
</g>
<!-- Node11 -->
<g id="Node000011" class="node">
<title>Node11</title>
<g id="a_Node000011"><a xlink:href="class_recording_runtime_worker.html#acda38c2fee67b6c7194a3e99de2f73fb" target="_top" xlink:title=" ">
<polygon fill="white" stroke="#666666" points="311,-350.5 183.25,-350.5 183.25,-320 311,-320 311,-350.5"/>
<text xml:space="preserve" text-anchor="start" x="191.25" y="-337" font-family="Helvetica,sans-Serif" font-size="10.00">RecordingRuntimeWorker</text>
<text xml:space="preserve" text-anchor="middle" x="247.12" y="-325.75" font-family="Helvetica,sans-Serif" font-size="10.00">::recordingInputFailed</text>
</a>
</g>
</g>
<!-- Node6&#45;&gt;Node11 -->
<g id="edge15_Node000006_Node000011" class="edge">
<title>Node6&#45;&gt;Node11</title>
<g id="a_edge15_Node000006_Node000011"><a xlink:title=" ">
<path fill="none" stroke="#63b8ff" d="M353.36,-304.98C336.69,-309.78 318.94,-314.88 302.86,-319.51"/>
<polygon fill="#63b8ff" stroke="#63b8ff" points="354.03,-308.43 362.67,-302.31 352.09,-301.71 354.03,-308.43"/>
</a>
</g>
</g>
<!-- Node12 -->
<g id="Node000012" class="node">
<title>Node12</title>
<g id="a_Node000012"><a xlink:href="class_recording_runtime_worker.html#a936496b85d48a45d4211d2f2c42165bf" target="_top" xlink:title=" ">
<polygon fill="white" stroke="#666666" points="311,-301.5 183.25,-301.5 183.25,-271 311,-271 311,-301.5"/>
<text xml:space="preserve" text-anchor="start" x="191.25" y="-288" font-family="Helvetica,sans-Serif" font-size="10.00">RecordingRuntimeWorker</text>
<text xml:space="preserve" text-anchor="middle" x="247.12" y="-276.75" font-family="Helvetica,sans-Serif" font-size="10.00">::resetRecording</text>
</a>
</g>
</g>
<!-- Node6&#45;&gt;Node12 -->
<g id="edge17_Node000006_Node000012" class="edge">
<title>Node6&#45;&gt;Node12</title>
<g id="a_edge17_Node000006_Node000012"><a xlink:title=" ">
<path fill="none" stroke="#63b8ff" d="M344.25,-286.25C333.29,-286.25 322.1,-286.25 311.39,-286.25"/>
<polygon fill="#63b8ff" stroke="#63b8ff" points="344.03,-289.75 354.03,-286.25 344.03,-282.75 344.03,-289.75"/>
</a>
</g>
</g>
<!-- Node13 -->
<g id="Node000013" class="node">
<title>Node13</title>
<g id="a_Node000013"><a xlink:href="class_recording_runtime_worker.html#ab5898c2bcc5e584125a29144c3c69182" target="_top" xlink:title=" ">
<polygon fill="white" stroke="#666666" points="311,-252.5 183.25,-252.5 183.25,-222 311,-222 311,-252.5"/>
<text xml:space="preserve" text-anchor="start" x="191.25" y="-239" font-family="Helvetica,sans-Serif" font-size="10.00">RecordingRuntimeWorker</text>
<text xml:space="preserve" text-anchor="middle" x="247.12" y="-227.75" font-family="Helvetica,sans-Serif" font-size="10.00">::resumeRecording</text>
</a>
</g>
</g>
<!-- Node6&#45;&gt;Node13 -->
<g id="edge19_Node000006_Node000013" class="edge">
<title>Node6&#45;&gt;Node13</title>
<g id="a_edge19_Node000006_Node000013"><a xlink:title=" ">
<path fill="none" stroke="#63b8ff" d="M353.36,-267.52C336.69,-262.72 318.94,-257.62 302.86,-252.99"/>
<polygon fill="#63b8ff" stroke="#63b8ff" points="352.09,-270.79 362.67,-270.19 354.03,-264.07 352.09,-270.79"/>
</a>
</g>
</g>
<!-- Node14 -->
<g id="Node000014" class="node">
<title>Node14</title>
<g id="a_Node000014"><a xlink:href="class_recording_runtime_worker.html#a61213bbf2bcc9fda683e78384a9ec15f" target="_top" xlink:title=" ">
<polygon fill="white" stroke="#666666" points="311,-203.5 183.25,-203.5 183.25,-173 311,-173 311,-203.5"/>
<text xml:space="preserve" text-anchor="start" x="191.25" y="-190" font-family="Helvetica,sans-Serif" font-size="10.00">RecordingRuntimeWorker</text>
<text xml:space="preserve" text-anchor="middle" x="247.12" y="-178.75" font-family="Helvetica,sans-Serif" font-size="10.00">::snapshotRecording</text>
</a>
</g>
</g>
<!-- Node6&#45;&gt;Node14 -->
<g id="edge21_Node000006_Node000014" class="edge">
<title>Node6&#45;&gt;Node14</title>
<g id="a_edge21_Node000006_Node000014"><a xlink:title=" ">
<path fill="none" stroke="#63b8ff" d="M389.3,-263.85C368.28,-248.38 338.83,-228 311,-213.25 304.77,-209.95 298.01,-206.82 291.31,-203.97"/>
<polygon fill="#63b8ff" stroke="#63b8ff" points="387.01,-266.51 397.12,-269.68 391.19,-260.9 387.01,-266.51"/>
</a>
</g>
</g>
<!-- Node15 -->
<g id="Node000015" class="node">
<title>Node15</title>
<g id="a_Node000015"><a xlink:href="class_recording_runtime_worker.html#a9188ede54293648e6d7ed0d0d3f9c3f0" target="_top" xlink:title=" ">
<polygon fill="white" stroke="#666666" points="311,-30.5 183.25,-30.5 183.25,0 311,0 311,-30.5"/>
<text xml:space="preserve" text-anchor="start" x="191.25" y="-17" font-family="Helvetica,sans-Serif" font-size="10.00">RecordingRuntimeWorker</text>
<text xml:space="preserve" text-anchor="middle" x="247.12" y="-5.75" font-family="Helvetica,sans-Serif" font-size="10.00">::startRecording</text>
</a>
</g>
</g>
<!-- Node6&#45;&gt;Node15 -->
<g id="edge23_Node000006_Node000015" class="edge">
<title>Node6&#45;&gt;Node15</title>
<g id="a_edge23_Node000006_Node000015"><a xlink:title=" ">
<path fill="none" stroke="#63b8ff" d="M413.2,-259.68C402.24,-211.03 372.74,-106.87 311,-44.25 305.77,-38.94 299.38,-34.51 292.71,-30.83"/>
<polygon fill="#63b8ff" stroke="#63b8ff" points="409.75,-260.28 415.28,-269.32 416.59,-258.8 409.75,-260.28"/>
</a>
</g>
</g>
<!-- Node16 -->
<g id="Node000016" class="node">
<title>Node16</title>
<g id="a_Node000016"><a xlink:href="class_recording_runtime_worker.html#a30457a2f16339425b56245e6e331c59b" target="_top" xlink:title=" ">
<polygon fill="white" stroke="#666666" points="143.5,-52.5 3.75,-52.5 3.75,-22 143.5,-22 143.5,-52.5"/>
<text xml:space="preserve" text-anchor="start" x="11.75" y="-39" font-family="Helvetica,sans-Serif" font-size="10.00">RecordingRuntimeWorker</text>
<text xml:space="preserve" text-anchor="middle" x="73.62" y="-27.75" font-family="Helvetica,sans-Serif" font-size="10.00">::~RecordingRuntimeWorker</text>
</a>
</g>
</g>
<!-- Node6&#45;&gt;Node16 -->
<g id="edge29_Node000006_Node000016" class="edge">
<title>Node6&#45;&gt;Node16</title>
<g id="a_edge29_Node000006_Node000016"><a xlink:title=" ">
<path fill="none" stroke="#63b8ff" d="M411.63,-259.73C399.15,-217.04 368.55,-133.54 311,-90.25 262.85,-54.04 194.58,-41.76 143.77,-37.96"/>
<polygon fill="#63b8ff" stroke="#63b8ff" points="408.21,-260.47 414.27,-269.16 414.95,-258.58 408.21,-260.47"/>
</a>
</g>
</g>
<!-- Node17 -->
<g id="Node000017" class="node">
<title>Node17</title>
<g id="a_Node000017"><a xlink:href="class_recording_runtime_worker.html#a3466b3bc436b3d805eebfcf40a5275dc" target="_top" xlink:title=" ">
<polygon fill="white" stroke="#666666" points="311,-154.5 183.25,-154.5 183.25,-124 311,-124 311,-154.5"/>
<text xml:space="preserve" text-anchor="start" x="191.25" y="-141" font-family="Helvetica,sans-Serif" font-size="10.00">RecordingRuntimeWorker</text>
<text xml:space="preserve" text-anchor="middle" x="247.12" y="-129.75" font-family="Helvetica,sans-Serif" font-size="10.00">::stopRecording</text>
</a>
</g>
</g>
<!-- Node6&#45;&gt;Node17 -->
<g id="edge26_Node000006_Node000017" class="edge">
<title>Node6&#45;&gt;Node17</title>
<g id="a_edge26_Node000006_Node000017"><a xlink:title=" ">
<path fill="none" stroke="#63b8ff" d="M402.07,-261.45C383,-234.34 349.24,-191.17 311,-164.25 306.01,-160.73 300.45,-157.61 294.76,-154.88"/>
<polygon fill="#63b8ff" stroke="#63b8ff" points="399,-263.16 407.55,-269.41 404.76,-259.19 399,-263.16"/>
</a>
</g>
</g>
<!-- Node7&#45;&gt;Node4 -->
<g id="edge7_Node000007_Node000004" class="edge">
<title>Node7&#45;&gt;Node4</title>
<g id="a_edge7_Node000007_Node000004"><a xlink:title=" ">
<path fill="none" stroke="#63b8ff" d="M187.21,-509.46C185.84,-508.43 184.52,-507.37 183.25,-506.25 124.25,-454.34 90.73,-362.32 79.21,-325.8"/>
<polygon fill="#63b8ff" stroke="#63b8ff" points="185.21,-512.34 195.52,-514.77 188.98,-506.44 185.21,-512.34"/>
</a>
</g>
</g>
<!-- Node8&#45;&gt;Node4 -->
<g id="edge10_Node000008_Node000004" class="edge">
<title>Node8&#45;&gt;Node4</title>
<g id="a_edge10_Node000008_Node000004"><a xlink:title=" ">
<path fill="none" stroke="#63b8ff" d="M188.6,-461.02C186.75,-459.82 184.96,-458.57 183.25,-457.25 134.73,-419.87 97.63,-355.3 82.31,-325.79"/>
<polygon fill="#63b8ff" stroke="#63b8ff" points="186.49,-463.85 196.91,-465.79 189.97,-457.78 186.49,-463.85"/>
</a>
</g>
</g>
<!-- Node9&#45;&gt;Node4 -->
<g id="edge12_Node000009_Node000004" class="edge">
<title>Node9&#45;&gt;Node4</title>
<g id="a_edge12_Node000009_Node000004"><a xlink:title=" ">
<path fill="none" stroke="#63b8ff" d="M190.72,-412.55C188.16,-411.18 185.65,-409.74 183.25,-408.25 145.07,-384.51 107.76,-346.75 88.37,-325.71"/>
<polygon fill="#63b8ff" stroke="#63b8ff" points="188.98,-415.59 199.5,-416.86 192.07,-409.31 188.98,-415.59"/>
</a>
</g>
</g>
<!-- Node10&#45;&gt;Node4 -->
<g id="edge14_Node000010_Node000004" class="edge">
<title>Node10&#45;&gt;Node4</title>
<g id="a_edge14_Node000010_Node000004"><a xlink:title=" ">
<path fill="none" stroke="#63b8ff" d="M195.12,-364.2C191.09,-362.54 187.1,-360.88 183.25,-359.25 157.92,-348.51 129.59,-335.7 108.21,-325.88"/>
<polygon fill="#63b8ff" stroke="#63b8ff" points="193.78,-367.43 204.36,-367.95 196.41,-360.94 193.78,-367.43"/>
</a>
</g>
</g>
<!-- Node11&#45;&gt;Node4 -->
<g id="edge16_Node000011_Node000004" class="edge">
<title>Node11&#45;&gt;Node4</title>
<g id="a_edge16_Node000011_Node000004"><a xlink:title=" ">
<path fill="none" stroke="#63b8ff" d="M171.6,-324.39C163.63,-323.22 155.53,-322.04 147.58,-320.89"/>
<polygon fill="#63b8ff" stroke="#63b8ff" points="170.85,-327.81 181.25,-325.79 171.86,-320.89 170.85,-327.81"/>
</a>
</g>
</g>
<!-- Node12&#45;&gt;Node4 -->
<g id="edge18_Node000012_Node000004" class="edge">
<title>Node12&#45;&gt;Node4</title>
<g id="a_edge18_Node000012_Node000004"><a xlink:title=" ">
<path fill="none" stroke="#63b8ff" d="M171.6,-296.68C163.63,-297.79 155.53,-298.93 147.58,-300.04"/>
<polygon fill="#63b8ff" stroke="#63b8ff" points="171.83,-300.18 181.25,-295.33 170.86,-293.25 171.83,-300.18"/>
</a>
</g>
</g>
<!-- Node13&#45;&gt;Node4 -->
<g id="edge20_Node000013_Node000004" class="edge">
<title>Node13&#45;&gt;Node4</title>
<g id="a_edge20_Node000013_Node000004"><a xlink:title=" ">
<path fill="none" stroke="#63b8ff" d="M195.67,-257.12C191.46,-258.83 187.28,-260.56 183.25,-262.25 158.34,-272.7 130.48,-285.02 109.21,-294.57"/>
<polygon fill="#63b8ff" stroke="#63b8ff" points="196.76,-260.45 204.72,-253.46 194.13,-253.96 196.76,-260.45"/>
</a>
</g>
</g>
<!-- Node14&#45;&gt;Node4 -->
<g id="edge22_Node000014_Node000004" class="edge">
<title>Node14&#45;&gt;Node4</title>
<g id="a_edge22_Node000014_Node000004"><a xlink:title=" ">
<path fill="none" stroke="#63b8ff" d="M190.87,-208.89C188.25,-210.28 185.7,-211.74 183.25,-213.25 145.4,-236.65 108.25,-273.72 88.73,-294.61"/>
<polygon fill="#63b8ff" stroke="#63b8ff" points="192.39,-212.05 199.85,-204.51 189.32,-205.76 192.39,-212.05"/>
</a>
</g>
</g>
<!-- Node15&#45;&gt;Node4 -->
<g id="edge24_Node000015_Node000004" class="edge">
<title>Node15&#45;&gt;Node4</title>
<g id="a_edge24_Node000015_Node000004"><a xlink:title=" ">
<path fill="none" stroke="#63b8ff" d="M220.71,-38.67C208.4,-50.88 193.99,-66.52 183.25,-82.25 132.93,-155.94 93.97,-256.55 80.11,-294.71"/>
<polygon fill="#63b8ff" stroke="#63b8ff" points="222.99,-41.34 227.74,-31.87 218.12,-36.31 222.99,-41.34"/>
</a>
</g>
</g>
<!-- Node15&#45;&gt;Node16 -->
<g id="edge25_Node000015_Node000016" class="edge">
<title>Node15&#45;&gt;Node16</title>
<g id="a_edge25_Node000015_Node000016"><a xlink:title=" ">
<path fill="none" stroke="#63b8ff" d="M171.6,-24.81C162.36,-26 152.95,-27.2 143.79,-28.38"/>
<polygon fill="#63b8ff" stroke="#63b8ff" points="171.78,-28.32 181.25,-23.57 170.89,-21.37 171.78,-28.32"/>
</a>
</g>
</g>
<!-- Node17&#45;&gt;Node4 -->
<g id="edge27_Node000017_Node000004" class="edge">
<title>Node17&#45;&gt;Node4</title>
<g id="a_edge27_Node000017_Node000004"><a xlink:title=" ">
<path fill="none" stroke="#63b8ff" d="M188.6,-160.48C186.75,-161.68 184.96,-162.94 183.25,-164.25 134.89,-201.38 97.71,-265.51 82.34,-294.82"/>
<polygon fill="#63b8ff" stroke="#63b8ff" points="189.98,-163.73 196.92,-155.73 186.5,-157.65 189.98,-163.73"/>
</a>
</g>
</g>
<!-- Node18&#45;&gt;Node15 -->
<g id="edge31_Node000018_Node000015" class="edge">
<title>Node18&#45;&gt;Node15</title>
<g id="a_edge31_Node000018_Node000015"><a xlink:title=" ">
<path fill="none" stroke="#63b8ff" d="M541.82,-107.24C473.04,-85.7 362.21,-50.99 298.18,-30.93"/>
<polygon fill="#63b8ff" stroke="#63b8ff" points="540.44,-110.48 551.03,-110.13 542.54,-103.8 540.44,-110.48"/>
</a>
</g>
</g>
</g>
</svg>

<g id="navigator" transform="translate(0 0)" fill="#404254">
  <rect fill="#f2f5e9" fill-opacity="0.5" stroke="#606060" stroke-width=".5" x="0" y="0" width="60" height="60"/>
  <use id="zoomplus" xlink:href="#zoomPlus" x="17" y="9" data-zoom="in"/>
  <use id="zoomminus" xlink:href="#zoomMin" x="42" y="9" data-zoom="out"/>
  <use id="reset" xlink:href="#resetDef" x="30" y="36" data-reset="true"/>
  <use id="arrowup" xlink:href="#arrowUp" x="0" y="0" data-pan-x="0" data-pan-y="-1"/>
  <use id="arrowright" xlink:href="#arrowRight" x="0" y="0" data-pan-x="1" data-pan-y="0"/>
  <use id="arrowdown" xlink:href="#arrowDown" x="0" y="0" data-pan-x="0" data-pan-y="1"/>
  <use id="arrowleft" xlink:href="#arrowLeft" x="0" y="0" data-pan-x="-1" data-pan-y="0"/>
</g>
<svg viewBox="0 0 15 15" width="100%" height="30px" preserveAspectRatio="xMaxYMin meet">
 <g id="arrow_out" transform="scale(0.3 0.3)">
  <a xlink:href="class_recording_pipeline_coordinator_a420c9204c99578c8f0d63a0639c39588_icgraph_org.svg" target="_base">
   <rect id="button" ry="5" rx="5" y="6" x="6" height="38" width="38"
        fill="#f2f5e9" fill-opacity="0.5" stroke="#606060" stroke-width="1.0"/>
   <path id="arrow"
     d="M 11.500037,31.436501 C 11.940474,20.09759 22.043105,11.32322 32.158766,21.979434 L 37.068811,17.246167 C 37.068811,17.246167 37.088388,32 37.088388,32 L 22.160133,31.978069 C 22.160133,31.978069 26.997745,27.140456 26.997745,27.140456 C 18.528582,18.264221 13.291696,25.230495 11.500037,31.436501 z"
     style="fill:#404040;"/>
  </a>
 </g>
</svg>

<style type='text/css'>
<![CDATA[
[data-mouse-over-selected='false'] { opacity: 0.7; }
[data-mouse-over-selected='true']  { opacity: 1.0; }
]]>
</style>
</svg>
