<?xml version="1.0" encoding="UTF-8" standalone="no"?>
<!DOCTYPE svg PUBLIC "-//W3C//DTD SVG 1.1//EN"
 "http://www.w3.org/Graphics/SVG/1.1/DTD/svg11.dtd">
<!-- Generated by graphviz version 15.1.0 (20260618.0150)
 -->
<!-- Title: SourceLifecycleCoordinator::beginLoadPlayback Pages: 1 -->
<svg width="1209pt" height="552pt"
 viewBox="0.00 0.00 1209.00 552.00" xmlns="http://www.w3.org/2000/svg" xmlns:xlink="http://www.w3.org/1999/xlink">
<g id="graph0" class="graph" transform="scale(1 1) rotate(0) translate(4 547.58)">
<title>SourceLifecycleCoordinator::beginLoadPlayback</title>
<!-- Node1 -->
<g id="Node000001" class="node">
<title>Node1</title>
<g id="a_Node000001"><a xlink:title=" ">
<polygon fill="#999999" stroke="#666666" points="136,-327.88 0,-327.88 0,-297.38 136,-297.38 136,-327.88"/>
<text xml:space="preserve" text-anchor="start" x="8" y="-314.38" font-family="Helvetica,sans-Serif" font-size="10.00">SourceLifecycleCoordinator</text>
<text xml:space="preserve" text-anchor="middle" x="68" y="-303.12" font-family="Helvetica,sans-Serif" font-size="10.00">::beginLoadPlayback</text>
</a>
</g>
</g>
<!-- Node2 -->
<g id="Node000002" class="node">
<title>Node2</title>
<g id="a_Node000002"><a xlink:href="class_source_lifecycle_coordinator.html#a5fe8ac3946fc99edecf8f2d8ca6070c3" target="_top" xlink:title=" ">
<polygon fill="white" stroke="#666666" points="317.75,-327.88 181.75,-327.88 181.75,-297.38 317.75,-297.38 317.75,-327.88"/>
<text xml:space="preserve" text-anchor="start" x="189.75" y="-314.38" font-family="Helvetica,sans-Serif" font-size="10.00">SourceLifecycleCoordinator</text>
<text xml:space="preserve" text-anchor="middle" x="249.75" y="-303.12" font-family="Helvetica,sans-Serif" font-size="10.00">::handle</text>
</a>
</g>
</g>
<!-- Node1&#45;&gt;Node2 -->
<g id="edge1_Node000001_Node000002" class="edge">
<title>Node1&#45;&gt;Node2</title>
<g id="a_edge1_Node000001_Node000002"><a xlink:title=" ">
<path fill="none" stroke="#63b8ff" d="M136.44,-312.62C147.5,-312.62 159.04,-312.62 170.34,-312.62"/>
<polygon fill="#63b8ff" stroke="#63b8ff" points="170.01,-316.13 180.01,-312.63 170.01,-309.13 170.01,-316.13"/>
</a>
</g>
</g>
<!-- Node5 -->
<g id="Node000005" class="node">
<title>Node5</title>
<g id="a_Node000005"><a xlink:href="class_source_lifecycle_coordinator.html#ab9bcd60ffe9d0869d2794be0ecbdcae4" target="_top" xlink:title=" ">
<polygon fill="white" stroke="#666666" points="846.5,-465.88 710.5,-465.88 710.5,-435.38 846.5,-435.38 846.5,-465.88"/>
<text xml:space="preserve" text-anchor="start" x="718.5" y="-452.38" font-family="Helvetica,sans-Serif" font-size="10.00">SourceLifecycleCoordinator</text>
<text xml:space="preserve" text-anchor="middle" x="778.5" y="-441.12" font-family="Helvetica,sans-Serif" font-size="10.00">::rejectDispatch</text>
</a>
</g>
</g>
<!-- Node1&#45;&gt;Node5 -->
<g id="edge34_Node000001_Node000005" class="edge">
<title>Node1&#45;&gt;Node5</title>
<g id="a_edge34_Node000001_Node000005"><a xlink:title=" ">
<path fill="none" stroke="#63b8ff" d="M94.21,-328.13C114.7,-340.35 144.59,-357.32 172,-369.62 329.54,-440.34 368.28,-469.54 538.5,-498.62 598.08,-508.8 616.48,-515.58 674.5,-498.62 692.72,-493.3 693.51,-484.1 710.5,-475.62 713.94,-473.91 717.52,-472.24 721.17,-470.64"/>
<polygon fill="#63b8ff" stroke="#63b8ff" points="722.27,-473.98 730.14,-466.88 719.57,-467.52 722.27,-473.98"/>
</a>
</g>
</g>
<!-- Node7 -->
<g id="Node000007" class="node">
<title>Node7</title>
<g id="a_Node000007"><a xlink:href="class_source_lifecycle_coordinator.html#ad34fbe86cb6fe96f56d3d00d4d587a39" target="_top" xlink:title=" ">
<polygon fill="#fff0f0" stroke="red" points="1023.75,-284.88 887.75,-284.88 887.75,-254.38 1023.75,-254.38 1023.75,-284.88"/>
<text xml:space="preserve" text-anchor="start" x="895.75" y="-271.38" font-family="Helvetica,sans-Serif" font-size="10.00">SourceLifecycleCoordinator</text>
<text xml:space="preserve" text-anchor="middle" x="955.75" y="-260.12" font-family="Helvetica,sans-Serif" font-size="10.00">::setState</text>
</a>
</g>
</g>
<!-- Node1&#45;&gt;Node7 -->
<g id="edge35_Node000001_Node000007" class="edge">
<title>Node1&#45;&gt;Node7</title>
<g id="a_edge35_Node000001_Node000007"><a xlink:title=" ">
<path fill="none" stroke="#63b8ff" d="M79.11,-297.23C117.61,-240.67 261.51,-47.62 432,-47.62 432,-47.62 432,-47.62 607.5,-47.62 714.86,-47.62 757.64,-22.39 846.5,-82.62 903.85,-121.5 934.8,-201.62 947.58,-243.24"/>
<polygon fill="#63b8ff" stroke="#63b8ff" points="944.18,-244.06 950.35,-252.67 950.89,-242.09 944.18,-244.06"/>
</a>
</g>
</g>
<!-- Node24 -->
<g id="Node000024" class="node">
<title>Node24</title>
<g id="a_Node000024"><a xlink:href="class_i_playback_runtime.html#aeffc99559fd5a70ec4c22cc07d44d8d6" target="_top" xlink:title=" ">
<polygon fill="white" stroke="#666666" points="327.5,-19.25 172,-19.25 172,0 327.5,0 327.5,-19.25"/>
<text xml:space="preserve" text-anchor="middle" x="249.75" y="-5.75" font-family="Helvetica,sans-Serif" font-size="10.00">IPlaybackRuntime::loadSession</text>
</a>
</g>
</g>
<!-- Node1&#45;&gt;Node24 -->
<g id="edge33_Node000001_Node000024" class="edge">
<title>Node1&#45;&gt;Node24</title>
<g id="a_edge33_Node000001_Node000024"><a xlink:title=" ">
<path fill="none" stroke="#63b8ff" d="M70.08,-297.09C74.18,-250.22 92.85,-108.87 172,-33.62 175.69,-30.12 179.88,-27.13 184.35,-24.57"/>
<polygon fill="#63b8ff" stroke="#63b8ff" points="185.69,-27.81 193.16,-20.31 182.64,-21.51 185.69,-27.81"/>
</a>
</g>
</g>
<!-- Node3 -->
<g id="Node000003" class="node">
<title>Node3</title>
<g id="a_Node000003"><a xlink:href="class_source_lifecycle_coordinator.html#a92e4dcfa7138ea6a8c54e78d2198b850" target="_top" xlink:title=" ">
<polygon fill="white" stroke="#666666" points="501,-413.88 365,-413.88 365,-383.38 501,-383.38 501,-413.88"/>
<text xml:space="preserve" text-anchor="start" x="373" y="-400.38" font-family="Helvetica,sans-Serif" font-size="10.00">SourceLifecycleCoordinator</text>
<text xml:space="preserve" text-anchor="middle" x="433" y="-389.12" font-family="Helvetica,sans-Serif" font-size="10.00">::advanceIntent</text>
</a>
</g>
</g>
<!-- Node2&#45;&gt;Node3 -->
<g id="edge2_Node000002_Node000003" class="edge">
<title>Node2&#45;&gt;Node3</title>
<g id="a_edge2_Node000002_Node000003"><a xlink:title=" ">
<path fill="none" stroke="#63b8ff" d="M280.16,-328.18C302.75,-339.96 334.85,-356.34 363.5,-369.62 369.88,-372.58 376.65,-375.6 383.35,-378.51"/>
<polygon fill="#63b8ff" stroke="#63b8ff" points="381.79,-381.65 392.36,-382.38 384.55,-375.22 381.79,-381.65"/>
</a>
</g>
</g>
<!-- Node6 -->
<g id="Node000006" class="node">
<title>Node6</title>
<g id="a_Node000006"><a xlink:href="class_source_lifecycle_coordinator.html#a17ce5b778f5c25dcf667c451910501ec" target="_top" xlink:title=" ">
<polygon fill="white" stroke="#666666" points="1023.75,-465.88 887.75,-465.88 887.75,-435.38 1023.75,-435.38 1023.75,-465.88"/>
<text xml:space="preserve" text-anchor="start" x="895.75" y="-452.38" font-family="Helvetica,sans-Serif" font-size="10.00">SourceLifecycleCoordinator</text>
<text xml:space="preserve" text-anchor="middle" x="955.75" y="-441.12" font-family="Helvetica,sans-Serif" font-size="10.00">::errorRaised</text>
</a>
</g>
</g>
<!-- Node2&#45;&gt;Node6 -->
<g id="edge22_Node000002_Node000006" class="edge">
<title>Node2&#45;&gt;Node6</title>
<g id="a_edge22_Node000002_Node000006"><a xlink:title=" ">
<path fill="none" stroke="#63b8ff" d="M263.53,-328.31C283.06,-351.47 322.41,-395.03 363.5,-422.62 433.9,-469.9 456.94,-475.43 538.5,-498.62 670.6,-536.19 715.16,-563.77 846.5,-523.62 878.41,-513.87 909.42,-491.19 930.01,-473.68"/>
<polygon fill="#63b8ff" stroke="#63b8ff" points="932.08,-476.52 937.3,-467.3 927.47,-471.26 932.08,-476.52"/>
</a>
</g>
</g>
<!-- Node2&#45;&gt;Node7 -->
<g id="edge32_Node000002_Node000007" class="edge">
<title>Node2&#45;&gt;Node7</title>
<g id="a_edge32_Node000002_Node000007"><a xlink:title=" ">
<path fill="none" stroke="#63b8ff" d="M314.81,-296.93C330.64,-293.62 347.61,-290.56 363.5,-288.62 546.09,-266.44 762.59,-265.99 876.18,-267.73"/>
<polygon fill="#63b8ff" stroke="#63b8ff" points="875.94,-271.23 886,-267.89 876.05,-264.23 875.94,-271.23"/>
</a>
</g>
</g>
<!-- Node15 -->
<g id="Node000015" class="node">
<title>Node15</title>
<g id="a_Node000015"><a xlink:href="class_source_lifecycle_coordinator.html#aa4662a449eeafb24036a56622528c705" target="_top" xlink:title=" ">
<polygon fill="white" stroke="#666666" points="501,-327.88 365,-327.88 365,-297.38 501,-297.38 501,-327.88"/>
<text xml:space="preserve" text-anchor="start" x="373" y="-314.38" font-family="Helvetica,sans-Serif" font-size="10.00">SourceLifecycleCoordinator</text>
<text xml:space="preserve" text-anchor="middle" x="433" y="-303.12" font-family="Helvetica,sans-Serif" font-size="10.00">::beginStopOnline</text>
</a>
</g>
</g>
<!-- Node2&#45;&gt;Node15 -->
<g id="edge16_Node000002_Node000015" class="edge">
<title>Node2&#45;&gt;Node15</title>
<g id="a_edge16_Node000002_Node000015"><a xlink:title=" ">
<path fill="none" stroke="#63b8ff" d="M318.24,-306.07C329.76,-305.87 341.81,-305.82 353.58,-305.93"/>
<polygon fill="#63b8ff" stroke="#63b8ff" points="353.2,-309.42 363.24,-306.06 353.29,-302.43 353.2,-309.42"/>
</a>
</g>
</g>
<!-- Node17 -->
<g id="Node000017" class="node">
<title>Node17</title>
<g id="a_Node000017"><a xlink:href="class_source_lifecycle_coordinator.html#a68ee01c826b43cef4dd1c61c6bbed894" target="_top" xlink:title=" ">
<polygon fill="white" stroke="#666666" points="674.5,-241.88 538.5,-241.88 538.5,-211.38 674.5,-211.38 674.5,-241.88"/>
<text xml:space="preserve" text-anchor="start" x="546.5" y="-228.38" font-family="Helvetica,sans-Serif" font-size="10.00">SourceLifecycleCoordinator</text>
<text xml:space="preserve" text-anchor="middle" x="606.5" y="-217.12" font-family="Helvetica,sans-Serif" font-size="10.00">::clearDeferredPublications</text>
</a>
</g>
</g>
<!-- Node2&#45;&gt;Node17 -->
<g id="edge21_Node000002_Node000017" class="edge">
<title>Node2&#45;&gt;Node17</title>
<g id="a_edge21_Node000002_Node000017"><a xlink:title=" ">
<path fill="none" stroke="#63b8ff" d="M275.22,-297.09C297.38,-283.8 331.38,-265.34 363.5,-255.62 416.65,-239.55 478.9,-232.34 526.96,-229.12"/>
<polygon fill="#63b8ff" stroke="#63b8ff" points="526.95,-232.63 536.72,-228.52 526.52,-225.64 526.95,-232.63"/>
</a>
</g>
</g>
<!-- Node18 -->
<g id="Node000018" class="node">
<title>Node18</title>
<g id="a_Node000018"><a xlink:href="class_source_lifecycle_coordinator.html#aef8c947cd8a4829415c050831a1423ab" target="_top" xlink:title=" ">
<polygon fill="white" stroke="#666666" points="502.5,-196.88 363.5,-196.88 363.5,-166.38 502.5,-166.38 502.5,-196.88"/>
<text xml:space="preserve" text-anchor="start" x="371.5" y="-183.38" font-family="Helvetica,sans-Serif" font-size="10.00">SourceLifecycleCoordinator</text>
<text xml:space="preserve" text-anchor="middle" x="433" y="-172.12" font-family="Helvetica,sans-Serif" font-size="10.00">::replayDeferredPublications</text>
</a>
</g>
</g>
<!-- Node2&#45;&gt;Node18 -->
<g id="edge23_Node000002_Node000018" class="edge">
<title>Node2&#45;&gt;Node18</title>
<g id="a_edge23_Node000002_Node000018"><a xlink:title=" ">
<path fill="none" stroke="#63b8ff" d="M266.16,-297.14C286.98,-276.76 325.84,-240.6 363.5,-215.62 370.58,-210.93 378.4,-206.46 386.14,-202.39"/>
<polygon fill="#63b8ff" stroke="#63b8ff" points="387.52,-205.62 394.86,-197.98 384.36,-199.37 387.52,-205.62"/>
</a>
</g>
</g>
<!-- Node3&#45;&gt;Node1 -->
<g id="edge3_Node000003_Node000001" class="edge">
<title>Node3&#45;&gt;Node1</title>
<g id="a_edge3_Node000003_Node000001"><a xlink:title=" ">
<path fill="none" stroke="#63b8ff" d="M365.68,-382.91C303.77,-368.25 211.39,-346.36 146.19,-330.91"/>
<polygon fill="#63b8ff" stroke="#63b8ff" points="147.17,-327.55 136.63,-328.65 145.55,-334.36 147.17,-327.55"/>
</a>
</g>
</g>
<!-- Node4 -->
<g id="Node000004" class="node">
<title>Node4</title>
<g id="a_Node000004"><a xlink:href="class_source_lifecycle_coordinator.html#ad926d0a983376f3b09cb2a1b237a70cc" target="_top" xlink:title=" ">
<polygon fill="white" stroke="#666666" points="674.5,-489.88 538.5,-489.88 538.5,-459.38 674.5,-459.38 674.5,-489.88"/>
<text xml:space="preserve" text-anchor="start" x="546.5" y="-476.38" font-family="Helvetica,sans-Serif" font-size="10.00">SourceLifecycleCoordinator</text>
<text xml:space="preserve" text-anchor="middle" x="606.5" y="-465.12" font-family="Helvetica,sans-Serif" font-size="10.00">::beginStartOnline</text>
</a>
</g>
</g>
<!-- Node3&#45;&gt;Node4 -->
<g id="edge4_Node000003_Node000004" class="edge">
<title>Node3&#45;&gt;Node4</title>
<g id="a_edge4_Node000003_Node000004"><a xlink:title=" ">
<path fill="none" stroke="#63b8ff" d="M468.3,-414.2C488.67,-423.41 515.02,-435.26 538.5,-445.62 544.97,-448.48 551.8,-451.47 558.53,-454.39"/>
<polygon fill="#63b8ff" stroke="#63b8ff" points="556.99,-457.54 567.56,-458.31 559.78,-451.12 556.99,-457.54"/>
</a>
</g>
</g>
<!-- Node11 -->
<g id="Node000011" class="node">
<title>Node11</title>
<g id="a_Node000011"><a xlink:href="class_source_lifecycle_coordinator.html#a69c66e72c1376f3ebd16d87791c99644" target="_top" xlink:title=" ">
<polygon fill="white" stroke="#666666" points="846.5,-379.88 710.5,-379.88 710.5,-349.38 846.5,-349.38 846.5,-379.88"/>
<text xml:space="preserve" text-anchor="start" x="718.5" y="-366.38" font-family="Helvetica,sans-Serif" font-size="10.00">SourceLifecycleCoordinator</text>
<text xml:space="preserve" text-anchor="middle" x="778.5" y="-355.12" font-family="Helvetica,sans-Serif" font-size="10.00">::transitionTo</text>
</a>
</g>
</g>
<!-- Node3&#45;&gt;Node11 -->
<g id="edge13_Node000003_Node000011" class="edge">
<title>Node3&#45;&gt;Node11</title>
<g id="a_edge13_Node000003_Node000011"><a xlink:title=" ">
<path fill="none" stroke="#63b8ff" d="M501.45,-391.95C558.17,-386.33 639.31,-378.3 698.95,-372.4"/>
<polygon fill="#63b8ff" stroke="#63b8ff" points="699.09,-375.9 708.69,-371.44 698.4,-368.94 699.09,-375.9"/>
</a>
</g>
</g>
<!-- Node4&#45;&gt;Node2 -->
<g id="edge5_Node000004_Node000002" class="edge">
<title>Node4&#45;&gt;Node2</title>
<g id="a_edge5_Node000004_Node000002"><a xlink:title=" ">
<path fill="none" stroke="#63b8ff" d="M587.1,-459.09C573.36,-447.27 554.31,-430.39 538.5,-414.62 521.57,-397.73 523.02,-386.92 502.5,-374.62 487.46,-365.61 397.45,-344.6 329.32,-329.54"/>
<polygon fill="#63b8ff" stroke="#63b8ff" points="330.15,-326.14 319.64,-327.4 328.65,-332.97 330.15,-326.14"/>
</a>
</g>
</g>
<!-- Node4&#45;&gt;Node5 -->
<g id="edge6_Node000004_Node000005" class="edge">
<title>Node4&#45;&gt;Node5</title>
<g id="a_edge6_Node000004_Node000005"><a xlink:title=" ">
<path fill="none" stroke="#63b8ff" d="M674.69,-465.14C682.64,-464.02 690.8,-462.86 698.89,-461.72"/>
<polygon fill="#63b8ff" stroke="#63b8ff" points="699.33,-465.2 708.74,-460.33 698.35,-458.26 699.33,-465.2"/>
</a>
</g>
</g>
<!-- Node4&#45;&gt;Node7 -->
<g id="edge11_Node000004_Node000007" class="edge">
<title>Node4&#45;&gt;Node7</title>
<g id="a_edge11_Node000004_Node000007"><a xlink:title=" ">
<path fill="none" stroke="#63b8ff" d="M637.59,-459.01C657.84,-448.9 685.34,-435.93 710.5,-426.62 769.36,-404.85 793.77,-422.66 846.5,-388.62 867.44,-375.11 865.91,-364.22 882.5,-345.62 898.41,-327.8 916.99,-308.27 931.33,-293.48"/>
<polygon fill="#63b8ff" stroke="#63b8ff" points="933.71,-296.06 938.17,-286.45 928.69,-291.17 933.71,-296.06"/>
</a>
</g>
</g>
<!-- Node10 -->
<g id="Node000010" class="node">
<title>Node10</title>
<g id="a_Node000010"><a xlink:href="class_i_mapping_capture_runtime.html#a480d48d2973305c91f85744567d0f318" target="_top" xlink:title=" ">
<polygon fill="white" stroke="#666666" points="842,-514.88 715,-514.88 715,-484.38 842,-484.38 842,-514.88"/>
<text xml:space="preserve" text-anchor="start" x="723" y="-501.38" font-family="Helvetica,sans-Serif" font-size="10.00">IMappingCaptureRuntime</text>
<text xml:space="preserve" text-anchor="middle" x="778.5" y="-490.12" font-family="Helvetica,sans-Serif" font-size="10.00">::startOnline</text>
</a>
</g>
</g>
<!-- Node4&#45;&gt;Node10 -->
<g id="edge12_Node000004_Node000010" class="edge">
<title>Node4&#45;&gt;Node10</title>
<g id="a_edge12_Node000004_Node000010"><a xlink:title=" ">
<path fill="none" stroke="#63b8ff" d="M674.69,-484.51C684.16,-485.9 693.94,-487.34 703.53,-488.75"/>
<polygon fill="#63b8ff" stroke="#63b8ff" points="702.77,-492.17 713.18,-490.17 703.79,-485.25 702.77,-492.17"/>
</a>
</g>
</g>
<!-- Node5&#45;&gt;Node6 -->
<g id="edge7_Node000005_Node000006" class="edge">
<title>Node5&#45;&gt;Node6</title>
<g id="a_edge7_Node000005_Node000006"><a xlink:title=" ">
<path fill="none" stroke="#63b8ff" d="M846.76,-450.62C856.33,-450.62 866.25,-450.62 876.02,-450.62"/>
<polygon fill="#63b8ff" stroke="#63b8ff" points="875.87,-454.13 885.87,-450.63 875.87,-447.13 875.87,-454.13"/>
</a>
</g>
</g>
<!-- Node5&#45;&gt;Node7 -->
<g id="edge8_Node000005_Node000007" class="edge">
<title>Node5&#45;&gt;Node7</title>
<g id="a_edge8_Node000005_Node000007"><a xlink:title=" ">
<path fill="none" stroke="#63b8ff" d="M827.57,-434.95C834.45,-431.31 841.03,-426.91 846.5,-421.62 873.37,-395.65 861.36,-376.45 882.5,-345.62 895.76,-326.3 913.95,-307.19 928.77,-292.97"/>
<polygon fill="#63b8ff" stroke="#63b8ff" points="931.04,-295.63 935.93,-286.23 926.25,-290.53 931.04,-295.63"/>
</a>
</g>
</g>
<!-- Node9 -->
<g id="Node000009" class="node">
<title>Node9</title>
<g id="a_Node000009"><a xlink:href="class_source_lifecycle_coordinator.html#aa255c75c16a3452923516e76766ae9c9" target="_top" xlink:title=" ">
<polygon fill="white" stroke="#666666" points="1201,-154.88 1065,-154.88 1065,-124.38 1201,-124.38 1201,-154.88"/>
<text xml:space="preserve" text-anchor="start" x="1073" y="-141.38" font-family="Helvetica,sans-Serif" font-size="10.00">SourceLifecycleCoordinator</text>
<text xml:space="preserve" text-anchor="middle" x="1133" y="-130.12" font-family="Helvetica,sans-Serif" font-size="10.00">::state</text>
</a>
</g>
</g>
<!-- Node7&#45;&gt;Node9 -->
<g id="edge9_Node000007_Node000009" class="edge">
<title>Node7&#45;&gt;Node9</title>
<g id="a_edge9_Node000007_Node000009"><a xlink:title=" ">
<path fill="none" stroke="#63b8ff" d="M977.89,-253.94C1008.81,-231.01 1066.53,-188.19 1101.88,-161.97"/>
<polygon fill="#63b8ff" stroke="#63b8ff" points="1103.62,-165.03 1109.57,-156.26 1099.45,-159.41 1103.62,-165.03"/>
</a>
</g>
</g>
<!-- Node9&#45;&gt;Node9 -->
<g id="edge10_Node000009_Node000009" class="edge">
<title>Node9&#45;&gt;Node9</title>
<g id="a_edge10_Node000009_Node000009"><a xlink:title=" ">
<path fill="none" stroke="#63b8ff" d="M1101.59,-155.36C1095.18,-164.43 1105.65,-172.88 1133,-172.88 1147.96,-172.88 1157.86,-170.35 1162.73,-166.58"/>
<polygon fill="#63b8ff" stroke="#63b8ff" points="1166.16,-167.27 1164.18,-156.86 1159.24,-166.23 1166.16,-167.27"/>
</a>
</g>
</g>
<!-- Node11&#45;&gt;Node6 -->
<g id="edge14_Node000011_Node000006" class="edge">
<title>Node11&#45;&gt;Node6</title>
<g id="a_edge14_Node000011_Node000006"><a xlink:title=" ">
<path fill="none" stroke="#63b8ff" d="M811.24,-380.2C839.59,-394.12 881.36,-414.61 912.53,-429.91"/>
<polygon fill="#63b8ff" stroke="#63b8ff" points="910.78,-432.95 921.3,-434.21 913.86,-426.66 910.78,-432.95"/>
</a>
</g>
</g>
<!-- Node12 -->
<g id="Node000012" class="node">
<title>Node12</title>
<g id="a_Node000012"><a xlink:href="class_mode_coordinator.html#a37cbbd4b6fa9daef34624ad223228853" target="_top" xlink:title=" ">
<polygon fill="#fff0f0" stroke="red" points="1029,-374.25 882.5,-374.25 882.5,-355 1029,-355 1029,-374.25"/>
<text xml:space="preserve" text-anchor="middle" x="955.75" y="-360.75" font-family="Helvetica,sans-Serif" font-size="10.00">ModeCoordinator::transitionTo</text>
</a>
</g>
</g>
<!-- Node11&#45;&gt;Node12 -->
<g id="edge15_Node000011_Node000012" class="edge">
<title>Node11&#45;&gt;Node12</title>
<g id="a_edge15_Node000011_Node000012"><a xlink:title=" ">
<path fill="none" stroke="#63b8ff" d="M846.76,-364.62C854.63,-364.62 862.73,-364.62 870.8,-364.62"/>
<polygon fill="#63b8ff" stroke="#63b8ff" points="870.63,-368.13 880.63,-364.63 870.63,-361.13 870.63,-368.13"/>
</a>
</g>
</g>
<!-- Node15&#45;&gt;Node2 -->
<g id="edge17_Node000015_Node000002" class="edge">
<title>Node15&#45;&gt;Node2</title>
<g id="a_edge17_Node000015_Node000002"><a xlink:title=" ">
<path fill="none" stroke="#63b8ff" d="M364.75,-319.17C353.25,-319.38 341.2,-319.43 329.42,-319.32"/>
<polygon fill="#63b8ff" stroke="#63b8ff" points="329.8,-315.83 319.75,-319.2 329.71,-322.83 329.8,-315.83"/>
</a>
</g>
</g>
<!-- Node15&#45;&gt;Node5 -->
<g id="edge18_Node000015_Node000005" class="edge">
<title>Node15&#45;&gt;Node5</title>
<g id="a_edge18_Node000015_Node000005"><a xlink:title=" ">
<path fill="none" stroke="#63b8ff" d="M477.17,-328.24C485.84,-332.1 494.68,-336.6 502.5,-341.62 520.76,-353.36 519.72,-363.75 538.5,-374.62 588.4,-403.52 650.63,-422.86 699.08,-434.8"/>
<polygon fill="#63b8ff" stroke="#63b8ff" points="698.13,-438.17 708.67,-437.1 699.76,-431.36 698.13,-438.17"/>
</a>
</g>
</g>
<!-- Node15&#45;&gt;Node7 -->
<g id="edge19_Node000015_Node000007" class="edge">
<title>Node15&#45;&gt;Node7</title>
<g id="a_edge19_Node000015_Node000007"><a xlink:title=" ">
<path fill="none" stroke="#63b8ff" d="M501.26,-309.11C583,-304.55 725.06,-295.74 846.5,-283.62 856.09,-282.67 866.14,-281.54 876.09,-280.34"/>
<polygon fill="#63b8ff" stroke="#63b8ff" points="876.26,-283.85 885.76,-279.16 875.4,-276.9 876.26,-283.85"/>
</a>
</g>
</g>
<!-- Node16 -->
<g id="Node000016" class="node">
<title>Node16</title>
<g id="a_Node000016"><a xlink:href="class_i_mapping_capture_runtime.html#aeab7e38a28680be45c14e99c94123fc8" target="_top" xlink:title=" ">
<polygon fill="white" stroke="#666666" points="670,-365.88 543,-365.88 543,-335.38 670,-335.38 670,-365.88"/>
<text xml:space="preserve" text-anchor="start" x="551" y="-352.38" font-family="Helvetica,sans-Serif" font-size="10.00">IMappingCaptureRuntime</text>
<text xml:space="preserve" text-anchor="middle" x="606.5" y="-341.12" font-family="Helvetica,sans-Serif" font-size="10.00">::stopOnline</text>
</a>
</g>
</g>
<!-- Node15&#45;&gt;Node16 -->
<g id="edge20_Node000015_Node000016" class="edge">
<title>Node15&#45;&gt;Node16</title>
<g id="a_edge20_Node000015_Node000016"><a xlink:title=" ">
<path fill="none" stroke="#63b8ff" d="M501.29,-327.53C511.18,-329.73 521.41,-331.99 531.42,-334.21"/>
<polygon fill="#63b8ff" stroke="#63b8ff" points="530.61,-337.62 541.13,-336.36 532.12,-330.78 530.61,-337.62"/>
</a>
</g>
</g>
<!-- Node18&#45;&gt;Node9 -->
<g id="edge31_Node000018_Node000009" class="edge">
<title>Node18&#45;&gt;Node9</title>
<g id="a_edge31_Node000018_Node000009"><a xlink:title=" ">
<path fill="none" stroke="#63b8ff" d="M466.2,-165.96C516.78,-142.32 618.57,-98.59 710.5,-82.62 839.74,-60.18 992.58,-96.34 1074.03,-120.57"/>
<polygon fill="#63b8ff" stroke="#63b8ff" points="1073.01,-123.91 1083.6,-123.46 1075.04,-117.21 1073.01,-123.91"/>
</a>
</g>
</g>
<!-- Node18&#45;&gt;Node17 -->
<g id="edge30_Node000018_Node000017" class="edge">
<title>Node18&#45;&gt;Node17</title>
<g id="a_edge30_Node000018_Node000017"><a xlink:title=" ">
<path fill="none" stroke="#63b8ff" d="M493.98,-197.36C507.17,-200.82 521.25,-204.52 534.81,-208.08"/>
<polygon fill="#63b8ff" stroke="#63b8ff" points="533.53,-211.36 544.09,-210.51 535.3,-204.59 533.53,-211.36"/>
</a>
</g>
</g>
<!-- Node19 -->
<g id="Node000019" class="node">
<title>Node19</title>
<g id="a_Node000019"><a xlink:href="class_source_lifecycle_coordinator.html#aceb5823588f44fefb34f4a29158c8fef" target="_top" xlink:title=" ">
<polygon fill="white" stroke="#666666" points="674.5,-192.88 538.5,-192.88 538.5,-162.38 674.5,-162.38 674.5,-192.88"/>
<text xml:space="preserve" text-anchor="start" x="546.5" y="-179.38" font-family="Helvetica,sans-Serif" font-size="10.00">SourceLifecycleCoordinator</text>
<text xml:space="preserve" text-anchor="middle" x="606.5" y="-168.12" font-family="Helvetica,sans-Serif" font-size="10.00">::accept</text>
</a>
</g>
</g>
<!-- Node18&#45;&gt;Node19 -->
<g id="edge24_Node000018_Node000019" class="edge">
<title>Node18&#45;&gt;Node19</title>
<g id="a_edge24_Node000018_Node000019"><a xlink:title=" ">
<path fill="none" stroke="#63b8ff" d="M502.77,-180.02C510.68,-179.84 518.8,-179.65 526.84,-179.46"/>
<polygon fill="#63b8ff" stroke="#63b8ff" points="526.68,-182.96 536.6,-179.23 526.52,-175.97 526.68,-182.96"/>
</a>
</g>
</g>
<!-- Node19&#45;&gt;Node7 -->
<g id="edge27_Node000019_Node000007" class="edge">
<title>Node19&#45;&gt;Node7</title>
<g id="a_edge27_Node000019_Node000007"><a xlink:title=" ">
<path fill="none" stroke="#63b8ff" d="M622.87,-161.96C641.62,-144.08 675.21,-115.86 710.5,-104.62 768.09,-86.28 793.31,-75.91 846.5,-104.62 901.14,-134.13 932.67,-204.56 946.43,-243.18"/>
<polygon fill="#63b8ff" stroke="#63b8ff" points="943.11,-244.29 949.64,-252.63 949.74,-242.04 943.11,-244.29"/>
</a>
</g>
</g>
<!-- Node19&#45;&gt;Node11 -->
<g id="edge29_Node000019_Node000011" class="edge">
<title>Node19&#45;&gt;Node11</title>
<g id="a_edge29_Node000019_Node000011"><a xlink:title=" ">
<path fill="none" stroke="#63b8ff" d="M659.83,-193.24C665.06,-195.92 670.06,-199.03 674.5,-202.62 686.73,-212.53 737.01,-296.04 762.51,-339.13"/>
<polygon fill="#63b8ff" stroke="#63b8ff" points="759.41,-340.76 767.51,-347.59 765.44,-337.2 759.41,-340.76"/>
</a>
</g>
</g>
<!-- Node20 -->
<g id="Node000020" class="node">
<title>Node20</title>
<g id="a_Node000020"><a xlink:href="class_source_lifecycle_coordinator.html#aff8945a0254ab41539be69279477197a" target="_top" xlink:title=" ">
<polygon fill="white" stroke="#666666" points="846.5,-241.88 710.5,-241.88 710.5,-211.38 846.5,-211.38 846.5,-241.88"/>
<text xml:space="preserve" text-anchor="start" x="718.5" y="-228.38" font-family="Helvetica,sans-Serif" font-size="10.00">SourceLifecycleCoordinator</text>
<text xml:space="preserve" text-anchor="middle" x="778.5" y="-217.12" font-family="Helvetica,sans-Serif" font-size="10.00">::accepts</text>
</a>
</g>
</g>
<!-- Node19&#45;&gt;Node20 -->
<g id="edge25_Node000019_Node000020" class="edge">
<title>Node19&#45;&gt;Node20</title>
<g id="a_edge25_Node000019_Node000020"><a xlink:title=" ">
<path fill="none" stroke="#63b8ff" d="M661.76,-193.26C677.78,-197.88 695.48,-202.99 712.13,-207.78"/>
<polygon fill="#63b8ff" stroke="#63b8ff" points="710.85,-211.06 721.43,-210.46 712.79,-204.33 710.85,-211.06"/>
</a>
</g>
</g>
<!-- Node21 -->
<g id="Node000021" class="node">
<title>Node21</title>
<g id="a_Node000021"><a xlink:href="class_source_lifecycle_coordinator.html#a188b559c409aa63acd2e62f2a8d70f25" target="_top" xlink:title=" ">
<polygon fill="white" stroke="#666666" points="846.5,-192.88 710.5,-192.88 710.5,-162.38 846.5,-162.38 846.5,-192.88"/>
<text xml:space="preserve" text-anchor="start" x="718.5" y="-179.38" font-family="Helvetica,sans-Serif" font-size="10.00">SourceLifecycleCoordinator</text>
<text xml:space="preserve" text-anchor="middle" x="778.5" y="-168.12" font-family="Helvetica,sans-Serif" font-size="10.00">::onlineStateChanged</text>
</a>
</g>
</g>
<!-- Node19&#45;&gt;Node21 -->
<g id="edge26_Node000019_Node000021" class="edge">
<title>Node19&#45;&gt;Node21</title>
<g id="a_edge26_Node000019_Node000021"><a xlink:title=" ">
<path fill="none" stroke="#63b8ff" d="M674.69,-177.62C682.64,-177.62 690.8,-177.62 698.89,-177.62"/>
<polygon fill="#63b8ff" stroke="#63b8ff" points="698.73,-181.13 708.73,-177.63 698.73,-174.13 698.73,-181.13"/>
</a>
</g>
</g>
<!-- Node22 -->
<g id="Node000022" class="node">
<title>Node22</title>
<g id="a_Node000022"><a xlink:href="class_application_view_model.html#a4a3e33ab5db50a0e26e124bf9225eeba" target="_top" xlink:title=" ">
<polygon fill="#fff0f0" stroke="red" points="834.5,-143.88 722.5,-143.88 722.5,-113.38 834.5,-113.38 834.5,-143.88"/>
<text xml:space="preserve" text-anchor="start" x="730.5" y="-130.38" font-family="Helvetica,sans-Serif" font-size="10.00">ApplicationViewModel</text>
<text xml:space="preserve" text-anchor="middle" x="778.5" y="-119.12" font-family="Helvetica,sans-Serif" font-size="10.00">::setStatusText</text>
</a>
</g>
</g>
<!-- Node19&#45;&gt;Node22 -->
<g id="edge28_Node000019_Node000022" class="edge">
<title>Node19&#45;&gt;Node22</title>
<g id="a_edge28_Node000019_Node000022"><a xlink:title=" ">
<path fill="none" stroke="#63b8ff" d="M661.76,-161.99C677.78,-157.37 695.48,-152.26 712.13,-147.47"/>
<polygon fill="#63b8ff" stroke="#63b8ff" points="712.79,-150.92 721.43,-144.79 710.85,-144.19 712.79,-150.92"/>
</a>
</g>
</g>
</g>
</svg>
