<?xml version="1.0" encoding="UTF-8" standalone="no"?>
<!DOCTYPE svg PUBLIC "-//W3C//DTD SVG 1.1//EN"
 "http://www.w3.org/Graphics/SVG/1.1/DTD/svg11.dtd">
<!-- Generated by graphviz version 15.1.0 (20260618.0150)
 -->
<!-- Title: PacketMapping::encode Pages: 1 -->
<svg width="566pt" height="64pt"
 viewBox="0.00 0.00 566.00 64.00" xmlns="http://www.w3.org/2000/svg" xmlns:xlink="http://www.w3.org/1999/xlink">
<g id="graph0" class="graph" transform="scale(1 1) rotate(0) translate(4 60.25)">
<title>PacketMapping::encode</title>
<!-- Node1 -->
<g id="Node000001" class="node">
<title>Node1</title>
<g id="a_Node000001"><a xlink:title="Encodes mapped legacy fields into a zero&#45;filled datagram.">
<polygon fill="#999999" stroke="#666666" points="121,-37.25 0,-37.25 0,-18 121,-18 121,-37.25"/>
<text xml:space="preserve" text-anchor="middle" x="60.5" y="-23.75" font-family="Helvetica,sans-Serif" font-size="10.00">PacketMapping::encode</text>
</a>
</g>
</g>
<!-- Node2 -->
<g id="Node000002" class="node">
<title>Node2</title>
<g id="a_Node000002"><a xlink:href="class_packet_mapping.html#ad1917abe7193f42eb04c4bc08cfdb309" target="_top" xlink:title="Returns whether all bindings form a complete non&#45;overlapping schema.">
<polygon fill="white" stroke="#666666" points="275,-56.25 157,-56.25 157,-37 275,-37 275,-56.25"/>
<text xml:space="preserve" text-anchor="middle" x="216" y="-42.75" font-family="Helvetica,sans-Serif" font-size="10.00">PacketMapping::isValid</text>
</a>
</g>
</g>
<!-- Node1&#45;&gt;Node2 -->
<g id="edge1_Node000001_Node000002" class="edge">
<title>Node1&#45;&gt;Node2</title>
<g id="a_edge1_Node000001_Node000002"><a xlink:title=" ">
<path fill="none" stroke="#63b8ff" d="M121.29,-35.03C129.18,-36 137.33,-37.01 145.37,-38.01"/>
<polygon fill="#63b8ff" stroke="#63b8ff" points="144.78,-41.46 155.13,-39.21 145.64,-34.51 144.78,-41.46"/>
</a>
</g>
</g>
<!-- Node3 -->
<g id="Node000003" class="node">
<title>Node3</title>
<g id="a_Node000003"><a xlink:href="class_state_field.html#aef3dfc4418848efa5769202f760e1e44" target="_top" xlink:title="Reads a trusted legacy field ID; invalid IDs return zero.">
<polygon fill="white" stroke="#666666" points="260.75,-19.25 171.25,-19.25 171.25,0 260.75,0 260.75,-19.25"/>
<text xml:space="preserve" text-anchor="middle" x="216" y="-5.75" font-family="Helvetica,sans-Serif" font-size="10.00">StateField::value</text>
</a>
</g>
</g>
<!-- Node1&#45;&gt;Node3 -->
<g id="edge2_Node000001_Node000003" class="edge">
<title>Node1&#45;&gt;Node3</title>
<g id="a_edge2_Node000001_Node000003"><a xlink:title=" ">
<path fill="none" stroke="#63b8ff" d="M121.29,-20.61C133.92,-19.13 147.2,-17.58 159.66,-16.11"/>
<polygon fill="#63b8ff" stroke="#63b8ff" points="159.8,-19.62 169.32,-14.98 158.98,-12.67 159.8,-19.62"/>
</a>
</g>
</g>
<!-- Node4 -->
<g id="Node000004" class="node">
<title>Node4</title>
<g id="a_Node000004"><a xlink:href="class_state_field.html#a2dfc080fa7c4d91049a450951893646c" target="_top" xlink:title="Explicit optional access for callers handling untrusted field IDs.">
<polygon fill="white" stroke="#666666" points="412.5,-19.25 311,-19.25 311,0 412.5,0 412.5,-19.25"/>
<text xml:space="preserve" text-anchor="middle" x="361.75" y="-5.75" font-family="Helvetica,sans-Serif" font-size="10.00">StateField::tryValue</text>
</a>
</g>
</g>
<!-- Node3&#45;&gt;Node4 -->
<g id="edge3_Node000003_Node000004" class="edge">
<title>Node3&#45;&gt;Node4</title>
<g id="a_edge3_Node000003_Node000004"><a xlink:title=" ">
<path fill="none" stroke="#63b8ff" d="M260.91,-9.62C273.04,-9.62 286.44,-9.62 299.37,-9.62"/>
<polygon fill="#63b8ff" stroke="#63b8ff" points="299.05,-13.13 309.05,-9.63 299.05,-6.13 299.05,-13.13"/>
</a>
</g>
</g>
<!-- Node5 -->
<g id="Node000005" class="node">
<title>Node5</title>
<g id="a_Node000005"><a xlink:href="class_state_field.html#a518ff6ce6f1e93a5135e7274e2db7359" target="_top" xlink:title="Returns the canonical descriptor, or null for an invalid ID.">
<polygon fill="white" stroke="#666666" points="557.5,-19.25 448.5,-19.25 448.5,0 557.5,0 557.5,-19.25"/>
<text xml:space="preserve" text-anchor="middle" x="503" y="-5.75" font-family="Helvetica,sans-Serif" font-size="10.00">StateField::descriptor</text>
</a>
</g>
</g>
<!-- Node4&#45;&gt;Node5 -->
<g id="edge4_Node000004_Node000005" class="edge">
<title>Node4&#45;&gt;Node5</title>
<g id="a_edge4_Node000004_Node000005"><a xlink:title=" ">
<path fill="none" stroke="#63b8ff" d="M412.63,-9.62C420.48,-9.62 428.69,-9.62 436.83,-9.62"/>
<polygon fill="#63b8ff" stroke="#63b8ff" points="436.71,-13.13 446.71,-9.63 436.71,-6.13 436.71,-13.13"/>
</a>
</g>
</g>
</g>
</svg>
