<?xml version="1.0" encoding="UTF-8" standalone="no"?>
<!DOCTYPE svg PUBLIC "-//W3C//DTD SVG 1.1//EN"
 "http://www.w3.org/Graphics/SVG/1.1/DTD/svg11.dtd">
<!-- Generated by graphviz version 15.1.0 (20260618.0150)
 -->
<!-- Title: lar::map::MapCamera::setMercatorWorldBounds Pages: 1 -->
<svg width="783pt" height="88pt"
 viewBox="0.00 0.00 783.00 88.00" xmlns="http://www.w3.org/2000/svg" xmlns:xlink="http://www.w3.org/1999/xlink">
<g id="graph0" class="graph" transform="scale(1 1) rotate(0) translate(4 83.5)">
<title>lar::map::MapCamera::setMercatorWorldBounds</title>
<!-- Node1 -->
<g id="Node000001" class="node">
<title>Node1</title>
<g id="a_Node000001"><a xlink:title=" ">
<polygon fill="#999999" stroke="#666666" points="131.5,-54.5 0,-54.5 0,-24 131.5,-24 131.5,-54.5"/>
<text xml:space="preserve" text-anchor="start" x="8" y="-41" font-family="Helvetica,sans-Serif" font-size="10.00">lar::map::MapCamera</text>
<text xml:space="preserve" text-anchor="middle" x="65.75" y="-29.75" font-family="Helvetica,sans-Serif" font-size="10.00">::setMercatorWorldBounds</text>
</a>
</g>
</g>
<!-- Node2 -->
<g id="Node000002" class="node">
<title>Node2</title>
<g id="a_Node000002"><a xlink:href="classlar_1_1map_1_1_map_camera.html#a7b051361862a20132feef31029587881" target="_top" xlink:title=" ">
<polygon fill="white" stroke="#666666" points="296.75,-54.5 167.5,-54.5 167.5,-24 296.75,-24 296.75,-54.5"/>
<text xml:space="preserve" text-anchor="start" x="175.5" y="-41" font-family="Helvetica,sans-Serif" font-size="10.00">lar::map::MapCamera</text>
<text xml:space="preserve" text-anchor="middle" x="232.12" y="-29.75" font-family="Helvetica,sans-Serif" font-size="10.00">::constrainMercatorCenter</text>
</a>
</g>
</g>
<!-- Node1&#45;&gt;Node2 -->
<g id="edge1_Node000001_Node000002" class="edge">
<title>Node1&#45;&gt;Node2</title>
<g id="a_edge1_Node000001_Node000002"><a xlink:title=" ">
<path fill="none" stroke="#63b8ff" d="M131.72,-39.25C139.64,-39.25 147.8,-39.25 155.86,-39.25"/>
<polygon fill="#63b8ff" stroke="#63b8ff" points="155.66,-42.75 165.66,-39.25 155.66,-35.75 155.66,-42.75"/>
</a>
</g>
</g>
<!-- Node3 -->
<g id="Node000003" class="node">
<title>Node3</title>
<g id="a_Node000003"><a xlink:href="classlar_1_1map_1_1_map_camera.html#a699e33e0cbd4dca626c0dfff694efced" target="_top" xlink:title=" ">
<polygon fill="white" stroke="#666666" points="459.75,-79.5 337.25,-79.5 337.25,-49 459.75,-49 459.75,-79.5"/>
<text xml:space="preserve" text-anchor="start" x="345.25" y="-66" font-family="Helvetica,sans-Serif" font-size="10.00">lar::map::MapCamera</text>
<text xml:space="preserve" text-anchor="middle" x="398.5" y="-54.75" font-family="Helvetica,sans-Serif" font-size="10.00">::clampMercatorCenterY</text>
</a>
</g>
</g>
<!-- Node2&#45;&gt;Node3 -->
<g id="edge2_Node000002_Node000003" class="edge">
<title>Node2&#45;&gt;Node3</title>
<g id="a_edge2_Node000002_Node000003"><a xlink:title=" ">
<path fill="none" stroke="#63b8ff" d="M297.15,-48.99C306.54,-50.42 316.27,-51.9 325.81,-53.35"/>
<polygon fill="#63b8ff" stroke="#63b8ff" points="324.97,-56.76 335.39,-54.8 326.03,-49.84 324.97,-56.76"/>
</a>
</g>
</g>
<!-- Node5 -->
<g id="Node000005" class="node">
<title>Node5</title>
<g id="a_Node000005"><a xlink:href="classlar_1_1map_1_1_map_camera.html#acd6f80d79badd22c058d5f60efc95f83" target="_top" xlink:title=" ">
<polygon fill="white" stroke="#666666" points="464.25,-30.5 332.75,-30.5 332.75,0 464.25,0 464.25,-30.5"/>
<text xml:space="preserve" text-anchor="start" x="340.75" y="-17" font-family="Helvetica,sans-Serif" font-size="10.00">lar::map::MapCamera</text>
<text xml:space="preserve" text-anchor="middle" x="398.5" y="-5.75" font-family="Helvetica,sans-Serif" font-size="10.00">::normalizeMercatorCenter</text>
</a>
</g>
</g>
<!-- Node2&#45;&gt;Node5 -->
<g id="edge4_Node000002_Node000005" class="edge">
<title>Node2&#45;&gt;Node5</title>
<g id="a_edge4_Node000002_Node000005"><a xlink:title=" ">
<path fill="none" stroke="#63b8ff" d="M297.15,-29.9C304.99,-28.76 313.06,-27.58 321.07,-26.41"/>
<polygon fill="#63b8ff" stroke="#63b8ff" points="321.41,-29.9 330.8,-24.99 320.4,-22.97 321.41,-29.9"/>
</a>
</g>
</g>
<!-- Node4 -->
<g id="Node000004" class="node">
<title>Node4</title>
<g id="a_Node000004"><a xlink:href="classlar_1_1map_1_1_map_camera.html#a7079b884e2e9dead87376cbd91f8f774" target="_top" xlink:title=" ">
<polygon fill="white" stroke="#666666" points="615.25,-79.5 504.75,-79.5 504.75,-49 615.25,-49 615.25,-79.5"/>
<text xml:space="preserve" text-anchor="start" x="512.75" y="-66" font-family="Helvetica,sans-Serif" font-size="10.00">lar::map::MapCamera</text>
<text xml:space="preserve" text-anchor="middle" x="560" y="-54.75" font-family="Helvetica,sans-Serif" font-size="10.00">::mercatorViewport</text>
</a>
</g>
</g>
<!-- Node3&#45;&gt;Node4 -->
<g id="edge3_Node000003_Node000004" class="edge">
<title>Node3&#45;&gt;Node4</title>
<g id="a_edge3_Node000003_Node000004"><a xlink:title=" ">
<path fill="none" stroke="#63b8ff" d="M459.8,-64.25C470.67,-64.25 482.05,-64.25 493.07,-64.25"/>
<polygon fill="#63b8ff" stroke="#63b8ff" points="492.87,-67.75 502.87,-64.25 492.87,-60.75 492.87,-67.75"/>
</a>
</g>
</g>
<!-- Node6 -->
<g id="Node000006" class="node">
<title>Node6</title>
<g id="a_Node000006"><a xlink:href="classlar_1_1map_1_1_map_projection.html#ae51b77201c9b343a098d386577f31c0c" target="_top" xlink:title=" ">
<polygon fill="white" stroke="#666666" points="619.75,-30.5 500.25,-30.5 500.25,0 619.75,0 619.75,-30.5"/>
<text xml:space="preserve" text-anchor="start" x="508.25" y="-17" font-family="Helvetica,sans-Serif" font-size="10.00">lar::map::MapProjection</text>
<text xml:space="preserve" text-anchor="middle" x="560" y="-5.75" font-family="Helvetica,sans-Serif" font-size="10.00">::wrapLongitude</text>
</a>
</g>
</g>
<!-- Node5&#45;&gt;Node6 -->
<g id="edge5_Node000005_Node000006" class="edge">
<title>Node5&#45;&gt;Node6</title>
<g id="a_edge5_Node000005_Node000006"><a xlink:title=" ">
<path fill="none" stroke="#63b8ff" d="M464.37,-15.25C472.35,-15.25 480.53,-15.25 488.57,-15.25"/>
<polygon fill="#63b8ff" stroke="#63b8ff" points="488.32,-18.75 498.32,-15.25 488.32,-11.75 488.32,-18.75"/>
</a>
</g>
</g>
<!-- Node7 -->
<g id="Node000007" class="node">
<title>Node7</title>
<g id="a_Node000007"><a xlink:href="classlar_1_1map_1_1_map_projection.html#a07314ffecd55c0529f331a1aa41a8107" target="_top" xlink:title=" ">
<polygon fill="white" stroke="#666666" points="775.25,-30.5 655.75,-30.5 655.75,0 775.25,0 775.25,-30.5"/>
<text xml:space="preserve" text-anchor="start" x="663.75" y="-17" font-family="Helvetica,sans-Serif" font-size="10.00">lar::map::MapProjection</text>
<text xml:space="preserve" text-anchor="middle" x="715.5" y="-5.75" font-family="Helvetica,sans-Serif" font-size="10.00">::wrapPeriodic</text>
</a>
</g>
</g>
<!-- Node6&#45;&gt;Node7 -->
<g id="edge6_Node000006_Node000007" class="edge">
<title>Node6&#45;&gt;Node7</title>
<g id="a_edge6_Node000006_Node000007"><a xlink:title=" ">
<path fill="none" stroke="#63b8ff" d="M619.91,-15.25C627.84,-15.25 636.04,-15.25 644.14,-15.25"/>
<polygon fill="#63b8ff" stroke="#63b8ff" points="643.98,-18.75 653.98,-15.25 643.98,-11.75 643.98,-18.75"/>
</a>
</g>
</g>
</g>
</svg>
