<?xml version="1.0" encoding="UTF-8" standalone="no"?>
<!DOCTYPE svg PUBLIC "-//W3C//DTD SVG 1.1//EN"
 "http://www.w3.org/Graphics/SVG/1.1/DTD/svg11.dtd">
<!-- Generated by graphviz version 15.1.0 (20260618.0150)
 -->
<!-- Title: PlaybackService::failPlayback Pages: 1 -->
<svg width="1019pt" height="267pt"
 viewBox="0.00 0.00 1019.00 267.00" xmlns="http://www.w3.org/2000/svg" xmlns:xlink="http://www.w3.org/1999/xlink">
<g id="graph0" class="graph" transform="scale(1 1) rotate(0) translate(4 262.97)">
<title>PlaybackService::failPlayback</title>
<!-- Node1 -->
<g id="Node000001" class="node">
<title>Node1</title>
<g id="a_Node000001"><a xlink:title=" ">
<polygon fill="#999999" stroke="#666666" points="1011,-142.25 862.25,-142.25 862.25,-123 1011,-123 1011,-142.25"/>
<text xml:space="preserve" text-anchor="middle" x="936.62" y="-128.75" font-family="Helvetica,sans-Serif" font-size="10.00">PlaybackService::failPlayback</text>
</a>
</g>
</g>
<!-- Node2 -->
<g id="Node000002" class="node">
<title>Node2</title>
<g id="a_Node000002"><a xlink:href="class_playback_service.html#af7dcd8ae996bb015d78e185add1c9b1d" target="_top" xlink:title=" ">
<polygon fill="white" stroke="#666666" points="826.25,-88.88 687.25,-88.88 687.25,-58.38 826.25,-58.38 826.25,-88.88"/>
<text xml:space="preserve" text-anchor="start" x="695.25" y="-75.38" font-family="Helvetica,sans-Serif" font-size="10.00">PlaybackService::findFrame</text>
<text xml:space="preserve" text-anchor="middle" x="756.75" y="-64.12" font-family="Helvetica,sans-Serif" font-size="10.00">Before</text>
</a>
</g>
</g>
<!-- Node1&#45;&gt;Node2 -->
<g id="edge1_Node000001_Node000002" class="edge">
<title>Node1&#45;&gt;Node2</title>
<g id="a_edge1_Node000001_Node000002"><a xlink:title=" ">
<path fill="none" stroke="#63b8ff" d="M894.57,-119.01C867.89,-110.16 833.04,-98.6 805.18,-89.36"/>
<polygon fill="#63b8ff" stroke="#63b8ff" points="893.42,-122.31 904.01,-122.14 895.62,-115.67 893.42,-122.31"/>
</a>
</g>
</g>
<!-- Node4 -->
<g id="Node000004" class="node">
<title>Node4</title>
<g id="a_Node000004"><a xlink:href="class_playback_service.html#a71ed12f065ed4adb407e86b106e2721b" target="_top" xlink:title=" ">
<polygon fill="white" stroke="#666666" points="464.25,-147.88 329.75,-147.88 329.75,-117.38 464.25,-117.38 464.25,-147.88"/>
<text xml:space="preserve" text-anchor="start" x="337.75" y="-134.38" font-family="Helvetica,sans-Serif" font-size="10.00">PlaybackService::playback</text>
<text xml:space="preserve" text-anchor="middle" x="397" y="-123.12" font-family="Helvetica,sans-Serif" font-size="10.00">Error</text>
</a>
</g>
</g>
<!-- Node1&#45;&gt;Node4 -->
<g id="edge16_Node000001_Node000004" class="edge">
<title>Node1&#45;&gt;Node4</title>
<g id="a_edge16_Node000001_Node000004"><a xlink:title=" ">
<path fill="none" stroke="#63b8ff" d="M850.6,-127.54C743.53,-125.18 561.84,-125.33 464.41,-128"/>
<polygon fill="#63b8ff" stroke="#63b8ff" points="850.41,-131.04 860.48,-127.77 850.57,-124.04 850.41,-131.04"/>
</a>
</g>
</g>
<!-- Node21 -->
<g id="Node000021" class="node">
<title>Node21</title>
<g id="a_Node000021"><a xlink:href="class_playback_service.html#a93fec01bf69f305705feb7e6a63d45b9" target="_top" xlink:title="Clamps to the session duration and publishes the frame at or before the target.">
<polygon fill="white" stroke="#666666" points="634.38,-19.25 517.88,-19.25 517.88,0 634.38,0 634.38,-19.25"/>
<text xml:space="preserve" text-anchor="middle" x="576.12" y="-5.75" font-family="Helvetica,sans-Serif" font-size="10.00">PlaybackService::seek</text>
</a>
</g>
</g>
<!-- Node1&#45;&gt;Node21 -->
<g id="edge25_Node000001_Node000021" class="edge">
<title>Node1&#45;&gt;Node21</title>
<g id="a_edge25_Node000001_Node000021"><a xlink:title=" ">
<path fill="none" stroke="#63b8ff" d="M917.93,-114.7C897.66,-95.33 862.55,-65.15 826.25,-49.62 764.23,-23.1 686.67,-14.01 634.72,-10.98"/>
<polygon fill="#63b8ff" stroke="#63b8ff" points="915.47,-117.2 925.07,-121.69 920.37,-112.2 915.47,-117.2"/>
</a>
</g>
</g>
<!-- Node23 -->
<g id="Node000023" class="node">
<title>Node23</title>
<g id="a_Node000023"><a xlink:href="class_playback_service.html#a481e02ab61a303ad278cc269b4fe7bd4" target="_top" xlink:title=" ">
<polygon fill="white" stroke="#666666" points="819.88,-199.88 693.62,-199.88 693.62,-169.38 819.88,-169.38 819.88,-199.88"/>
<text xml:space="preserve" text-anchor="start" x="701.62" y="-186.38" font-family="Helvetica,sans-Serif" font-size="10.00">PlaybackService::publish</text>
<text xml:space="preserve" text-anchor="middle" x="756.75" y="-175.12" font-family="Helvetica,sans-Serif" font-size="10.00">ReplayFrame</text>
</a>
</g>
</g>
<!-- Node1&#45;&gt;Node23 -->
<g id="edge17_Node000001_Node000023" class="edge">
<title>Node1&#45;&gt;Node23</title>
<g id="a_edge17_Node000001_Node000023"><a xlink:title=" ">
<path fill="none" stroke="#63b8ff" d="M890.39,-145.85C866.38,-152.87 836.72,-161.54 811.54,-168.9"/>
<polygon fill="#63b8ff" stroke="#63b8ff" points="891.26,-149.24 899.88,-143.08 889.3,-142.52 891.26,-149.24"/>
</a>
</g>
</g>
<!-- Node3 -->
<g id="Node000003" class="node">
<title>Node3</title>
<g id="a_Node000003"><a xlink:href="class_playback_service.html#ab222dc3c3901449380e63a7efedc1444" target="_top" xlink:title=" ">
<polygon fill="white" stroke="#666666" points="651.25,-95.25 501,-95.25 501,-76 651.25,-76 651.25,-95.25"/>
<text xml:space="preserve" text-anchor="middle" x="576.12" y="-81.75" font-family="Helvetica,sans-Serif" font-size="10.00">PlaybackService::onClockTick</text>
</a>
</g>
</g>
<!-- Node2&#45;&gt;Node3 -->
<g id="edge2_Node000002_Node000003" class="edge">
<title>Node2&#45;&gt;Node3</title>
<g id="a_edge2_Node000002_Node000003"><a xlink:title=" ">
<path fill="none" stroke="#63b8ff" d="M675.68,-79C667.64,-79.54 659.5,-80.09 651.53,-80.63"/>
<polygon fill="#63b8ff" stroke="#63b8ff" points="675.69,-82.51 685.43,-78.35 675.22,-75.53 675.69,-82.51"/>
</a>
</g>
</g>
<!-- Node2&#45;&gt;Node4 -->
<g id="edge12_Node000002_Node000004" class="edge">
<title>Node2&#45;&gt;Node4</title>
<g id="a_edge12_Node000002_Node000004"><a xlink:title=" ">
<path fill="none" stroke="#63b8ff" d="M685.73,-55.74C632.63,-45.87 559.14,-40.3 501,-66.62 478.91,-76.63 484.96,-93.86 465,-107.62 459.89,-111.15 454.22,-114.25 448.4,-116.96"/>
<polygon fill="#63b8ff" stroke="#63b8ff" points="684.76,-59.12 695.25,-57.61 686.11,-52.25 684.76,-59.12"/>
</a>
</g>
</g>
<!-- Node2&#45;&gt;Node21 -->
<g id="edge13_Node000002_Node000021" class="edge">
<title>Node2&#45;&gt;Node21</title>
<g id="a_edge13_Node000002_Node000021"><a xlink:title=" ">
<path fill="none" stroke="#63b8ff" d="M705.83,-53.91C688.61,-47.27 669.15,-39.94 651.25,-33.62 637.6,-28.81 622.41,-23.82 609.36,-19.66"/>
<polygon fill="#63b8ff" stroke="#63b8ff" points="704.23,-57.04 714.82,-57.39 706.76,-50.51 704.23,-57.04"/>
</a>
</g>
</g>
<!-- Node3&#45;&gt;Node4 -->
<g id="edge3_Node000003_Node000004" class="edge">
<title>Node3&#45;&gt;Node4</title>
<g id="a_edge3_Node000003_Node000004"><a xlink:title=" ">
<path fill="none" stroke="#63b8ff" d="M526.04,-98.65C504.71,-104.31 479.54,-110.99 457.19,-116.92"/>
<polygon fill="#63b8ff" stroke="#63b8ff" points="526.9,-102.04 535.66,-96.1 525.1,-95.28 526.9,-102.04"/>
</a>
</g>
</g>
<!-- Node20 -->
<g id="Node000020" class="node">
<title>Node20</title>
<g id="a_Node000020"><a xlink:href="class_playback_service.html#ac7ab3a370aabb6e88527fe42e366e11e" target="_top" xlink:title=" ">
<polygon fill="white" stroke="#666666" points="465,-98.88 329,-98.88 329,-68.38 465,-68.38 465,-98.88"/>
<text xml:space="preserve" text-anchor="start" x="337" y="-85.38" font-family="Helvetica,sans-Serif" font-size="10.00">PlaybackService::Playback</text>
<text xml:space="preserve" text-anchor="middle" x="397" y="-74.12" font-family="Helvetica,sans-Serif" font-size="10.00">Service</text>
</a>
</g>
</g>
<!-- Node3&#45;&gt;Node20 -->
<g id="edge10_Node000003_Node000020" class="edge">
<title>Node3&#45;&gt;Node20</title>
<g id="a_edge10_Node000003_Node000020"><a xlink:title=" ">
<path fill="none" stroke="#63b8ff" d="M489.27,-84.66C481.28,-84.57 473.26,-84.47 465.48,-84.39"/>
<polygon fill="#63b8ff" stroke="#63b8ff" points="488.97,-88.15 499.01,-84.77 489.05,-81.15 488.97,-88.15"/>
</a>
</g>
</g>
<!-- Node4&#45;&gt;Node1 -->
<g id="edge5_Node000004_Node000001" class="edge">
<title>Node4&#45;&gt;Node1</title>
<g id="a_edge5_Node000004_Node000001"><a xlink:title=" ">
<path fill="none" stroke="#63b8ff" d="M475.7,-137.54C579.12,-140.02 760.68,-139.99 862,-137.44"/>
<polygon fill="#63b8ff" stroke="#63b8ff" points="476.01,-134.05 465.92,-137.29 475.83,-141.05 476.01,-134.05"/>
</a>
</g>
</g>
<!-- Node5 -->
<g id="Node000005" class="node">
<title>Node5</title>
<g id="a_Node000005"><a xlink:href="class_direct_application_runtime.html#af7dfb47a5a42b53c0a26e62c480d9362" target="_top" xlink:title=" ">
<polygon fill="white" stroke="#666666" points="293,-147.88 160,-147.88 160,-117.38 293,-117.38 293,-147.88"/>
<text xml:space="preserve" text-anchor="start" x="168" y="-134.38" font-family="Helvetica,sans-Serif" font-size="10.00">DirectApplicationRuntime</text>
<text xml:space="preserve" text-anchor="middle" x="226.5" y="-123.12" font-family="Helvetica,sans-Serif" font-size="10.00">::DirectApplicationRuntime</text>
</a>
</g>
</g>
<!-- Node4&#45;&gt;Node5 -->
<g id="edge4_Node000004_Node000005" class="edge">
<title>Node4&#45;&gt;Node5</title>
<g id="a_edge4_Node000004_Node000005"><a xlink:title=" ">
<path fill="none" stroke="#63b8ff" d="M318.17,-132.62C309.87,-132.62 301.48,-132.62 293.34,-132.62"/>
<polygon fill="#63b8ff" stroke="#63b8ff" points="317.89,-136.13 327.89,-132.63 317.89,-129.13 317.89,-136.13"/>
</a>
</g>
</g>
<!-- Node6 -->
<g id="Node000006" class="node">
<title>Node6</title>
<g id="a_Node000006"><a xlink:href="class_playback_runtime_worker.html#afc6e5a3749eb10821c8c3fca1eedcef7" target="_top" xlink:title=" ">
<polygon fill="#fff0f0" stroke="red" points="288.5,-98.88 164.5,-98.88 164.5,-68.38 288.5,-68.38 288.5,-98.88"/>
<text xml:space="preserve" text-anchor="start" x="172.5" y="-85.38" font-family="Helvetica,sans-Serif" font-size="10.00">PlaybackRuntimeWorker</text>
<text xml:space="preserve" text-anchor="middle" x="226.5" y="-74.12" font-family="Helvetica,sans-Serif" font-size="10.00">::initialize</text>
</a>
</g>
</g>
<!-- Node4&#45;&gt;Node6 -->
<g id="edge6_Node000004_Node000006" class="edge">
<title>Node4&#45;&gt;Node6</title>
<g id="a_edge6_Node000004_Node000006"><a xlink:title=" ">
<path fill="none" stroke="#63b8ff" d="M331.57,-113.89C315.09,-109.1 297.54,-103.99 281.63,-99.37"/>
<polygon fill="#63b8ff" stroke="#63b8ff" points="330.19,-117.13 340.77,-116.56 332.14,-110.41 330.19,-117.13"/>
</a>
</g>
</g>
<!-- Node18 -->
<g id="Node000018" class="node">
<title>Node18</title>
<g id="a_Node000018"><a xlink:href="class_playback_service.html#a1c9bd9d7acda7f60331a3fa673f638ca" target="_top" xlink:title="Stops playback and returns the position and displayed frame to the start.">
<polygon fill="#fff0f0" stroke="red" points="283.62,-185.25 169.38,-185.25 169.38,-166 283.62,-166 283.62,-185.25"/>
<text xml:space="preserve" text-anchor="middle" x="226.5" y="-171.75" font-family="Helvetica,sans-Serif" font-size="10.00">PlaybackService::stop</text>
</a>
</g>
</g>
<!-- Node4&#45;&gt;Node18 -->
<g id="edge9_Node000004_Node000018" class="edge">
<title>Node4&#45;&gt;Node18</title>
<g id="a_edge9_Node000004_Node000018"><a xlink:title=" ">
<path fill="none" stroke="#63b8ff" d="M323.69,-151.08C304.23,-156.04 283.92,-161.23 266.99,-165.55"/>
<polygon fill="#63b8ff" stroke="#63b8ff" points="324.4,-154.51 333.22,-148.64 322.67,-147.73 324.4,-154.51"/>
</a>
</g>
</g>
<!-- Node12 -->
<g id="Node000012" class="node">
<title>Node12</title>
<g id="a_Node000012"><a xlink:href="class_playback_runtime_worker.html#a59e6f63a8a2fd5d154305ccac9ba9090" target="_top" xlink:title=" ">
<polygon fill="#fff0f0" stroke="red" points="124,-133.88 0,-133.88 0,-103.38 124,-103.38 124,-133.88"/>
<text xml:space="preserve" text-anchor="start" x="8" y="-120.38" font-family="Helvetica,sans-Serif" font-size="10.00">PlaybackRuntimeWorker</text>
<text xml:space="preserve" text-anchor="middle" x="62" y="-109.12" font-family="Helvetica,sans-Serif" font-size="10.00">::play</text>
</a>
</g>
</g>
<!-- Node6&#45;&gt;Node12 -->
<g id="edge7_Node000006_Node000012" class="edge">
<title>Node6&#45;&gt;Node12</title>
<g id="a_edge7_Node000006_Node000012"><a xlink:title=" ">
<path fill="none" stroke="#63b8ff" d="M152.93,-99.26C143.35,-101.32 133.61,-103.42 124.25,-105.43"/>
<polygon fill="#63b8ff" stroke="#63b8ff" points="153.55,-102.7 162.59,-97.18 152.07,-95.86 153.55,-102.7"/>
</a>
</g>
</g>
<!-- Node14 -->
<g id="Node000014" class="node">
<title>Node14</title>
<g id="a_Node000014"><a xlink:href="class_playback_runtime_worker.html#aa43b9d9d22a45ccfb709b024ec39c239" target="_top" xlink:title=" ">
<polygon fill="#fff0f0" stroke="red" points="124,-63.88 0,-63.88 0,-33.38 124,-33.38 124,-63.88"/>
<text xml:space="preserve" text-anchor="start" x="8" y="-50.38" font-family="Helvetica,sans-Serif" font-size="10.00">PlaybackRuntimeWorker</text>
<text xml:space="preserve" text-anchor="middle" x="62" y="-39.12" font-family="Helvetica,sans-Serif" font-size="10.00">::seek</text>
</a>
</g>
</g>
<!-- Node6&#45;&gt;Node14 -->
<g id="edge8_Node000006_Node000014" class="edge">
<title>Node6&#45;&gt;Node14</title>
<g id="a_edge8_Node000006_Node000014"><a xlink:title=" ">
<path fill="none" stroke="#63b8ff" d="M152.93,-67.99C143.35,-65.93 133.61,-63.83 124.25,-61.82"/>
<polygon fill="#63b8ff" stroke="#63b8ff" points="152.07,-71.39 162.59,-70.07 153.55,-64.55 152.07,-71.39"/>
</a>
</g>
</g>
<!-- Node20&#45;&gt;Node6 -->
<g id="edge11_Node000020_Node000006" class="edge">
<title>Node20&#45;&gt;Node6</title>
<g id="a_edge11_Node000020_Node000006"><a xlink:title=" ">
<path fill="none" stroke="#63b8ff" d="M317.66,-83.62C308,-83.62 298.24,-83.62 288.88,-83.62"/>
<polygon fill="#63b8ff" stroke="#63b8ff" points="317.41,-87.13 327.41,-83.63 317.41,-80.13 317.41,-87.13"/>
</a>
</g>
</g>
<!-- Node21&#45;&gt;Node14 -->
<g id="edge15_Node000021_Node000014" class="edge">
<title>Node21&#45;&gt;Node14</title>
<g id="a_edge15_Node000021_Node000014"><a xlink:title=" ">
<path fill="none" stroke="#63b8ff" d="M506.34,-7.37C456.93,-6.37 388.77,-6.26 329,-10.62 258.4,-15.79 178.03,-28.18 124.28,-37.42"/>
<polygon fill="#63b8ff" stroke="#63b8ff" points="506.26,-10.87 516.33,-7.6 506.41,-3.87 506.26,-10.87"/>
</a>
</g>
</g>
<!-- Node22 -->
<g id="Node000022" class="node">
<title>Node22</title>
<g id="a_Node000022"><a xlink:href="class_direct_application_runtime.html#a7f3b3c1dc2b603efbe122ee209a3161f" target="_top" xlink:title=" ">
<polygon fill="white" stroke="#666666" points="460.5,-49.88 333.5,-49.88 333.5,-19.38 460.5,-19.38 460.5,-49.88"/>
<text xml:space="preserve" text-anchor="start" x="341.5" y="-36.38" font-family="Helvetica,sans-Serif" font-size="10.00">DirectApplicationRuntime</text>
<text xml:space="preserve" text-anchor="middle" x="397" y="-25.12" font-family="Helvetica,sans-Serif" font-size="10.00">::seek</text>
</a>
</g>
</g>
<!-- Node21&#45;&gt;Node22 -->
<g id="edge14_Node000021_Node000022" class="edge">
<title>Node21&#45;&gt;Node22</title>
<g id="a_edge14_Node000021_Node000022"><a xlink:title=" ">
<path fill="none" stroke="#63b8ff" d="M506.32,-19.34C491.3,-21.46 475.49,-23.69 460.72,-25.77"/>
<polygon fill="#63b8ff" stroke="#63b8ff" points="506.71,-22.82 516.12,-17.95 505.73,-15.89 506.71,-22.82"/>
</a>
</g>
</g>
<!-- Node23&#45;&gt;Node3 -->
<g id="edge18_Node000023_Node000003" class="edge">
<title>Node23&#45;&gt;Node3</title>
<g id="a_edge18_Node000023_Node000003"><a xlink:title=" ">
<path fill="none" stroke="#63b8ff" d="M717.78,-163.58C679.95,-142.61 623.5,-111.33 594.98,-95.52"/>
<polygon fill="#63b8ff" stroke="#63b8ff" points="715.68,-166.42 726.12,-168.2 719.07,-160.3 715.68,-166.42"/>
</a>
</g>
</g>
<!-- Node23&#45;&gt;Node4 -->
<g id="edge19_Node000023_Node000004" class="edge">
<title>Node23&#45;&gt;Node4</title>
<g id="a_edge19_Node000023_Node000004"><a xlink:title=" ">
<path fill="none" stroke="#63b8ff" d="M681.95,-178.32C630.93,-173.45 561.6,-165.81 501,-155.62 488.8,-153.58 475.88,-151.01 463.46,-148.34"/>
<polygon fill="#63b8ff" stroke="#63b8ff" points="681.41,-181.78 691.69,-179.23 682.06,-174.81 681.41,-181.78"/>
</a>
</g>
</g>
<!-- Node24 -->
<g id="Node000024" class="node">
<title>Node24</title>
<g id="a_Node000024"><a xlink:href="class_playback_service.html#ad5ebc3fdc21007bb3cd1b165caa3d679" target="_top" xlink:title=" ">
<polygon fill="white" stroke="#666666" points="640,-237.88 512.25,-237.88 512.25,-207.38 640,-207.38 640,-237.88"/>
<text xml:space="preserve" text-anchor="start" x="520.25" y="-224.38" font-family="Helvetica,sans-Serif" font-size="10.00">PlaybackService::resetTo</text>
<text xml:space="preserve" text-anchor="middle" x="576.12" y="-213.12" font-family="Helvetica,sans-Serif" font-size="10.00">FirstFrame</text>
</a>
</g>
</g>
<!-- Node23&#45;&gt;Node24 -->
<g id="edge20_Node000023_Node000024" class="edge">
<title>Node23&#45;&gt;Node24</title>
<g id="a_edge20_Node000023_Node000024"><a xlink:title=" ">
<path fill="none" stroke="#63b8ff" d="M682.29,-200.25C668.41,-203.21 654,-206.27 640.47,-209.15"/>
<polygon fill="#63b8ff" stroke="#63b8ff" points="682.74,-203.73 691.8,-198.23 681.29,-196.89 682.74,-203.73"/>
</a>
</g>
</g>
<!-- Node24&#45;&gt;Node4 -->
<g id="edge24_Node000024_Node000004" class="edge">
<title>Node24&#45;&gt;Node4</title>
<g id="a_edge24_Node000024_Node000004"><a xlink:title=" ">
<path fill="none" stroke="#63b8ff" d="M520.91,-202.59C514.14,-199.75 507.36,-196.73 501,-193.62 472.98,-179.96 442.43,-161.36 421.94,-148.31"/>
<polygon fill="#63b8ff" stroke="#63b8ff" points="519.52,-205.81 530.1,-206.34 522.16,-199.32 519.52,-205.81"/>
</a>
</g>
</g>
<!-- Node25 -->
<g id="Node000025" class="node">
<title>Node25</title>
<g id="a_Node000025"><a xlink:href="class_playback_service.html#aa2d6dc38313787cd0fc136dcc159faca" target="_top" xlink:title=" ">
<polygon fill="white" stroke="#666666" points="453.75,-232.25 340.25,-232.25 340.25,-213 453.75,-213 453.75,-232.25"/>
<text xml:space="preserve" text-anchor="middle" x="397" y="-218.75" font-family="Helvetica,sans-Serif" font-size="10.00">PlaybackService::play</text>
</a>
</g>
</g>
<!-- Node24&#45;&gt;Node25 -->
<g id="edge21_Node000024_Node000025" class="edge">
<title>Node24&#45;&gt;Node25</title>
<g id="a_edge21_Node000024_Node000025"><a xlink:title=" ">
<path fill="none" stroke="#63b8ff" d="M500.88,-222.62C485.18,-222.62 468.86,-222.62 453.97,-222.62"/>
<polygon fill="#63b8ff" stroke="#63b8ff" points="500.67,-226.13 510.67,-222.63 500.67,-219.13 500.67,-226.13"/>
</a>
</g>
</g>
<!-- Node25&#45;&gt;Node12 -->
<g id="edge23_Node000025_Node000012" class="edge">
<title>Node25&#45;&gt;Node12</title>
<g id="a_edge23_Node000025_Node000012"><a xlink:title=" ">
<path fill="none" stroke="#63b8ff" d="M360.62,-236.45C312.56,-252.9 225.19,-274.4 160,-242.62 113.07,-219.75 82.17,-161.99 69.51,-134.12"/>
<polygon fill="#63b8ff" stroke="#63b8ff" points="361.71,-239.78 369.96,-233.13 359.37,-233.18 361.71,-239.78"/>
</a>
</g>
</g>
<!-- Node26 -->
<g id="Node000026" class="node">
<title>Node26</title>
<g id="a_Node000026"><a xlink:href="class_direct_application_runtime.html#aeab4ff787f9ccff8703c73edf9af3e9f" target="_top" xlink:title=" ">
<polygon fill="white" stroke="#666666" points="290,-233.88 163,-233.88 163,-203.38 290,-203.38 290,-233.88"/>
<text xml:space="preserve" text-anchor="start" x="171" y="-220.38" font-family="Helvetica,sans-Serif" font-size="10.00">DirectApplicationRuntime</text>
<text xml:space="preserve" text-anchor="middle" x="226.5" y="-209.12" font-family="Helvetica,sans-Serif" font-size="10.00">::play</text>
</a>
</g>
</g>
<!-- Node25&#45;&gt;Node26 -->
<g id="edge22_Node000025_Node000026" class="edge">
<title>Node25&#45;&gt;Node26</title>
<g id="a_edge22_Node000025_Node000026"><a xlink:title=" ">
<path fill="none" stroke="#63b8ff" d="M328.5,-221.02C315.91,-220.72 302.79,-220.41 290.34,-220.12"/>
<polygon fill="#63b8ff" stroke="#63b8ff" points="328.3,-224.52 338.38,-221.26 328.46,-217.52 328.3,-224.52"/>
</a>
</g>
</g>
</g>
</svg>
