<?xml version="1.0" encoding="UTF-8" standalone="no"?>
<!DOCTYPE svg PUBLIC "-//W3C//DTD SVG 1.1//EN"
 "http://www.w3.org/Graphics/SVG/1.1/DTD/svg11.dtd">
<!-- Generated by graphviz version 15.1.0 (20260618.0150)
 -->
<!-- Title: RecordingWorkflowController::requestReset Pages: 1 -->
<svg width="813pt" height="390pt"
 viewBox="0.00 0.00 813.00 390.00" xmlns="http://www.w3.org/2000/svg" xmlns:xlink="http://www.w3.org/1999/xlink">
<g id="graph0" class="graph" transform="scale(1 1) rotate(0) translate(4 385.88)">
<title>RecordingWorkflowController::requestReset</title>
<!-- Node1 -->
<g id="Node000001" class="node">
<title>Node1</title>
<g id="a_Node000001"><a xlink:title="Performs the request reset operation.">
<polygon fill="#999999" stroke="#666666" points="142.75,-273.5 0,-273.5 0,-243 142.75,-243 142.75,-273.5"/>
<text xml:space="preserve" text-anchor="start" x="8" y="-260" font-family="Helvetica,sans-Serif" font-size="10.00">RecordingWorkflowController</text>
<text xml:space="preserve" text-anchor="middle" x="71.38" y="-248.75" font-family="Helvetica,sans-Serif" font-size="10.00">::requestReset</text>
</a>
</g>
</g>
<!-- Node2 -->
<g id="Node000002" class="node">
<title>Node2</title>
<g id="a_Node000002"><a xlink:href="class_i_recording_file_dialog.html#abb91917cfe47b5b872302f75d2aead5a" target="_top" xlink:title="Returns the current confirm reset.">
<polygon fill="white" stroke="#666666" points="285.5,-316.5 178.75,-316.5 178.75,-286 285.5,-286 285.5,-316.5"/>
<text xml:space="preserve" text-anchor="start" x="186.75" y="-303" font-family="Helvetica,sans-Serif" font-size="10.00">IRecordingFileDialog</text>
<text xml:space="preserve" text-anchor="middle" x="232.12" y="-291.75" font-family="Helvetica,sans-Serif" font-size="10.00">::confirmReset</text>
</a>
</g>
</g>
<!-- Node1&#45;&gt;Node2 -->
<g id="edge1_Node000001_Node000002" class="edge">
<title>Node1&#45;&gt;Node2</title>
<g id="a_edge1_Node000001_Node000002"><a xlink:title=" ">
<path fill="none" stroke="#63b8ff" d="M130.14,-273.9C142.22,-277.17 155.02,-280.64 167.31,-283.96"/>
<polygon fill="#63b8ff" stroke="#63b8ff" points="166.39,-287.34 176.95,-286.58 168.22,-280.58 166.39,-287.34"/>
</a>
</g>
</g>
<!-- Node3 -->
<g id="Node000003" class="node">
<title>Node3</title>
<g id="a_Node000003"><a xlink:href="class_application_facade.html#a6f58372a5b0357529092761717b35cf9" target="_top" xlink:title="Reports whether a recording persistence operation is pending.">
<polygon fill="white" stroke="#666666" points="457.5,-312.5 324.5,-312.5 324.5,-282 457.5,-282 457.5,-312.5"/>
<text xml:space="preserve" text-anchor="start" x="332.5" y="-299" font-family="Helvetica,sans-Serif" font-size="10.00">ApplicationFacade::</text>
<text xml:space="preserve" text-anchor="middle" x="391" y="-287.75" font-family="Helvetica,sans-Serif" font-size="10.00">recordingOperationPending</text>
</a>
</g>
</g>
<!-- Node1&#45;&gt;Node3 -->
<g id="edge2_Node000001_Node000003" class="edge">
<title>Node1&#45;&gt;Node3</title>
<g id="a_edge2_Node000001_Node000003"><a xlink:title=" ">
<path fill="none" stroke="#63b8ff" d="M143.13,-262.77C184.71,-265.87 238.23,-270.64 285.5,-277.25 294.41,-278.5 303.71,-279.99 312.93,-281.6"/>
<polygon fill="#63b8ff" stroke="#63b8ff" points="312.16,-285.01 322.62,-283.33 313.39,-278.12 312.16,-285.01"/>
</a>
</g>
</g>
<!-- Node5 -->
<g id="Node000005" class="node">
<title>Node5</title>
<g id="a_Node000005"><a xlink:href="class_application_facade.html#a8a7b37f032f51eaaf3ef9516f0d19009" target="_top" xlink:title="Requests reset of the active recording transaction.">
<polygon fill="white" stroke="#666666" points="283.25,-192.5 181,-192.5 181,-162 283.25,-162 283.25,-192.5"/>
<text xml:space="preserve" text-anchor="start" x="189" y="-179" font-family="Helvetica,sans-Serif" font-size="10.00">ApplicationFacade::</text>
<text xml:space="preserve" text-anchor="middle" x="232.12" y="-167.75" font-family="Helvetica,sans-Serif" font-size="10.00">resetRecording</text>
</a>
</g>
</g>
<!-- Node1&#45;&gt;Node5 -->
<g id="edge5_Node000001_Node000005" class="edge">
<title>Node1&#45;&gt;Node5</title>
<g id="a_edge5_Node000001_Node000005"><a xlink:title=" ">
<path fill="none" stroke="#63b8ff" d="M102.98,-242.63C127.83,-229.95 163.09,-211.97 190.33,-198.07"/>
<polygon fill="#63b8ff" stroke="#63b8ff" points="191.67,-201.31 198.99,-193.65 188.49,-195.07 191.67,-201.31"/>
</a>
</g>
</g>
<!-- Node4 -->
<g id="Node000004" class="node">
<title>Node4</title>
<g id="a_Node000004"><a xlink:href="recording__operation__state_8h.html#a434844ed2cfed8091ef202b256cd2024" target="_top" xlink:title="Reports whether recording operation pending is true.">
<polygon fill="white" stroke="#666666" points="649,-363.88 504,-363.88 504,-344.62 649,-344.62 649,-363.88"/>
<text xml:space="preserve" text-anchor="middle" x="576.5" y="-350.38" font-family="Helvetica,sans-Serif" font-size="10.00">isRecordingOperationPending</text>
</a>
</g>
</g>
<!-- Node3&#45;&gt;Node4 -->
<g id="edge3_Node000003_Node000004" class="edge">
<title>Node3&#45;&gt;Node4</title>
<g id="a_edge3_Node000003_Node000004"><a xlink:title=" ">
<path fill="none" stroke="#63b8ff" d="M431.84,-312.94C451.19,-320.24 474.87,-328.74 496.5,-335.25 503.67,-337.41 511.26,-339.49 518.79,-341.43"/>
<polygon fill="#63b8ff" stroke="#63b8ff" points="517.71,-344.77 528.26,-343.8 519.41,-337.98 517.71,-344.77"/>
</a>
</g>
</g>
<!-- Node4&#45;&gt;Node4 -->
<g id="edge4_Node000004_Node000004" class="edge">
<title>Node4&#45;&gt;Node4</title>
<g id="a_edge4_Node000004_Node000004"><a xlink:title=" ">
<path fill="none" stroke="#63b8ff" d="M549.57,-364.16C537.29,-372.77 546.27,-381.88 576.5,-381.88 593.51,-381.88 603.79,-378.99 607.34,-374.94"/>
<polygon fill="#63b8ff" stroke="#63b8ff" points="610.65,-373.79 603.94,-365.59 604.07,-376.18 610.65,-373.79"/>
</a>
</g>
</g>
<!-- Node5&#45;&gt;Node3 -->
<g id="edge20_Node000005_Node000003" class="edge">
<title>Node5&#45;&gt;Node3</title>
<g id="a_edge20_Node000005_Node000003"><a xlink:title=" ">
<path fill="none" stroke="#63b8ff" d="M243.94,-192.86C259.08,-213.65 288.46,-250.33 321.5,-272.25 323.73,-273.73 326.05,-275.13 328.44,-276.46"/>
<polygon fill="#63b8ff" stroke="#63b8ff" points="326.7,-279.51 337.21,-280.86 329.84,-273.25 326.7,-279.51"/>
</a>
</g>
</g>
<!-- Node6 -->
<g id="Node000006" class="node">
<title>Node6</title>
<g id="a_Node000006"><a xlink:href="class_application_facade.html#a1dc41e6d7b7418d3b79087b7d24cbe1e" target="_top" xlink:title="Applies the result of an asynchronous mapping&#45;load request.">
<polygon fill="white" stroke="#666666" points="442.12,-214.5 339.88,-214.5 339.88,-184 442.12,-184 442.12,-214.5"/>
<text xml:space="preserve" text-anchor="start" x="347.88" y="-201" font-family="Helvetica,sans-Serif" font-size="10.00">ApplicationFacade::</text>
<text xml:space="preserve" text-anchor="middle" x="391" y="-189.75" font-family="Helvetica,sans-Serif" font-size="10.00">applyResult</text>
</a>
</g>
</g>
<!-- Node5&#45;&gt;Node6 -->
<g id="edge6_Node000005_Node000006" class="edge">
<title>Node5&#45;&gt;Node6</title>
<g id="a_edge6_Node000005_Node000006"><a xlink:title=" ">
<path fill="none" stroke="#63b8ff" d="M283.62,-184.33C297.9,-186.33 313.6,-188.54 328.44,-190.62"/>
<polygon fill="#63b8ff" stroke="#63b8ff" points="327.71,-194.05 338.1,-191.97 328.68,-187.12 327.71,-194.05"/>
</a>
</g>
</g>
<!-- Node10 -->
<g id="Node000010" class="node">
<title>Node10</title>
<g id="a_Node000010"><a xlink:href="class_application_facade.html#aaa8bd95ed38e7f855835042c17db3338" target="_top" xlink:title="Stores and emits a human&#45;readable operation error.">
<polygon fill="white" stroke="#666666" points="627.62,-134.5 525.38,-134.5 525.38,-104 627.62,-104 627.62,-134.5"/>
<text xml:space="preserve" text-anchor="start" x="533.38" y="-121" font-family="Helvetica,sans-Serif" font-size="10.00">ApplicationFacade::</text>
<text xml:space="preserve" text-anchor="middle" x="576.5" y="-109.75" font-family="Helvetica,sans-Serif" font-size="10.00">reportError</text>
</a>
</g>
</g>
<!-- Node5&#45;&gt;Node10 -->
<g id="edge21_Node000005_Node000010" class="edge">
<title>Node5&#45;&gt;Node10</title>
<g id="a_edge21_Node000005_Node000010"><a xlink:title=" ">
<path fill="none" stroke="#63b8ff" d="M283.64,-168.69C344.92,-158.31 448.18,-140.82 514.02,-129.67"/>
<polygon fill="#63b8ff" stroke="#63b8ff" points="514.29,-133.17 523.56,-128.05 513.12,-126.27 514.29,-133.17"/>
</a>
</g>
</g>
<!-- Node16 -->
<g id="Node000016" class="node">
<title>Node16</title>
<g id="a_Node000016"><a xlink:href="class_request_result_gate.html#ad451fae2b3f234002925884a113ae060" target="_top" xlink:title="Opens a dispatch window in which a direct runtime may reply synchronously.">
<polygon fill="white" stroke="#666666" points="445.12,-128.5 336.88,-128.5 336.88,-98 445.12,-98 445.12,-128.5"/>
<text xml:space="preserve" text-anchor="start" x="344.88" y="-115" font-family="Helvetica,sans-Serif" font-size="10.00">RequestResultGate::</text>
<text xml:space="preserve" text-anchor="middle" x="391" y="-103.75" font-family="Helvetica,sans-Serif" font-size="10.00">beginDispatch</text>
</a>
</g>
</g>
<!-- Node5&#45;&gt;Node16 -->
<g id="edge17_Node000005_Node000016" class="edge">
<title>Node5&#45;&gt;Node16</title>
<g id="a_edge17_Node000005_Node000016"><a xlink:title=" ">
<path fill="none" stroke="#63b8ff" d="M271.5,-161.59C292.39,-153.07 318.47,-142.43 340.83,-133.31"/>
<polygon fill="#63b8ff" stroke="#63b8ff" points="342.14,-136.56 350.08,-129.54 339.49,-130.07 342.14,-136.56"/>
</a>
</g>
</g>
<!-- Node17 -->
<g id="Node000017" class="node">
<title>Node17</title>
<g id="a_Node000017"><a xlink:href="class_request_result_gate.html#a35b04ea0a99c2e3167645896514e09d4" target="_top" xlink:title="Correlates the accepted dispatch with any buffered synchronous result.">
<polygon fill="white" stroke="#666666" points="445.12,-79.5 336.88,-79.5 336.88,-49 445.12,-49 445.12,-79.5"/>
<text xml:space="preserve" text-anchor="start" x="344.88" y="-66" font-family="Helvetica,sans-Serif" font-size="10.00">RequestResultGate::</text>
<text xml:space="preserve" text-anchor="middle" x="391" y="-54.75" font-family="Helvetica,sans-Serif" font-size="10.00">finishDispatch</text>
</a>
</g>
</g>
<!-- Node5&#45;&gt;Node17 -->
<g id="edge18_Node000005_Node000017" class="edge">
<title>Node5&#45;&gt;Node17</title>
<g id="a_edge18_Node000005_Node000017"><a xlink:title=" ">
<path fill="none" stroke="#63b8ff" d="M245.28,-161.5C260.99,-142.09 290.08,-109.24 321.5,-89.25 323.93,-87.7 326.47,-86.24 329.08,-84.84"/>
<polygon fill="#63b8ff" stroke="#63b8ff" points="330.57,-88.01 338.05,-80.5 327.52,-81.71 330.57,-88.01"/>
</a>
</g>
</g>
<!-- Node19 -->
<g id="Node000019" class="node">
<title>Node19</title>
<g id="a_Node000019"><a xlink:href="class_i_recording_runtime.html#adfef5c4fc671db1a40d91ff27b0360f5" target="_top" xlink:title="Clears records while retaining the active transaction and mapping.">
<polygon fill="white" stroke="#666666" points="444,-30.5 338,-30.5 338,0 444,0 444,-30.5"/>
<text xml:space="preserve" text-anchor="start" x="346" y="-17" font-family="Helvetica,sans-Serif" font-size="10.00">IRecordingRuntime::</text>
<text xml:space="preserve" text-anchor="middle" x="391" y="-5.75" font-family="Helvetica,sans-Serif" font-size="10.00">resetRecording</text>
</a>
</g>
</g>
<!-- Node5&#45;&gt;Node19 -->
<g id="edge22_Node000005_Node000019" class="edge">
<title>Node5&#45;&gt;Node19</title>
<g id="a_edge22_Node000005_Node000019"><a xlink:title=" ">
<path fill="none" stroke="#63b8ff" d="M239.15,-161.76C250.85,-133.64 279.26,-73.99 321.5,-40.25 323.47,-38.68 325.55,-37.2 327.7,-35.81"/>
<polygon fill="#63b8ff" stroke="#63b8ff" points="329.25,-38.95 336.26,-31 325.82,-32.85 329.25,-38.95"/>
</a>
</g>
</g>
<!-- Node20 -->
<g id="Node000020" class="node">
<title>Node20</title>
<g id="a_Node000020"><a xlink:href="class_application_facade.html#a7d75e45694f828216756933ee1707a67" target="_top" xlink:title="Updates and publishes the recording&#45;operation state.">
<polygon fill="white" stroke="#666666" points="460.5,-263.5 321.5,-263.5 321.5,-233 460.5,-233 460.5,-263.5"/>
<text xml:space="preserve" text-anchor="start" x="329.5" y="-250" font-family="Helvetica,sans-Serif" font-size="10.00">ApplicationFacade::</text>
<text xml:space="preserve" text-anchor="middle" x="391" y="-238.75" font-family="Helvetica,sans-Serif" font-size="10.00">setRecordingOperationState</text>
</a>
</g>
</g>
<!-- Node5&#45;&gt;Node20 -->
<g id="edge23_Node000005_Node000020" class="edge">
<title>Node5&#45;&gt;Node20</title>
<g id="a_edge23_Node000005_Node000020"><a xlink:title=" ">
<path fill="none" stroke="#63b8ff" d="M260.93,-192.91C278.11,-202.28 300.76,-214.12 321.5,-223.25 325.49,-225.01 329.65,-226.75 333.86,-228.44"/>
<polygon fill="#63b8ff" stroke="#63b8ff" points="332.35,-231.61 342.94,-231.98 334.89,-225.08 332.35,-231.61"/>
</a>
</g>
</g>
<!-- Node7 -->
<g id="Node000007" class="node">
<title>Node7</title>
<g id="a_Node000007"><a xlink:href="class_application_facade.html#a0cb4dd92e5b47566047b9a726971e7f1" target="_top" xlink:title="Reports successful loading of a packet mapping.">
<polygon fill="white" stroke="#666666" points="627.62,-192.5 525.38,-192.5 525.38,-162 627.62,-162 627.62,-192.5"/>
<text xml:space="preserve" text-anchor="start" x="533.38" y="-179" font-family="Helvetica,sans-Serif" font-size="10.00">ApplicationFacade::</text>
<text xml:space="preserve" text-anchor="middle" x="576.5" y="-167.75" font-family="Helvetica,sans-Serif" font-size="10.00">mappingLoaded</text>
</a>
</g>
</g>
<!-- Node6&#45;&gt;Node7 -->
<g id="edge7_Node000006_Node000007" class="edge">
<title>Node6&#45;&gt;Node7</title>
<g id="a_edge7_Node000006_Node000007"><a xlink:title=" ">
<path fill="none" stroke="#63b8ff" d="M442.14,-193.24C464.3,-190.58 490.57,-187.43 513.91,-184.63"/>
<polygon fill="#63b8ff" stroke="#63b8ff" points="514.08,-188.14 523.6,-183.47 513.25,-181.19 514.08,-188.14"/>
</a>
</g>
</g>
<!-- Node6&#45;&gt;Node10 -->
<g id="edge11_Node000006_Node000010" class="edge">
<title>Node6&#45;&gt;Node10</title>
<g id="a_edge11_Node000006_Node000010"><a xlink:title=" ">
<path fill="none" stroke="#63b8ff" d="M429.81,-183.57C439.82,-179.33 450.6,-174.68 460.5,-170.25 476.65,-163.02 480.37,-160.53 496.5,-153.25 506.6,-148.69 517.49,-143.92 527.85,-139.44"/>
<polygon fill="#63b8ff" stroke="#63b8ff" points="529.21,-142.66 537.02,-135.5 526.45,-136.23 529.21,-142.66"/>
</a>
</g>
</g>
<!-- Node14 -->
<g id="Node000014" class="node">
<title>Node14</title>
<g id="a_Node000014"><a xlink:href="class_application_view_model.html#a4a3e33ab5db50a0e26e124bf9225eeba" target="_top" xlink:title="Sets status text.">
<polygon fill="white" stroke="#666666" points="632.5,-259.5 520.5,-259.5 520.5,-229 632.5,-229 632.5,-259.5"/>
<text xml:space="preserve" text-anchor="start" x="528.5" y="-246" font-family="Helvetica,sans-Serif" font-size="10.00">ApplicationViewModel</text>
<text xml:space="preserve" text-anchor="middle" x="576.5" y="-234.75" font-family="Helvetica,sans-Serif" font-size="10.00">::setStatusText</text>
</a>
</g>
</g>
<!-- Node6&#45;&gt;Node14 -->
<g id="edge15_Node000006_Node000014" class="edge">
<title>Node6&#45;&gt;Node14</title>
<g id="a_edge15_Node000006_Node000014"><a xlink:title=" ">
<path fill="none" stroke="#63b8ff" d="M442.14,-211.55C462.84,-216.62 487.12,-222.58 509.25,-228"/>
<polygon fill="#63b8ff" stroke="#63b8ff" points="508.24,-231.36 518.79,-230.34 509.91,-224.56 508.24,-231.36"/>
</a>
</g>
</g>
<!-- Node7&#45;&gt;Node7 -->
<g id="edge9_Node000007_Node000007" class="edge">
<title>Node7&#45;&gt;Node7</title>
<g id="a_edge9_Node000007_Node000007"><a xlink:title=" ">
<path fill="none" stroke="#63b8ff" d="M546.02,-192.99C539.8,-202.06 549.96,-210.5 576.5,-210.5 591.01,-210.5 600.63,-207.97 605.34,-204.2"/>
<polygon fill="#63b8ff" stroke="#63b8ff" points="608.78,-204.88 606.76,-194.48 601.86,-203.87 608.78,-204.88"/>
</a>
</g>
</g>
<!-- Node8 -->
<g id="Node000008" class="node">
<title>Node8</title>
<g id="a_Node000008"><a xlink:href="class_application_facade.html#a22237ba254d2b73c0d6ee14376a0aee9" target="_top" xlink:title="Returns the number of fields in the active packet mapping.">
<polygon fill="white" stroke="#666666" points="799.62,-241.5 697.38,-241.5 697.38,-211 799.62,-211 799.62,-241.5"/>
<text xml:space="preserve" text-anchor="start" x="705.38" y="-228" font-family="Helvetica,sans-Serif" font-size="10.00">ApplicationFacade::</text>
<text xml:space="preserve" text-anchor="middle" x="748.5" y="-216.75" font-family="Helvetica,sans-Serif" font-size="10.00">mappedFieldCount</text>
</a>
</g>
</g>
<!-- Node7&#45;&gt;Node8 -->
<g id="edge8_Node000007_Node000008" class="edge">
<title>Node7&#45;&gt;Node8</title>
<g id="a_edge8_Node000007_Node000008"><a xlink:title=" ">
<path fill="none" stroke="#63b8ff" d="M628.05,-191.82C646.29,-197.08 667.08,-203.07 686.15,-208.57"/>
<polygon fill="#63b8ff" stroke="#63b8ff" points="685.12,-211.91 695.7,-211.32 687.06,-205.19 685.12,-211.91"/>
</a>
</g>
</g>
<!-- Node9 -->
<g id="Node000009" class="node">
<title>Node9</title>
<g id="a_Node000009"><a xlink:href="class_application_facade.html#a1c17c18edd6c30bb9e2bf63bf449153a" target="_top" xlink:title="Returns the minimum packet size required by the active mapping.">
<polygon fill="white" stroke="#666666" points="801.5,-192.5 695.5,-192.5 695.5,-162 801.5,-162 801.5,-192.5"/>
<text xml:space="preserve" text-anchor="start" x="703.5" y="-179" font-family="Helvetica,sans-Serif" font-size="10.00">ApplicationFacade::</text>
<text xml:space="preserve" text-anchor="middle" x="748.5" y="-167.75" font-family="Helvetica,sans-Serif" font-size="10.00">minimumPacketSize</text>
</a>
</g>
</g>
<!-- Node7&#45;&gt;Node9 -->
<g id="edge10_Node000007_Node000009" class="edge">
<title>Node7&#45;&gt;Node9</title>
<g id="a_edge10_Node000007_Node000009"><a xlink:title=" ">
<path fill="none" stroke="#63b8ff" d="M628.05,-177.25C645.55,-177.25 665.41,-177.25 683.83,-177.25"/>
<polygon fill="#63b8ff" stroke="#63b8ff" points="683.57,-180.75 693.57,-177.25 683.57,-173.75 683.57,-180.75"/>
</a>
</g>
</g>
<!-- Node11 -->
<g id="Node000011" class="node">
<title>Node11</title>
<g id="a_Node000011"><a xlink:href="class_application_facade.html#a5935c712453aca17ae956f9c34d1d5b2" target="_top" xlink:title="Reports an operation or runtime error to observers.">
<polygon fill="white" stroke="#666666" points="799.62,-125.5 697.38,-125.5 697.38,-95 799.62,-95 799.62,-125.5"/>
<text xml:space="preserve" text-anchor="start" x="705.38" y="-112" font-family="Helvetica,sans-Serif" font-size="10.00">ApplicationFacade::</text>
<text xml:space="preserve" text-anchor="middle" x="748.5" y="-100.75" font-family="Helvetica,sans-Serif" font-size="10.00">errorRaised</text>
</a>
</g>
</g>
<!-- Node10&#45;&gt;Node11 -->
<g id="edge12_Node000010_Node000011" class="edge">
<title>Node10&#45;&gt;Node11</title>
<g id="a_edge12_Node000010_Node000011"><a xlink:title=" ">
<path fill="none" stroke="#63b8ff" d="M628.05,-116.57C646.21,-115.61 666.89,-114.52 685.89,-113.51"/>
<polygon fill="#63b8ff" stroke="#63b8ff" points="685.84,-117.02 695.64,-113 685.47,-110.03 685.84,-117.02"/>
</a>
</g>
</g>
<!-- Node12 -->
<g id="Node000012" class="node">
<title>Node12</title>
<g id="a_Node000012"><a xlink:href="class_application_view_model.html#a8b45470f469030969b5321be7b4c0e6c" target="_top" xlink:title="Sets last error.">
<polygon fill="#fff0f0" stroke="red" points="804.5,-76.5 692.5,-76.5 692.5,-46 804.5,-46 804.5,-76.5"/>
<text xml:space="preserve" text-anchor="start" x="700.5" y="-63" font-family="Helvetica,sans-Serif" font-size="10.00">ApplicationViewModel</text>
<text xml:space="preserve" text-anchor="middle" x="748.5" y="-51.75" font-family="Helvetica,sans-Serif" font-size="10.00">::setLastError</text>
</a>
</g>
</g>
<!-- Node10&#45;&gt;Node12 -->
<g id="edge14_Node000010_Node000012" class="edge">
<title>Node10&#45;&gt;Node12</title>
<g id="a_edge14_Node000010_Node000012"><a xlink:title=" ">
<path fill="none" stroke="#63b8ff" d="M623.5,-103.55C644.2,-96.49 668.83,-88.09 690.66,-80.64"/>
<polygon fill="#63b8ff" stroke="#63b8ff" points="691.69,-83.99 700.03,-77.45 689.43,-77.36 691.69,-83.99"/>
</a>
</g>
</g>
<!-- Node11&#45;&gt;Node11 -->
<g id="edge13_Node000011_Node000011" class="edge">
<title>Node11&#45;&gt;Node11</title>
<g id="a_edge13_Node000011_Node000011"><a xlink:title=" ">
<path fill="none" stroke="#63b8ff" d="M718.02,-125.99C711.8,-135.06 721.96,-143.5 748.5,-143.5 763.01,-143.5 772.63,-140.97 777.34,-137.2"/>
<polygon fill="#63b8ff" stroke="#63b8ff" points="780.78,-137.88 778.76,-127.48 773.86,-136.87 780.78,-137.88"/>
</a>
</g>
</g>
<!-- Node15 -->
<g id="Node000015" class="node">
<title>Node15</title>
<g id="a_Node000015"><a xlink:href="class_application_view_model.html#a3b64c6107fe4eb693bbf7aa9adf20089" target="_top" xlink:title="Notifies observers about status changed.">
<polygon fill="white" stroke="#666666" points="804.5,-290.5 692.5,-290.5 692.5,-260 804.5,-260 804.5,-290.5"/>
<text xml:space="preserve" text-anchor="start" x="700.5" y="-277" font-family="Helvetica,sans-Serif" font-size="10.00">ApplicationViewModel</text>
<text xml:space="preserve" text-anchor="middle" x="748.5" y="-265.75" font-family="Helvetica,sans-Serif" font-size="10.00">::statusChanged</text>
</a>
</g>
</g>
<!-- Node14&#45;&gt;Node15 -->
<g id="edge16_Node000014_Node000015" class="edge">
<title>Node14&#45;&gt;Node15</title>
<g id="a_edge16_Node000014_Node000015"><a xlink:title=" ">
<path fill="none" stroke="#63b8ff" d="M632.69,-254.31C648.13,-257.13 665.08,-260.22 681.09,-263.14"/>
<polygon fill="#63b8ff" stroke="#63b8ff" points="680.05,-266.51 690.51,-264.86 681.3,-259.62 680.05,-266.51"/>
</a>
</g>
</g>
<!-- Node18 -->
<g id="Node000018" class="node">
<title>Node18</title>
<g id="a_Node000018"><a xlink:href="struct_runtime_request_id.html#a1f28818442dba1abd5f4aabca4987e23" target="_top" xlink:title="Reports whether valid is true.">
<polygon fill="white" stroke="#666666" points="642.62,-73.88 510.38,-73.88 510.38,-54.62 642.62,-54.62 642.62,-73.88"/>
<text xml:space="preserve" text-anchor="middle" x="576.5" y="-60.38" font-family="Helvetica,sans-Serif" font-size="10.00">RuntimeRequestId::isValid</text>
</a>
</g>
</g>
<!-- Node17&#45;&gt;Node18 -->
<g id="edge19_Node000017_Node000018" class="edge">
<title>Node17&#45;&gt;Node18</title>
<g id="a_edge19_Node000017_Node000018"><a xlink:title=" ">
<path fill="none" stroke="#63b8ff" d="M445.57,-64.25C462.22,-64.25 480.92,-64.25 498.83,-64.25"/>
<polygon fill="#63b8ff" stroke="#63b8ff" points="498.64,-67.75 508.64,-64.25 498.64,-60.75 498.64,-67.75"/>
</a>
</g>
</g>
<!-- Node21 -->
<g id="Node000021" class="node">
<title>Node21</title>
<g id="a_Node000021"><a xlink:href="class_application_facade.html#ad8fd175d53d1e7696bfac7d07e23f0da" target="_top" xlink:title="Reports a change in the recording&#45;operation state.">
<polygon fill="white" stroke="#666666" points="656.5,-308.5 496.5,-308.5 496.5,-278 656.5,-278 656.5,-308.5"/>
<text xml:space="preserve" text-anchor="start" x="504.5" y="-295" font-family="Helvetica,sans-Serif" font-size="10.00">ApplicationFacade::</text>
<text xml:space="preserve" text-anchor="middle" x="576.5" y="-283.75" font-family="Helvetica,sans-Serif" font-size="10.00">recordingOperationStateChanged</text>
</a>
</g>
</g>
<!-- Node20&#45;&gt;Node21 -->
<g id="edge24_Node000020_Node000021" class="edge">
<title>Node20&#45;&gt;Node21</title>
<g id="a_edge24_Node000020_Node000021"><a xlink:title=" ">
<path fill="none" stroke="#63b8ff" d="M456.18,-263.99C470.43,-267.48 485.65,-271.22 500.3,-274.81"/>
<polygon fill="#63b8ff" stroke="#63b8ff" points="499.34,-278.18 509.89,-277.16 501.01,-271.38 499.34,-278.18"/>
</a>
</g>
</g>
<!-- Node21&#45;&gt;Node21 -->
<g id="edge25_Node000021_Node000021" class="edge">
<title>Node21&#45;&gt;Node21</title>
<g id="a_edge25_Node000021_Node000021"><a xlink:title=" ">
<path fill="none" stroke="#63b8ff" d="M546.02,-308.99C539.8,-318.06 549.96,-326.5 576.5,-326.5 591.01,-326.5 600.63,-323.97 605.34,-320.2"/>
<polygon fill="#63b8ff" stroke="#63b8ff" points="608.78,-320.88 606.76,-310.48 601.86,-319.87 608.78,-320.88"/>
</a>
</g>
</g>
</g>
</svg>
