<?xml version="1.0" encoding="UTF-8" standalone="no"?>
<!DOCTYPE svg PUBLIC "-//W3C//DTD SVG 1.1//EN"
 "http://www.w3.org/Graphics/SVG/1.1/DTD/svg11.dtd">
<!-- Generated by graphviz version 15.1.0 (20260618.0150)
 -->
<!-- Title: RequestResultGate::finishDispatch Pages: 1 -->
<svg width="943pt" height="266pt"
 viewBox="0.00 0.00 943.00 266.00" xmlns="http://www.w3.org/2000/svg" xmlns:xlink="http://www.w3.org/1999/xlink">
<g id="graph0" class="graph" transform="scale(1 1) rotate(0) translate(4 261.5)">
<title>RequestResultGate::finishDispatch</title>
<!-- Node1 -->
<g id="Node000001" class="node">
<title>Node1</title>
<g id="a_Node000001"><a xlink:title=" ">
<polygon fill="#999999" stroke="#666666" points="934.5,-145.5 826.25,-145.5 826.25,-115 934.5,-115 934.5,-145.5"/>
<text xml:space="preserve" text-anchor="start" x="834.25" y="-132" font-family="Helvetica,sans-Serif" font-size="10.00">RequestResultGate::</text>
<text xml:space="preserve" text-anchor="middle" x="880.38" y="-120.75" font-family="Helvetica,sans-Serif" font-size="10.00">finishDispatch</text>
</a>
</g>
</g>
<!-- Node2 -->
<g id="Node000002" class="node">
<title>Node2</title>
<g id="a_Node000002"><a xlink:href="class_application_facade.html#abaeb7a95980e0e4521275006c4137f43" target="_top" xlink:title="Requests loading and validation of a packet mapping file.">
<polygon fill="white" stroke="#666666" points="790.25,-255.5 688,-255.5 688,-225 790.25,-225 790.25,-255.5"/>
<text xml:space="preserve" text-anchor="start" x="696" y="-242" font-family="Helvetica,sans-Serif" font-size="10.00">ApplicationFacade::</text>
<text xml:space="preserve" text-anchor="middle" x="739.12" y="-230.75" font-family="Helvetica,sans-Serif" font-size="10.00">loadMapping</text>
</a>
</g>
</g>
<!-- Node1&#45;&gt;Node2 -->
<g id="edge1_Node000001_Node000002" class="edge">
<title>Node1&#45;&gt;Node2</title>
<g id="a_edge1_Node000001_Node000002"><a xlink:title=" ">
<path fill="none" stroke="#63b8ff" d="M856.28,-153.78C838.95,-170.79 814.19,-193.76 790.25,-211.25 783.84,-215.94 776.61,-220.49 769.68,-224.55"/>
<polygon fill="#63b8ff" stroke="#63b8ff" points="858.45,-156.56 863.08,-147.03 853.52,-151.59 858.45,-156.56"/>
</a>
</g>
</g>
<!-- Node10 -->
<g id="Node000010" class="node">
<title>Node10</title>
<g id="a_Node000010"><a xlink:href="class_application_facade.html#a8a7b37f032f51eaaf3ef9516f0d19009" target="_top" xlink:title="Requests reset of the active recording transaction.">
<polygon fill="white" stroke="#666666" points="790.25,-202.5 688,-202.5 688,-172 790.25,-172 790.25,-202.5"/>
<text xml:space="preserve" text-anchor="start" x="696" y="-189" font-family="Helvetica,sans-Serif" font-size="10.00">ApplicationFacade::</text>
<text xml:space="preserve" text-anchor="middle" x="739.12" y="-177.75" font-family="Helvetica,sans-Serif" font-size="10.00">resetRecording</text>
</a>
</g>
</g>
<!-- Node1&#45;&gt;Node10 -->
<g id="edge5_Node000001_Node000010" class="edge">
<title>Node1&#45;&gt;Node10</title>
<g id="a_edge5_Node000001_Node000010"><a xlink:title=" ">
<path fill="none" stroke="#63b8ff" d="M830.59,-150.22C813.49,-157.22 794.54,-164.98 778.42,-171.57"/>
<polygon fill="#63b8ff" stroke="#63b8ff" points="831.63,-153.58 839.55,-146.55 828.97,-147.1 831.63,-153.58"/>
</a>
</g>
</g>
<!-- Node12 -->
<g id="Node000012" class="node">
<title>Node12</title>
<g id="a_Node000012"><a xlink:href="class_application_facade.html#aef90a981dc98a6d8d92e8d2d911f74aa" target="_top" xlink:title="Requests installation of an IP access policy.">
<polygon fill="white" stroke="#666666" points="790.25,-145.5 688,-145.5 688,-115 790.25,-115 790.25,-145.5"/>
<text xml:space="preserve" text-anchor="start" x="696" y="-132" font-family="Helvetica,sans-Serif" font-size="10.00">ApplicationFacade::</text>
<text xml:space="preserve" text-anchor="middle" x="739.12" y="-120.75" font-family="Helvetica,sans-Serif" font-size="10.00">setIpAccessPolicy</text>
</a>
</g>
</g>
<!-- Node1&#45;&gt;Node12 -->
<g id="edge8_Node000001_Node000012" class="edge">
<title>Node1&#45;&gt;Node12</title>
<g id="a_edge8_Node000001_Node000012"><a xlink:title=" ">
<path fill="none" stroke="#63b8ff" d="M814.58,-130.25C806.48,-130.25 798.28,-130.25 790.45,-130.25"/>
<polygon fill="#63b8ff" stroke="#63b8ff" points="814.42,-133.75 824.42,-130.25 814.42,-126.75 814.42,-133.75"/>
</a>
</g>
</g>
<!-- Node16 -->
<g id="Node000016" class="node">
<title>Node16</title>
<g id="a_Node000016"><a xlink:href="class_application_facade.html#a42f5497c396fac20046b6c11bc55ea1b" target="_top" xlink:title="Saves a snapshot of the active recording without finalizing it.">
<polygon fill="white" stroke="#666666" points="790.25,-81.5 688,-81.5 688,-51 790.25,-51 790.25,-81.5"/>
<text xml:space="preserve" text-anchor="start" x="696" y="-68" font-family="Helvetica,sans-Serif" font-size="10.00">ApplicationFacade::</text>
<text xml:space="preserve" text-anchor="middle" x="739.12" y="-56.75" font-family="Helvetica,sans-Serif" font-size="10.00">snapshotRecording</text>
</a>
</g>
</g>
<!-- Node1&#45;&gt;Node16 -->
<g id="edge14_Node000001_Node000016" class="edge">
<title>Node1&#45;&gt;Node16</title>
<g id="a_edge14_Node000001_Node000016"><a xlink:title=" ">
<path fill="none" stroke="#63b8ff" d="M835.06,-109.88C815.4,-100.85 792.63,-90.38 774.32,-81.97"/>
<polygon fill="#63b8ff" stroke="#63b8ff" points="833.39,-112.97 843.94,-113.96 836.31,-106.61 833.39,-112.97"/>
</a>
</g>
</g>
<!-- Node18 -->
<g id="Node000018" class="node">
<title>Node18</title>
<g id="a_Node000018"><a xlink:href="class_application_facade.html#a5c87f32b2373cb2bccfc6536a7a909b0" target="_top" xlink:title="Finalizes the active recording and saves it to a file.">
<polygon fill="white" stroke="#666666" points="790.25,-32.5 688,-32.5 688,-2 790.25,-2 790.25,-32.5"/>
<text xml:space="preserve" text-anchor="start" x="696" y="-19" font-family="Helvetica,sans-Serif" font-size="10.00">ApplicationFacade::</text>
<text xml:space="preserve" text-anchor="middle" x="739.12" y="-7.75" font-family="Helvetica,sans-Serif" font-size="10.00">stopRecording</text>
</a>
</g>
</g>
<!-- Node1&#45;&gt;Node18 -->
<g id="edge16_Node000001_Node000018" class="edge">
<title>Node1&#45;&gt;Node18</title>
<g id="a_edge16_Node000001_Node000018"><a xlink:title=" ">
<path fill="none" stroke="#63b8ff" d="M859.02,-106.33C841.99,-87.32 816.36,-60.92 790.25,-42.25 785.58,-38.91 780.41,-35.79 775.2,-32.95"/>
<polygon fill="#63b8ff" stroke="#63b8ff" points="856.19,-108.41 865.43,-113.61 861.44,-103.79 856.19,-108.41"/>
</a>
</g>
</g>
<!-- Node3 -->
<g id="Node000003" class="node">
<title>Node3</title>
<g id="a_Node000003"><a xlink:href="class_online_workflow_controller.html#a9a7962ce78ecdcb5e0d6033bdf80cdc2" target="_top" xlink:title=" ">
<polygon fill="white" stroke="#666666" points="465,-257.5 338.75,-257.5 338.75,-227 465,-227 465,-257.5"/>
<text xml:space="preserve" text-anchor="start" x="346.75" y="-244" font-family="Helvetica,sans-Serif" font-size="10.00">OnlineWorkflowController</text>
<text xml:space="preserve" text-anchor="middle" x="401.88" y="-232.75" font-family="Helvetica,sans-Serif" font-size="10.00">::requestMapping</text>
</a>
</g>
</g>
<!-- Node2&#45;&gt;Node3 -->
<g id="edge2_Node000002_Node000003" class="edge">
<title>Node2&#45;&gt;Node3</title>
<g id="a_edge2_Node000002_Node000003"><a xlink:title=" ">
<path fill="none" stroke="#63b8ff" d="M676.36,-240.62C616.3,-240.98 525.55,-241.52 465.28,-241.88"/>
<polygon fill="#63b8ff" stroke="#63b8ff" points="676.08,-244.12 686.06,-240.56 676.04,-237.12 676.08,-244.12"/>
</a>
</g>
</g>
<!-- Node4 -->
<g id="Node000004" class="node">
<title>Node4</title>
<g id="a_Node000004"><a xlink:href="class_online_panel.html#a718a7f2c79b67e00d58efdbeedbd3ad8" target="_top" xlink:title=" ">
<polygon fill="white" stroke="#666666" points="294.5,-153.88 167.5,-153.88 167.5,-134.62 294.5,-134.62 294.5,-153.88"/>
<text xml:space="preserve" text-anchor="middle" x="231" y="-140.38" font-family="Helvetica,sans-Serif" font-size="10.00">OnlinePanel::OnlinePanel</text>
</a>
</g>
</g>
<!-- Node3&#45;&gt;Node4 -->
<g id="edge3_Node000003_Node000004" class="edge">
<title>Node3&#45;&gt;Node4</title>
<g id="a_edge3_Node000003_Node000004"><a xlink:title=" ">
<path fill="none" stroke="#63b8ff" d="M340.47,-222.14C337.05,-220.59 333.7,-218.96 330.5,-217.25 296.12,-198.93 260.56,-169.5 243.07,-154.2"/>
<polygon fill="#63b8ff" stroke="#63b8ff" points="338.9,-225.28 349.47,-225.97 341.64,-218.84 338.9,-225.28"/>
</a>
</g>
</g>
<!-- Node5 -->
<g id="Node000005" class="node">
<title>Node5</title>
<g id="a_Node000005"><a xlink:href="class_main_window.html#a0531fa9a3d2a53bacd3923ea4d4cef5a" target="_top" xlink:title=" ">
<polygon fill="#fff0f0" stroke="red" points="131.5,-153.88 0,-153.88 0,-134.62 131.5,-134.62 131.5,-153.88"/>
<text xml:space="preserve" text-anchor="middle" x="65.75" y="-140.38" font-family="Helvetica,sans-Serif" font-size="10.00">MainWindow::buildSidebar</text>
</a>
</g>
</g>
<!-- Node4&#45;&gt;Node5 -->
<g id="edge4_Node000004_Node000005" class="edge">
<title>Node4&#45;&gt;Node5</title>
<g id="a_edge4_Node000004_Node000005"><a xlink:title=" ">
<path fill="none" stroke="#63b8ff" d="M156.07,-144.25C148.02,-144.25 139.87,-144.25 131.94,-144.25"/>
<polygon fill="#63b8ff" stroke="#63b8ff" points="155.84,-147.75 165.84,-144.25 155.84,-140.75 155.84,-147.75"/>
</a>
</g>
</g>
<!-- Node11 -->
<g id="Node000011" class="node">
<title>Node11</title>
<g id="a_Node000011"><a xlink:href="class_recording_workflow_controller.html#a62a8497e8b07c3ae6db22e6e62a0d8f8" target="_top" xlink:title=" ">
<polygon fill="white" stroke="#666666" points="473.25,-208.5 330.5,-208.5 330.5,-178 473.25,-178 473.25,-208.5"/>
<text xml:space="preserve" text-anchor="start" x="338.5" y="-195" font-family="Helvetica,sans-Serif" font-size="10.00">RecordingWorkflowController</text>
<text xml:space="preserve" text-anchor="middle" x="401.88" y="-183.75" font-family="Helvetica,sans-Serif" font-size="10.00">::requestReset</text>
</a>
</g>
</g>
<!-- Node10&#45;&gt;Node11 -->
<g id="edge6_Node000010_Node000011" class="edge">
<title>Node10&#45;&gt;Node11</title>
<g id="a_edge6_Node000010_Node000011"><a xlink:title=" ">
<path fill="none" stroke="#63b8ff" d="M676.12,-188.36C618.72,-189.39 533.43,-190.91 473.44,-191.99"/>
<polygon fill="#63b8ff" stroke="#63b8ff" points="676.12,-191.86 686.06,-188.18 676,-184.86 676.12,-191.86"/>
</a>
</g>
</g>
<!-- Node11&#45;&gt;Node4 -->
<g id="edge7_Node000011_Node000004" class="edge">
<title>Node11&#45;&gt;Node4</title>
<g id="a_edge7_Node000011_Node000004"><a xlink:title=" ">
<path fill="none" stroke="#63b8ff" d="M335.98,-174.42C312.44,-167.59 286.75,-160.14 266.8,-154.35"/>
<polygon fill="#63b8ff" stroke="#63b8ff" points="334.94,-177.76 345.52,-177.19 336.9,-171.04 334.94,-177.76"/>
</a>
</g>
</g>
<!-- Node13 -->
<g id="Node000013" class="node">
<title>Node13</title>
<g id="a_Node000013"><a xlink:href="class_application_facade.html#a49e7d78b35420d6ceb0cc678b915070b" target="_top" xlink:title="Loads an IP access policy from a file and submits it for installation.">
<polygon fill="white" stroke="#666666" points="631.75,-165.5 529.5,-165.5 529.5,-135 631.75,-135 631.75,-165.5"/>
<text xml:space="preserve" text-anchor="start" x="537.5" y="-152" font-family="Helvetica,sans-Serif" font-size="10.00">ApplicationFacade::</text>
<text xml:space="preserve" text-anchor="middle" x="580.62" y="-140.75" font-family="Helvetica,sans-Serif" font-size="10.00">loadIpAccessPolicy</text>
</a>
</g>
</g>
<!-- Node12&#45;&gt;Node13 -->
<g id="edge9_Node000012_Node000013" class="edge">
<title>Node12&#45;&gt;Node13</title>
<g id="a_edge9_Node000012_Node000013"><a xlink:title=" ">
<path fill="none" stroke="#63b8ff" d="M676.67,-138.1C661.93,-139.99 646.36,-141.98 632.18,-143.79"/>
<polygon fill="#63b8ff" stroke="#63b8ff" points="676.77,-141.62 686.24,-136.88 675.88,-134.68 676.77,-141.62"/>
</a>
</g>
</g>
<!-- Node15 -->
<g id="Node000015" class="node">
<title>Node15</title>
<g id="a_Node000015"><a xlink:href="class_online_workflow_controller.html#aeb5923ab74347d39bd681ba875bd6de4" target="_top" xlink:title=" ">
<polygon fill="white" stroke="#666666" points="465,-110.5 338.75,-110.5 338.75,-80 465,-80 465,-110.5"/>
<text xml:space="preserve" text-anchor="start" x="346.75" y="-97" font-family="Helvetica,sans-Serif" font-size="10.00">OnlineWorkflowController</text>
<text xml:space="preserve" text-anchor="middle" x="401.88" y="-85.75" font-family="Helvetica,sans-Serif" font-size="10.00">::requestAllowAll</text>
</a>
</g>
</g>
<!-- Node12&#45;&gt;Node15 -->
<g id="edge12_Node000012_Node000015" class="edge">
<title>Node12&#45;&gt;Node15</title>
<g id="a_edge12_Node000012_Node000015"><a xlink:title=" ">
<path fill="none" stroke="#63b8ff" d="M676.36,-123.8C616.3,-117.53 525.55,-108.06 465.28,-101.76"/>
<polygon fill="#63b8ff" stroke="#63b8ff" points="675.76,-127.26 686.07,-124.82 676.48,-120.3 675.76,-127.26"/>
</a>
</g>
</g>
<!-- Node14 -->
<g id="Node000014" class="node">
<title>Node14</title>
<g id="a_Node000014"><a xlink:href="class_online_workflow_controller.html#ada3a5443fb8f57a792731b415b5cce15" target="_top" xlink:title=" ">
<polygon fill="white" stroke="#666666" points="465,-159.5 338.75,-159.5 338.75,-129 465,-129 465,-159.5"/>
<text xml:space="preserve" text-anchor="start" x="346.75" y="-146" font-family="Helvetica,sans-Serif" font-size="10.00">OnlineWorkflowController</text>
<text xml:space="preserve" text-anchor="middle" x="401.88" y="-134.75" font-family="Helvetica,sans-Serif" font-size="10.00">::requestWhitelist</text>
</a>
</g>
</g>
<!-- Node13&#45;&gt;Node14 -->
<g id="edge10_Node000013_Node000014" class="edge">
<title>Node13&#45;&gt;Node14</title>
<g id="a_edge10_Node000013_Node000014"><a xlink:title=" ">
<path fill="none" stroke="#63b8ff" d="M517.95,-148.16C500.96,-147.58 482.51,-146.95 465.47,-146.37"/>
<polygon fill="#63b8ff" stroke="#63b8ff" points="517.82,-151.65 527.94,-148.5 518.06,-144.66 517.82,-151.65"/>
</a>
</g>
</g>
<!-- Node14&#45;&gt;Node4 -->
<g id="edge11_Node000014_Node000004" class="edge">
<title>Node14&#45;&gt;Node4</title>
<g id="a_edge11_Node000014_Node000004"><a xlink:title=" ">
<path fill="none" stroke="#63b8ff" d="M327.01,-144.25C316.33,-144.25 305.43,-144.25 294.99,-144.25"/>
<polygon fill="#63b8ff" stroke="#63b8ff" points="326.96,-147.75 336.96,-144.25 326.96,-140.75 326.96,-147.75"/>
</a>
</g>
</g>
<!-- Node15&#45;&gt;Node4 -->
<g id="edge13_Node000015_Node000004" class="edge">
<title>Node15&#45;&gt;Node4</title>
<g id="a_edge13_Node000015_Node000004"><a xlink:title=" ">
<path fill="none" stroke="#63b8ff" d="M335.98,-114.08C312.44,-120.91 286.75,-128.36 266.8,-134.15"/>
<polygon fill="#63b8ff" stroke="#63b8ff" points="336.9,-117.46 345.52,-111.31 334.94,-110.74 336.9,-117.46"/>
</a>
</g>
</g>
<!-- Node17 -->
<g id="Node000017" class="node">
<title>Node17</title>
<g id="a_Node000017"><a xlink:href="class_recording_workflow_controller.html#ab315058e28ddfd64c1ccb74066517621" target="_top" xlink:title=" ">
<polygon fill="white" stroke="#666666" points="652,-79.5 509.25,-79.5 509.25,-49 652,-49 652,-79.5"/>
<text xml:space="preserve" text-anchor="start" x="517.25" y="-66" font-family="Helvetica,sans-Serif" font-size="10.00">RecordingWorkflowController</text>
<text xml:space="preserve" text-anchor="middle" x="580.62" y="-54.75" font-family="Helvetica,sans-Serif" font-size="10.00">::requestSnapshot</text>
</a>
</g>
</g>
<!-- Node16&#45;&gt;Node17 -->
<g id="edge15_Node000016_Node000017" class="edge">
<title>Node16&#45;&gt;Node17</title>
<g id="a_edge15_Node000016_Node000017"><a xlink:title=" ">
<path fill="none" stroke="#63b8ff" d="M676.42,-65.46C668.54,-65.36 660.43,-65.26 652.43,-65.15"/>
<polygon fill="#63b8ff" stroke="#63b8ff" points="676.19,-68.96 686.23,-65.59 676.28,-61.96 676.19,-68.96"/>
</a>
</g>
</g>
<!-- Node19 -->
<g id="Node000019" class="node">
<title>Node19</title>
<g id="a_Node000019"><a xlink:href="class_recording_workflow_controller.html#a365321a12c8cf2dc7a5115c44a58dc7f" target="_top" xlink:title=" ">
<polygon fill="white" stroke="#666666" points="652,-30.5 509.25,-30.5 509.25,0 652,0 652,-30.5"/>
<text xml:space="preserve" text-anchor="start" x="517.25" y="-17" font-family="Helvetica,sans-Serif" font-size="10.00">RecordingWorkflowController</text>
<text xml:space="preserve" text-anchor="middle" x="580.62" y="-5.75" font-family="Helvetica,sans-Serif" font-size="10.00">::requestFinalSave</text>
</a>
</g>
</g>
<!-- Node18&#45;&gt;Node19 -->
<g id="edge17_Node000018_Node000019" class="edge">
<title>Node18&#45;&gt;Node19</title>
<g id="a_edge17_Node000018_Node000019"><a xlink:title=" ">
<path fill="none" stroke="#63b8ff" d="M676.42,-16.46C668.54,-16.36 660.43,-16.26 652.43,-16.15"/>
<polygon fill="#63b8ff" stroke="#63b8ff" points="676.19,-19.96 686.23,-16.59 676.28,-12.96 676.19,-19.96"/>
</a>
</g>
</g>
<!-- Node19&#45;&gt;Node4 -->
<g id="edge18_Node000019_Node000004" class="edge">
<title>Node19&#45;&gt;Node4</title>
<g id="a_edge18_Node000019_Node000004"><a xlink:title=" ">
<path fill="none" stroke="#63b8ff" d="M497.83,-24.87C447.83,-32.85 383.52,-46.97 330.5,-71.25 294.7,-87.65 259.2,-118.47 242.27,-134.3"/>
<polygon fill="#63b8ff" stroke="#63b8ff" points="498.08,-28.37 507.43,-23.39 497.01,-21.46 498.08,-28.37"/>
</a>
</g>
</g>
</g>
</svg>
