<?xml version="1.0" encoding="UTF-8" standalone="no"?>
<!DOCTYPE svg PUBLIC "-//W3C//DTD SVG 1.1//EN"
 "http://www.w3.org/Graphics/SVG/1.1/DTD/svg11.dtd">
<!-- Generated by graphviz version 15.1.0 (20260618.0150)
 -->
<!-- Title: src/viewer/plane/glb_texture_reader.h Pages: 1 -->
<svg width="546pt" height="160pt"
 viewBox="0.00 0.00 546.00 160.00" xmlns="http://www.w3.org/2000/svg" xmlns:xlink="http://www.w3.org/1999/xlink">
<g id="graph0" class="graph" transform="scale(1 1) rotate(0) translate(4 156.25)">
<title>src/viewer/plane/glb_texture_reader.h</title>
<!-- Node1 -->
<g id="Node000001" class="node">
<title>Node1</title>
<g id="a_Node000001"><a xlink:title="Bounded decoder for glTF images, textures, and samplers.">
<polygon fill="#999999" stroke="#666666" points="403.75,-152.25 300.75,-152.25 300.75,-121.75 403.75,-121.75 403.75,-152.25"/>
<text xml:space="preserve" text-anchor="start" x="308.75" y="-138.75" font-family="Helvetica,sans-Serif" font-size="10.00">src/viewer/plane/glb</text>
<text xml:space="preserve" text-anchor="middle" x="352.25" y="-127.5" font-family="Helvetica,sans-Serif" font-size="10.00">_texture_reader.h</text>
</a>
</g>
</g>
<!-- Node2 -->
<g id="Node000002" class="node">
<title>Node2</title>
<g id="a_Node000002"><a xlink:href="plane__model__mesh_8h.html" target="_top" xlink:title="Validated, flattened CPU representation of the packaged F&#45;16 model.">
<polygon fill="white" stroke="#666666" points="249.75,-85.75 152.75,-85.75 152.75,-55.25 249.75,-55.25 249.75,-85.75"/>
<text xml:space="preserve" text-anchor="start" x="160.75" y="-72.25" font-family="Helvetica,sans-Serif" font-size="10.00">viewer/plane/plane</text>
<text xml:space="preserve" text-anchor="middle" x="201.25" y="-61" font-family="Helvetica,sans-Serif" font-size="10.00">_model_mesh.h</text>
</a>
</g>
</g>
<!-- Node1&#45;&gt;Node2 -->
<g id="edge1_Node000001_Node000002" class="edge">
<title>Node1&#45;&gt;Node2</title>
<g id="a_edge1_Node000001_Node000002"><a xlink:title=" ">
<path fill="none" stroke="#63b8ff" d="M317.99,-121.36C296.73,-112.28 269.18,-100.52 246.18,-90.69"/>
<polygon fill="#63b8ff" stroke="#63b8ff" points="247.6,-87.49 237.03,-86.78 244.85,-93.93 247.6,-87.49"/>
</a>
</g>
</g>
<!-- Node7 -->
<g id="Node000007" class="node">
<title>Node7</title>
<g id="a_Node000007"><a xlink:title=" ">
<polygon fill="#e0e0e0" stroke="#999999" points="324.75,-19.25 281.75,-19.25 281.75,0 324.75,0 324.75,-19.25"/>
<text xml:space="preserve" text-anchor="middle" x="303.25" y="-5.75" font-family="Helvetica,sans-Serif" font-size="10.00">vector</text>
</a>
</g>
</g>
<!-- Node1&#45;&gt;Node7 -->
<g id="edge10_Node000001_Node000007" class="edge">
<title>Node1&#45;&gt;Node7</title>
<g id="a_edge10_Node000001_Node000007"><a xlink:title=" ">
<path fill="none" stroke="#63b8ff" d="M335.87,-121.38C326.67,-112.14 315.93,-99.4 310.25,-85.75 302.93,-68.18 301.67,-46.35 301.94,-30.76"/>
<polygon fill="#63b8ff" stroke="#63b8ff" points="305.43,-31.01 302.37,-20.87 298.44,-30.71 305.43,-31.01"/>
</a>
</g>
</g>
<!-- Node8 -->
<g id="Node000008" class="node">
<title>Node8</title>
<g id="a_Node000008"><a xlink:title=" ">
<polygon fill="#e0e0e0" stroke="#999999" points="385.75,-80.12 318.75,-80.12 318.75,-60.88 385.75,-60.88 385.75,-80.12"/>
<text xml:space="preserve" text-anchor="middle" x="352.25" y="-66.62" font-family="Helvetica,sans-Serif" font-size="10.00">QByteArray</text>
</a>
</g>
</g>
<!-- Node1&#45;&gt;Node8 -->
<g id="edge7_Node000001_Node000008" class="edge">
<title>Node1&#45;&gt;Node8</title>
<g id="a_edge7_Node000001_Node000008"><a xlink:title=" ">
<path fill="none" stroke="#63b8ff" d="M352.25,-121.36C352.25,-112.58 352.25,-101.27 352.25,-91.65"/>
<polygon fill="#63b8ff" stroke="#63b8ff" points="355.75,-91.84 352.25,-81.84 348.75,-91.84 355.75,-91.84"/>
</a>
</g>
</g>
<!-- Node9 -->
<g id="Node000009" class="node">
<title>Node9</title>
<g id="a_Node000009"><a xlink:title=" ">
<polygon fill="#e0e0e0" stroke="#999999" points="471.12,-80.12 403.38,-80.12 403.38,-60.88 471.12,-60.88 471.12,-80.12"/>
<text xml:space="preserve" text-anchor="middle" x="437.25" y="-66.62" font-family="Helvetica,sans-Serif" font-size="10.00">QJsonArray</text>
</a>
</g>
</g>
<!-- Node1&#45;&gt;Node9 -->
<g id="edge8_Node000001_Node000009" class="edge">
<title>Node1&#45;&gt;Node9</title>
<g id="a_edge8_Node000001_Node000009"><a xlink:title=" ">
<path fill="none" stroke="#63b8ff" d="M371.54,-121.36C384.94,-111.19 402.78,-97.66 416.49,-87.25"/>
<polygon fill="#63b8ff" stroke="#63b8ff" points="418.57,-90.07 424.42,-81.24 414.34,-84.49 418.57,-90.07"/>
</a>
</g>
</g>
<!-- Node10 -->
<g id="Node000010" class="node">
<title>Node10</title>
<g id="a_Node000010"><a xlink:title=" ">
<polygon fill="#e0e0e0" stroke="#999999" points="537.75,-80.12 488.75,-80.12 488.75,-60.88 537.75,-60.88 537.75,-80.12"/>
<text xml:space="preserve" text-anchor="middle" x="513.25" y="-66.62" font-family="Helvetica,sans-Serif" font-size="10.00">QString</text>
</a>
</g>
</g>
<!-- Node1&#45;&gt;Node10 -->
<g id="edge9_Node000001_Node000010" class="edge">
<title>Node1&#45;&gt;Node10</title>
<g id="a_edge9_Node000001_Node000010"><a xlink:title=" ">
<path fill="none" stroke="#63b8ff" d="M390.75,-121.27C416.23,-111.43 450.34,-98.07 480.25,-85.75 480.88,-85.49 481.52,-85.23 482.16,-84.96"/>
<polygon fill="#63b8ff" stroke="#63b8ff" points="483.46,-88.21 491.31,-81.09 480.73,-81.76 483.46,-88.21"/>
</a>
</g>
</g>
<!-- Node3 -->
<g id="Node000003" class="node">
<title>Node3</title>
<g id="a_Node000003"><a xlink:title=" ">
<polygon fill="#e0e0e0" stroke="#999999" points="50.5,-19.25 0,-19.25 0,0 50.5,0 50.5,-19.25"/>
<text xml:space="preserve" text-anchor="middle" x="25.25" y="-5.75" font-family="Helvetica,sans-Serif" font-size="10.00">QImage</text>
</a>
</g>
</g>
<!-- Node2&#45;&gt;Node3 -->
<g id="edge2_Node000002_Node000003" class="edge">
<title>Node2&#45;&gt;Node3</title>
<g id="a_edge2_Node000002_Node000003"><a xlink:title=" ">
<path fill="none" stroke="#63b8ff" d="M157.29,-54.8C127.85,-44.95 89.55,-32.13 61.78,-22.85"/>
<polygon fill="#63b8ff" stroke="#63b8ff" points="62.99,-19.56 52.39,-19.71 60.77,-26.2 62.99,-19.56"/>
</a>
</g>
</g>
<!-- Node4 -->
<g id="Node000004" class="node">
<title>Node4</title>
<g id="a_Node000004"><a xlink:title=" ">
<polygon fill="#e0e0e0" stroke="#999999" points="133.62,-19.25 68.88,-19.25 68.88,0 133.62,0 133.62,-19.25"/>
<text xml:space="preserve" text-anchor="middle" x="101.25" y="-5.75" font-family="Helvetica,sans-Serif" font-size="10.00">QVector4D</text>
</a>
</g>
</g>
<!-- Node2&#45;&gt;Node4 -->
<g id="edge3_Node000002_Node000004" class="edge">
<title>Node2&#45;&gt;Node4</title>
<g id="a_edge3_Node000002_Node000004"><a xlink:title=" ">
<path fill="none" stroke="#63b8ff" d="M176.27,-54.8C161.04,-45.83 141.64,-34.41 126.38,-25.42"/>
<polygon fill="#63b8ff" stroke="#63b8ff" points="128.28,-22.48 117.89,-20.42 124.73,-28.51 128.28,-22.48"/>
</a>
</g>
</g>
<!-- Node5 -->
<g id="Node000005" class="node">
<title>Node5</title>
<g id="a_Node000005"><a xlink:title=" ">
<polygon fill="#e0e0e0" stroke="#999999" points="200.38,-19.25 152.12,-19.25 152.12,0 200.38,0 200.38,-19.25"/>
<text xml:space="preserve" text-anchor="middle" x="176.25" y="-5.75" font-family="Helvetica,sans-Serif" font-size="10.00">cstddef</text>
</a>
</g>
</g>
<!-- Node2&#45;&gt;Node5 -->
<g id="edge4_Node000002_Node000005" class="edge">
<title>Node2&#45;&gt;Node5</title>
<g id="a_edge4_Node000002_Node000005"><a xlink:title=" ">
<path fill="none" stroke="#63b8ff" d="M195.07,-54.95C191.89,-47.45 187.96,-38.2 184.52,-30.1"/>
<polygon fill="#63b8ff" stroke="#63b8ff" points="187.83,-28.93 180.7,-21.09 181.38,-31.67 187.83,-28.93"/>
</a>
</g>
</g>
<!-- Node6 -->
<g id="Node000006" class="node">
<title>Node6</title>
<g id="a_Node000006"><a xlink:title=" ">
<polygon fill="#e0e0e0" stroke="#999999" points="263.88,-19.25 218.62,-19.25 218.62,0 263.88,0 263.88,-19.25"/>
<text xml:space="preserve" text-anchor="middle" x="241.25" y="-5.75" font-family="Helvetica,sans-Serif" font-size="10.00">cstdint</text>
</a>
</g>
</g>
<!-- Node2&#45;&gt;Node6 -->
<g id="edge5_Node000002_Node000006" class="edge">
<title>Node2&#45;&gt;Node6</title>
<g id="a_edge5_Node000002_Node000006"><a xlink:title=" ">
<path fill="none" stroke="#63b8ff" d="M211.14,-54.95C216.47,-47.1 223.1,-37.35 228.78,-28.99"/>
<polygon fill="#63b8ff" stroke="#63b8ff" points="231.51,-31.19 234.23,-20.95 225.72,-27.26 231.51,-31.19"/>
</a>
</g>
</g>
<!-- Node2&#45;&gt;Node7 -->
<g id="edge6_Node000002_Node000007" class="edge">
<title>Node2&#45;&gt;Node7</title>
<g id="a_edge6_Node000002_Node000007"><a xlink:title=" ">
<path fill="none" stroke="#63b8ff" d="M226.73,-54.8C242.41,-45.74 262.43,-34.19 278.06,-25.16"/>
<polygon fill="#63b8ff" stroke="#63b8ff" points="279.39,-28.44 286.3,-20.41 275.89,-22.38 279.39,-28.44"/>
</a>
</g>
</g>
</g>
</svg>
