<?xml version="1.0" encoding="UTF-8" standalone="no"?>
<!DOCTYPE svg PUBLIC "-//W3C//DTD SVG 1.1//EN"
 "http://www.w3.org/Graphics/SVG/1.1/DTD/svg11.dtd">
<!-- Generated by graphviz version 15.1.0 (20260618.0150)
 -->
<!-- Title: anonymous_namespace{glb_model_reader::cpp}::integerValue Pages: 1 -->
<svg width="761pt" height="262pt"
 viewBox="0.00 0.00 761.00 262.00" xmlns="http://www.w3.org/2000/svg" xmlns:xlink="http://www.w3.org/1999/xlink">
<g id="graph0" class="graph" transform="scale(1 1) rotate(0) translate(4 257.75)">
<title>anonymous_namespace{glb_model_reader::cpp}::integerValue</title>
<!-- Node1 -->
<g id="Node000001" class="node">
<title>Node1</title>
<g id="a_Node000001"><a xlink:title=" ">
<polygon fill="#999999" stroke="#666666" points="752.75,-152.75 631,-152.75 631,-111 752.75,-111 752.75,-152.75"/>
<text xml:space="preserve" text-anchor="start" x="639" y="-139.25" font-family="Helvetica,sans-Serif" font-size="10.00">anonymous_namespace</text>
<text xml:space="preserve" text-anchor="start" x="639" y="-128" font-family="Helvetica,sans-Serif" font-size="10.00">{glb_model_reader::cpp}</text>
<text xml:space="preserve" text-anchor="middle" x="691.88" y="-116.75" font-family="Helvetica,sans-Serif" font-size="10.00">::integerValue</text>
</a>
</g>
</g>
<!-- Node1&#45;&gt;Node1 -->
<g id="edge10_Node000001_Node000001" class="edge">
<title>Node1&#45;&gt;Node1</title>
<g id="a_edge10_Node000001_Node000001"><a xlink:title=" ">
<path fill="none" stroke="#63b8ff" d="M717.84,-163.86C713.35,-168.01 704.7,-170.75 691.88,-170.75 669.69,-170.75 659.99,-162.55 662.76,-153.07"/>
<polygon fill="#63b8ff" stroke="#63b8ff" points="721.12,-165.1 720.57,-154.52 714.4,-163.14 721.12,-165.1"/>
</a>
</g>
</g>
<!-- Node2 -->
<g id="Node000002" class="node">
<title>Node2</title>
<g id="a_Node000002"><a xlink:href="namespaceanonymous__namespace_02glb__model__reader_8cpp_03.html#a39c50ea757caaa5435113c1bad051ab7" target="_top" xlink:title=" ">
<polygon fill="white" stroke="#666666" points="595,-235.75 473.25,-235.75 473.25,-194 595,-194 595,-235.75"/>
<text xml:space="preserve" text-anchor="start" x="481.25" y="-222.25" font-family="Helvetica,sans-Serif" font-size="10.00">anonymous_namespace</text>
<text xml:space="preserve" text-anchor="start" x="481.25" y="-211" font-family="Helvetica,sans-Serif" font-size="10.00">{glb_model_reader::cpp}</text>
<text xml:space="preserve" text-anchor="middle" x="534.12" y="-199.75" font-family="Helvetica,sans-Serif" font-size="10.00">::accessorSpan</text>
</a>
</g>
</g>
<!-- Node1&#45;&gt;Node2 -->
<g id="edge1_Node000001_Node000002" class="edge">
<title>Node1&#45;&gt;Node2</title>
<g id="a_edge1_Node000001_Node000002"><a xlink:title=" ">
<path fill="none" stroke="#63b8ff" d="M640.64,-158.65C619.42,-169.95 595.06,-182.93 575.1,-193.57"/>
<polygon fill="#63b8ff" stroke="#63b8ff" points="642.25,-161.75 649.43,-153.96 638.96,-155.58 642.25,-161.75"/>
</a>
</g>
</g>
<!-- Node3 -->
<g id="Node000003" class="node">
<title>Node3</title>
<g id="a_Node000003"><a xlink:href="namespaceanonymous__namespace_02glb__model__reader_8cpp_03.html#a1d06c8f44bc1482d9ea1126da8087ae3" target="_top" xlink:title=" ">
<polygon fill="white" stroke="#666666" points="437.25,-152.75 315.5,-152.75 315.5,-111 437.25,-111 437.25,-152.75"/>
<text xml:space="preserve" text-anchor="start" x="323.5" y="-139.25" font-family="Helvetica,sans-Serif" font-size="10.00">anonymous_namespace</text>
<text xml:space="preserve" text-anchor="start" x="323.5" y="-128" font-family="Helvetica,sans-Serif" font-size="10.00">{glb_model_reader::cpp}</text>
<text xml:space="preserve" text-anchor="middle" x="376.38" y="-116.75" font-family="Helvetica,sans-Serif" font-size="10.00">::appendPrimitive</text>
</a>
</g>
</g>
<!-- Node1&#45;&gt;Node3 -->
<g id="edge9_Node000001_Node000003" class="edge">
<title>Node1&#45;&gt;Node3</title>
<g id="a_edge9_Node000001_Node000003"><a xlink:title=" ">
<path fill="none" stroke="#63b8ff" d="M619.52,-144.29C611.28,-145.35 602.97,-146.26 595,-146.88 541.05,-151.07 527.2,-151.07 473.25,-146.88 461.66,-145.97 449.35,-144.47 437.56,-142.75"/>
<polygon fill="#63b8ff" stroke="#63b8ff" points="619.76,-147.79 629.19,-142.96 618.81,-140.85 619.76,-147.79"/>
</a>
</g>
</g>
<!-- Node8 -->
<g id="Node000008" class="node">
<title>Node8</title>
<g id="a_Node000008"><a xlink:href="namespaceanonymous__namespace_02glb__model__reader_8cpp_03.html#af97fe37b2c4681d999c2037c87782cd7" target="_top" xlink:title=" ">
<polygon fill="white" stroke="#666666" points="595,-119.75 473.25,-119.75 473.25,-78 595,-78 595,-119.75"/>
<text xml:space="preserve" text-anchor="start" x="481.25" y="-106.25" font-family="Helvetica,sans-Serif" font-size="10.00">anonymous_namespace</text>
<text xml:space="preserve" text-anchor="start" x="481.25" y="-95" font-family="Helvetica,sans-Serif" font-size="10.00">{glb_model_reader::cpp}</text>
<text xml:space="preserve" text-anchor="middle" x="534.12" y="-83.75" font-family="Helvetica,sans-Serif" font-size="10.00">::materialInfo</text>
</a>
</g>
</g>
<!-- Node1&#45;&gt;Node8 -->
<g id="edge11_Node000001_Node000008" class="edge">
<title>Node1&#45;&gt;Node8</title>
<g id="a_edge11_Node000001_Node000008"><a xlink:title=" ">
<path fill="none" stroke="#63b8ff" d="M619.42,-116.74C611.4,-115.04 603.3,-113.32 595.44,-111.65"/>
<polygon fill="#63b8ff" stroke="#63b8ff" points="618.67,-120.15 629.18,-118.8 620.12,-113.31 618.67,-120.15"/>
</a>
</g>
</g>
<!-- Node9 -->
<g id="Node000009" class="node">
<title>Node9</title>
<g id="a_Node000009"><a xlink:href="namespaceanonymous__namespace_02glb__model__reader_8cpp_03.html#ac27067bb95a3fceaaa34455e14e240f9" target="_top" xlink:title=" ">
<polygon fill="white" stroke="#666666" points="595,-41.75 473.25,-41.75 473.25,0 595,0 595,-41.75"/>
<text xml:space="preserve" text-anchor="start" x="481.25" y="-28.25" font-family="Helvetica,sans-Serif" font-size="10.00">anonymous_namespace</text>
<text xml:space="preserve" text-anchor="start" x="481.25" y="-17" font-family="Helvetica,sans-Serif" font-size="10.00">{glb_model_reader::cpp}</text>
<text xml:space="preserve" text-anchor="middle" x="534.12" y="-5.75" font-family="Helvetica,sans-Serif" font-size="10.00">::optionalIndex</text>
</a>
</g>
</g>
<!-- Node1&#45;&gt;Node9 -->
<g id="edge14_Node000001_Node000009" class="edge">
<title>Node1&#45;&gt;Node9</title>
<g id="a_edge14_Node000001_Node000009"><a xlink:title=" ">
<path fill="none" stroke="#63b8ff" d="M652.06,-104.21C625.09,-84.99 589.7,-59.77 564.94,-42.12"/>
<polygon fill="#63b8ff" stroke="#63b8ff" points="649.81,-106.9 659.98,-109.86 653.87,-101.2 649.81,-106.9"/>
</a>
</g>
</g>
<!-- Node2&#45;&gt;Node2 -->
<g id="edge2_Node000002_Node000002" class="edge">
<title>Node2&#45;&gt;Node2</title>
<g id="a_edge2_Node000002_Node000002"><a xlink:title=" ">
<path fill="none" stroke="#63b8ff" d="M560.09,-246.86C555.6,-251.01 546.95,-253.75 534.12,-253.75 511.94,-253.75 502.24,-245.55 505.01,-236.07"/>
<polygon fill="#63b8ff" stroke="#63b8ff" points="563.37,-248.1 562.82,-237.52 556.65,-246.14 563.37,-248.1"/>
</a>
</g>
</g>
<!-- Node2&#45;&gt;Node3 -->
<g id="edge3_Node000002_Node000003" class="edge">
<title>Node2&#45;&gt;Node3</title>
<g id="a_edge3_Node000002_Node000003"><a xlink:title=" ">
<path fill="none" stroke="#63b8ff" d="M482.89,-188.1C461.67,-176.8 437.31,-163.82 417.35,-153.18"/>
<polygon fill="#63b8ff" stroke="#63b8ff" points="481.21,-191.17 491.68,-192.79 484.5,-185 481.21,-191.17"/>
</a>
</g>
</g>
<!-- Node3&#45;&gt;Node3 -->
<g id="edge8_Node000003_Node000003" class="edge">
<title>Node3&#45;&gt;Node3</title>
<g id="a_edge8_Node000003_Node000003"><a xlink:title=" ">
<path fill="none" stroke="#63b8ff" d="M402.34,-163.86C397.85,-168.01 389.2,-170.75 376.38,-170.75 354.19,-170.75 344.49,-162.55 347.26,-153.07"/>
<polygon fill="#63b8ff" stroke="#63b8ff" points="405.62,-165.1 405.07,-154.52 398.9,-163.14 405.62,-165.1"/>
</a>
</g>
</g>
<!-- Node4 -->
<g id="Node000004" class="node">
<title>Node4</title>
<g id="a_Node000004"><a xlink:href="namespaceanonymous__namespace_02glb__model__reader_8cpp_03.html#ad69bc58754ac43f28f593f0b18231394" target="_top" xlink:title=" ">
<polygon fill="white" stroke="#666666" points="279.5,-152.75 157.75,-152.75 157.75,-111 279.5,-111 279.5,-152.75"/>
<text xml:space="preserve" text-anchor="start" x="165.75" y="-139.25" font-family="Helvetica,sans-Serif" font-size="10.00">anonymous_namespace</text>
<text xml:space="preserve" text-anchor="start" x="165.75" y="-128" font-family="Helvetica,sans-Serif" font-size="10.00">{glb_model_reader::cpp}</text>
<text xml:space="preserve" text-anchor="middle" x="218.62" y="-116.75" font-family="Helvetica,sans-Serif" font-size="10.00">::appendMesh</text>
</a>
</g>
</g>
<!-- Node3&#45;&gt;Node4 -->
<g id="edge4_Node000003_Node000004" class="edge">
<title>Node3&#45;&gt;Node4</title>
<g id="a_edge4_Node000003_Node000004"><a xlink:title=" ">
<path fill="none" stroke="#63b8ff" d="M303.92,-131.88C295.9,-131.88 287.8,-131.88 279.94,-131.88"/>
<polygon fill="#63b8ff" stroke="#63b8ff" points="303.64,-135.38 313.64,-131.88 303.64,-128.38 303.64,-135.38"/>
</a>
</g>
</g>
<!-- Node4&#45;&gt;Node4 -->
<g id="edge5_Node000004_Node000004" class="edge">
<title>Node4&#45;&gt;Node4</title>
<g id="a_edge5_Node000004_Node000004"><a xlink:title=" ">
<path fill="none" stroke="#63b8ff" d="M244.59,-163.86C240.1,-168.01 231.45,-170.75 218.62,-170.75 196.44,-170.75 186.74,-162.55 189.51,-153.07"/>
<polygon fill="#63b8ff" stroke="#63b8ff" points="247.87,-165.1 247.32,-154.52 241.15,-163.14 247.87,-165.1"/>
</a>
</g>
</g>
<!-- Node5 -->
<g id="Node000005" class="node">
<title>Node5</title>
<g id="a_Node000005"><a xlink:href="namespaceanonymous__namespace_02glb__model__reader_8cpp_03.html#adb9f6739ffbc57117f49421566052fad" target="_top" xlink:title=" ">
<polygon fill="#fff0f0" stroke="red" points="121.75,-152.75 0,-152.75 0,-111 121.75,-111 121.75,-152.75"/>
<text xml:space="preserve" text-anchor="start" x="8" y="-139.25" font-family="Helvetica,sans-Serif" font-size="10.00">anonymous_namespace</text>
<text xml:space="preserve" text-anchor="start" x="8" y="-128" font-family="Helvetica,sans-Serif" font-size="10.00">{glb_model_reader::cpp}</text>
<text xml:space="preserve" text-anchor="middle" x="60.88" y="-116.75" font-family="Helvetica,sans-Serif" font-size="10.00">::flattenScene</text>
</a>
</g>
</g>
<!-- Node4&#45;&gt;Node5 -->
<g id="edge6_Node000004_Node000005" class="edge">
<title>Node4&#45;&gt;Node5</title>
<g id="a_edge6_Node000004_Node000005"><a xlink:title=" ">
<path fill="none" stroke="#63b8ff" d="M146.17,-131.88C138.15,-131.88 130.05,-131.88 122.19,-131.88"/>
<polygon fill="#63b8ff" stroke="#63b8ff" points="145.89,-135.38 155.89,-131.88 145.89,-128.38 145.89,-135.38"/>
</a>
</g>
</g>
<!-- Node5&#45;&gt;Node5 -->
<g id="edge7_Node000005_Node000005" class="edge">
<title>Node5&#45;&gt;Node5</title>
<g id="a_edge7_Node000005_Node000005"><a xlink:title=" ">
<path fill="none" stroke="#63b8ff" d="M86.84,-163.86C82.35,-168.01 73.7,-170.75 60.88,-170.75 38.69,-170.75 28.99,-162.55 31.76,-153.07"/>
<polygon fill="#63b8ff" stroke="#63b8ff" points="90.12,-165.1 89.57,-154.52 83.4,-163.14 90.12,-165.1"/>
</a>
</g>
</g>
<!-- Node8&#45;&gt;Node3 -->
<g id="edge12_Node000008_Node000003" class="edge">
<title>Node8&#45;&gt;Node3</title>
<g id="a_edge12_Node000008_Node000003"><a xlink:title=" ">
<path fill="none" stroke="#63b8ff" d="M461.67,-114.01C453.65,-115.71 445.55,-117.43 437.69,-119.1"/>
<polygon fill="#63b8ff" stroke="#63b8ff" points="462.37,-117.44 471.43,-111.95 460.92,-110.6 462.37,-117.44"/>
</a>
</g>
</g>
<!-- Node8&#45;&gt;Node8 -->
<g id="edge13_Node000008_Node000008" class="edge">
<title>Node8&#45;&gt;Node8</title>
<g id="a_edge13_Node000008_Node000008"><a xlink:title=" ">
<path fill="none" stroke="#63b8ff" d="M560.09,-130.86C555.6,-135.01 546.95,-137.75 534.12,-137.75 511.94,-137.75 502.24,-129.55 505.01,-120.07"/>
<polygon fill="#63b8ff" stroke="#63b8ff" points="563.37,-132.1 562.82,-121.52 556.65,-130.14 563.37,-132.1"/>
</a>
</g>
</g>
<!-- Node9&#45;&gt;Node3 -->
<g id="edge15_Node000009_Node000003" class="edge">
<title>Node9&#45;&gt;Node3</title>
<g id="a_edge15_Node000009_Node000003"><a xlink:title=" ">
<path fill="none" stroke="#63b8ff" d="M494.31,-48.54C467.34,-67.76 431.95,-92.98 407.19,-110.63"/>
<polygon fill="#63b8ff" stroke="#63b8ff" points="496.12,-51.55 502.23,-42.89 492.06,-45.85 496.12,-51.55"/>
</a>
</g>
</g>
<!-- Node9&#45;&gt;Node9 -->
<g id="edge16_Node000009_Node000009" class="edge">
<title>Node9&#45;&gt;Node9</title>
<g id="a_edge16_Node000009_Node000009"><a xlink:title=" ">
<path fill="none" stroke="#63b8ff" d="M560.09,-52.86C555.6,-57.01 546.95,-59.75 534.12,-59.75 511.94,-59.75 502.24,-51.55 505.01,-42.07"/>
<polygon fill="#63b8ff" stroke="#63b8ff" points="563.37,-54.1 562.82,-43.52 556.65,-52.14 563.37,-54.1"/>
</a>
</g>
</g>
</g>
</svg>
