<?xml version="1.0" encoding="UTF-8" standalone="no"?>
<!DOCTYPE svg PUBLIC "-//W3C//DTD SVG 1.1//EN"
 "http://www.w3.org/Graphics/SVG/1.1/DTD/svg11.dtd">
<!-- Generated by graphviz version 15.1.0 (20260618.0150)
 -->
<!-- Title: src/application/ports/packet_decoder.h Pages: 1 -->
<!--zoomable 261 -->

<svg id="main" version="1.1" xmlns="http://www.w3.org/2000/svg" xmlns:xlink="http://www.w3.org/1999/xlink" xml:space="preserve">

<style type="text/css"><![CDATA[
.node, .edge {opacity: 0.7;}
.node.selected, .edge.selected {opacity: 1;}
.edge:hover path { stroke: red; }
.edge:hover polygon { stroke: red; fill: red; }
]]></style>

<defs>
  <circle id="rim" cx="0" cy="0" r="7"/>
  <circle id="rim2" cx="0" cy="0" r="3.5"/>
  <g id="zoomPlus">
    <use xlink:href="#rim" fill="#404040"><set attributeName="fill" to="#808080" begin="zoomplus.mouseover" end="zoomplus.mouseout"/></use>
    <path d="M-4,0h8M0,-4v8" fill="none" stroke="white" stroke-width="1.5" pointer-events="none"/>
  </g>
  <g id="zoomMin">
    <use xlink:href="#rim" fill="#404040"><set attributeName="fill" to="#808080" begin="zoomminus.mouseover" end="zoomminus.mouseout"/></use>
    <path d="M-4,0h8" fill="none" stroke="white" stroke-width="1.5" pointer-events="none"/>
  </g>
  <g id="arrowUp" transform="translate(30 24)">
    <use xlink:href="#rim"/>
    <path pointer-events="none" fill="none" stroke="white" stroke-width="1.5" d="M0,-3.0v7 M-2.5,-0.5L0,-3.0L2.5,-0.5"/>
  </g>
  <g id="arrowRight" transform="rotate(90) translate(36 -43)">
    <use xlink:href="#rim"/>
    <path pointer-events="none" fill="none" stroke="white" stroke-width="1.5" d="M0,-3.0v7 M-2.5,-0.5L0,-3.0L2.5,-0.5"/>
  </g>
  <g id="arrowDown" transform="rotate(180) translate(-30 -48)">
    <use xlink:href="#rim"/>
    <path pointer-events="none" fill="none" stroke="white" stroke-width="1.5" d="M0,-3.0v7 M-2.5,-0.5L0,-3.0L2.5,-0.5"/>
  </g>
  <g id="arrowLeft" transform="rotate(270) translate(-36 17)">
    <use xlink:href="#rim"/>
    <path pointer-events="none" fill="none" stroke="white" stroke-width="1.5" d="M0,-3.0v7 M-2.5,-0.5L0,-3.0L2.5,-0.5"/>
  </g>
  <g id="resetDef">
    <use xlink:href="#rim2" fill="#404040"><set attributeName="fill" to="#808080" begin="reset.mouseover" end="reset.mouseout"/></use>
  </g>
</defs>
<script type="application/ecmascript" xlink:href="svg.min.js"/>
<svg id="graph" class="graph" data-view-width="700" data-view-height="261" data-section-id="dynsection-1">
<g id="viewport">
<title>src/application/ports/packet_decoder.h</title>
<!-- Node1 -->
<g id="Node000001" class="node">
<title>Node1</title>
<g id="a_Node000001"><a xlink:title="Port for decoding mapped binary packets into domain state.">
<polygon fill="#999999" stroke="#666666" points="374.38,-252.5 270.62,-252.5 270.62,-222 374.38,-222 374.38,-252.5"/>
<text xml:space="preserve" text-anchor="start" x="278.62" y="-239" font-family="Helvetica,sans-Serif" font-size="10.00">src/application/ports</text>
<text xml:space="preserve" text-anchor="middle" x="322.5" y="-227.75" font-family="Helvetica,sans-Serif" font-size="10.00">/packet_decoder.h</text>
</a>
</g>
</g>
<!-- Node2 -->
<g id="Node000002" class="node">
<title>Node2</title>
<g id="a_Node000002"><a xlink:href="online__capture__service_8h.html" target="_top" xlink:title="UDP decoding service with rate&#45;limited state publication.">
<polygon fill="white" stroke="#666666" points="239.25,-180.38 131.75,-180.38 131.75,-149.88 239.25,-149.88 239.25,-180.38"/>
<text xml:space="preserve" text-anchor="start" x="139.75" y="-166.88" font-family="Helvetica,sans-Serif" font-size="10.00">src/application/online</text>
<text xml:space="preserve" text-anchor="middle" x="185.5" y="-155.62" font-family="Helvetica,sans-Serif" font-size="10.00">_capture_service.h</text>
</a>
</g>
</g>
<!-- Node1&#45;&gt;Node2 -->
<g id="edge1_Node000001_Node000002" class="edge">
<title>Node1&#45;&gt;Node2</title>
<g id="a_edge1_Node000001_Node000002"><a xlink:title=" ">
<path fill="none" stroke="#63b8ff" d="M283.71,-216.39C261.59,-205.07 234.36,-191.13 214.18,-180.81"/>
<polygon fill="#63b8ff" stroke="#63b8ff" points="281.94,-219.42 292.43,-220.86 285.13,-213.19 281.94,-219.42"/>
</a>
</g>
</g>
<!-- Node7 -->
<g id="Node000007" class="node">
<title>Node7</title>
<g id="a_Node000007"><a xlink:href="mapped__packet__decoder_8h.html" target="_top" xlink:title="Packet decoder adapter backed by the domain PacketMapping.">
<polygon fill="white" stroke="#666666" points="386.38,-186 258.62,-186 258.62,-144.25 386.38,-144.25 386.38,-186"/>
<text xml:space="preserve" text-anchor="start" x="266.62" y="-172.5" font-family="Helvetica,sans-Serif" font-size="10.00">src/infrastructure</text>
<text xml:space="preserve" text-anchor="start" x="266.62" y="-161.25" font-family="Helvetica,sans-Serif" font-size="10.00">/mapping/mapped_packet</text>
<text xml:space="preserve" text-anchor="middle" x="322.5" y="-150" font-family="Helvetica,sans-Serif" font-size="10.00">_decoder.h</text>
</a>
</g>
</g>
<!-- Node1&#45;&gt;Node7 -->
<g id="edge6_Node000001_Node000007" class="edge">
<title>Node1&#45;&gt;Node7</title>
<g id="a_edge6_Node000001_Node000007"><a xlink:title=" ">
<path fill="none" stroke="#63b8ff" d="M322.5,-210.47C322.5,-202.56 322.5,-193.98 322.5,-186.49"/>
<polygon fill="#63b8ff" stroke="#63b8ff" points="319,-210.21 322.5,-220.21 326,-210.21 319,-210.21"/>
</a>
</g>
</g>
<!-- Node9 -->
<g id="Node000009" class="node">
<title>Node9</title>
<g id="a_Node000009"><a xlink:href="network__runtime__worker_8h.html" target="_top" xlink:title="Network&#45;thread worker for mapping, capture, metrics, and batching.">
<polygon fill="white" stroke="#666666" points="530.62,-186 404.38,-186 404.38,-144.25 530.62,-144.25 530.62,-186"/>
<text xml:space="preserve" text-anchor="start" x="412.38" y="-172.5" font-family="Helvetica,sans-Serif" font-size="10.00">src/infrastructure</text>
<text xml:space="preserve" text-anchor="start" x="412.38" y="-161.25" font-family="Helvetica,sans-Serif" font-size="10.00">/runtime/network_runtime</text>
<text xml:space="preserve" text-anchor="middle" x="467.5" y="-150" font-family="Helvetica,sans-Serif" font-size="10.00">_worker.h</text>
</a>
</g>
</g>
<!-- Node1&#45;&gt;Node9 -->
<g id="edge9_Node000001_Node000009" class="edge">
<title>Node1&#45;&gt;Node9</title>
<g id="a_edge9_Node000001_Node000009"><a xlink:title=" ">
<path fill="none" stroke="#63b8ff" d="M363,-216.66C382.51,-207.23 405.9,-195.92 425.59,-186.39"/>
<polygon fill="#63b8ff" stroke="#63b8ff" points="361.74,-213.39 354.26,-220.89 364.79,-219.69 361.74,-213.39"/>
</a>
</g>
</g>
<!-- Node3 -->
<g id="Node000003" class="node">
<title>Node3</title>
<g id="a_Node000003"><a xlink:href="direct__application__runtime_8h.html" target="_top" xlink:title="Synchronous IApplicationRuntime implementation for tests/embedding.">
<polygon fill="white" stroke="#666666" points="240.25,-102.62 126.75,-102.62 126.75,-72.12 240.25,-72.12 240.25,-102.62"/>
<text xml:space="preserve" text-anchor="start" x="134.75" y="-89.12" font-family="Helvetica,sans-Serif" font-size="10.00">src/application/direct</text>
<text xml:space="preserve" text-anchor="middle" x="183.5" y="-77.88" font-family="Helvetica,sans-Serif" font-size="10.00">_application_runtime.h</text>
</a>
</g>
</g>
<!-- Node2&#45;&gt;Node3 -->
<g id="edge2_Node000002_Node000003" class="edge">
<title>Node2&#45;&gt;Node3</title>
<g id="a_edge2_Node000002_Node000003"><a xlink:title=" ">
<path fill="none" stroke="#63b8ff" d="M184.81,-138.1C184.5,-126.34 184.15,-112.88 183.88,-102.94"/>
<polygon fill="#63b8ff" stroke="#63b8ff" points="181.31,-138.1 185.07,-148.01 188.31,-137.92 181.31,-138.1"/>
</a>
</g>
</g>
<!-- Node5 -->
<g id="Node000005" class="node">
<title>Node5</title>
<g id="a_Node000005"><a xlink:href="online__capture__service_8cpp.html" target="_top" xlink:title=" ">
<polygon fill="white" stroke="#666666" points="109,-102.62 0,-102.62 0,-72.12 109,-72.12 109,-102.62"/>
<text xml:space="preserve" text-anchor="start" x="8" y="-89.12" font-family="Helvetica,sans-Serif" font-size="10.00">src/application/online</text>
<text xml:space="preserve" text-anchor="middle" x="54.5" y="-77.88" font-family="Helvetica,sans-Serif" font-size="10.00">_capture_service.cpp</text>
</a>
</g>
</g>
<!-- Node2&#45;&gt;Node5 -->
<g id="edge4_Node000002_Node000005" class="edge">
<title>Node2&#45;&gt;Node5</title>
<g id="a_edge4_Node000002_Node000005"><a xlink:title=" ">
<path fill="none" stroke="#63b8ff" d="M150.47,-143.87C128.16,-130.97 99.78,-114.56 79.68,-102.94"/>
<polygon fill="#63b8ff" stroke="#63b8ff" points="148.52,-146.79 158.93,-148.76 152.03,-140.73 148.52,-146.79"/>
</a>
</g>
</g>
<!-- Node6 -->
<g id="Node000006" class="node">
<title>Node6</title>
<g id="a_Node000006"><a xlink:href="network__runtime__worker_8cpp.html" target="_top" xlink:title=" ">
<polygon fill="white" stroke="#666666" points="530.62,-108.25 404.38,-108.25 404.38,-66.5 530.62,-66.5 530.62,-108.25"/>
<text xml:space="preserve" text-anchor="start" x="412.38" y="-94.75" font-family="Helvetica,sans-Serif" font-size="10.00">src/infrastructure</text>
<text xml:space="preserve" text-anchor="start" x="412.38" y="-83.5" font-family="Helvetica,sans-Serif" font-size="10.00">/runtime/network_runtime</text>
<text xml:space="preserve" text-anchor="middle" x="467.5" y="-72.25" font-family="Helvetica,sans-Serif" font-size="10.00">_worker.cpp</text>
</a>
</g>
</g>
<!-- Node2&#45;&gt;Node6 -->
<g id="edge5_Node000002_Node000006" class="edge">
<title>Node2&#45;&gt;Node6</title>
<g id="a_edge5_Node000002_Node000006"><a xlink:title=" ">
<path fill="none" stroke="#63b8ff" d="M242.57,-146.22C244.9,-145.54 247.22,-144.88 249.5,-144.25 313.89,-126.33 330.84,-125.14 395.5,-108.25 398.26,-107.53 401.08,-106.78 403.92,-106.03"/>
<polygon fill="#63b8ff" stroke="#63b8ff" points="241.6,-142.85 233,-149.04 243.58,-149.57 241.6,-142.85"/>
</a>
</g>
</g>
<!-- Node4 -->
<g id="Node000004" class="node">
<title>Node4</title>
<g id="a_Node000004"><a xlink:href="direct__application__runtime_8cpp.html" target="_top" xlink:title=" ">
<polygon fill="white" stroke="#666666" points="245.5,-30.5 121.5,-30.5 121.5,0 245.5,0 245.5,-30.5"/>
<text xml:space="preserve" text-anchor="start" x="129.5" y="-17" font-family="Helvetica,sans-Serif" font-size="10.00">src/application/direct</text>
<text xml:space="preserve" text-anchor="middle" x="183.5" y="-5.75" font-family="Helvetica,sans-Serif" font-size="10.00">_application_runtime.cpp</text>
</a>
</g>
</g>
<!-- Node3&#45;&gt;Node4 -->
<g id="edge3_Node000003_Node000004" class="edge">
<title>Node3&#45;&gt;Node4</title>
<g id="a_edge3_Node000003_Node000004"><a xlink:title=" ">
<path fill="none" stroke="#63b8ff" d="M183.5,-60.4C183.5,-50.39 183.5,-39.31 183.5,-30.76"/>
<polygon fill="#63b8ff" stroke="#63b8ff" points="180,-60.33 183.5,-70.33 187,-60.33 180,-60.33"/>
</a>
</g>
</g>
<!-- Node7&#45;&gt;Node6 -->
<g id="edge8_Node000007_Node000006" class="edge">
<title>Node7&#45;&gt;Node6</title>
<g id="a_edge8_Node000007_Node000006"><a xlink:title=" ">
<path fill="none" stroke="#63b8ff" d="M371.42,-138.57C390.03,-128.85 410.97,-117.91 428.54,-108.73"/>
<polygon fill="#63b8ff" stroke="#63b8ff" points="369.94,-135.39 362.7,-143.12 373.18,-141.6 369.94,-135.39"/>
</a>
</g>
</g>
<!-- Node8 -->
<g id="Node000008" class="node">
<title>Node8</title>
<g id="a_Node000008"><a xlink:href="mapped__packet__decoder_8cpp.html" target="_top" xlink:title=" ">
<polygon fill="white" stroke="#666666" points="386.38,-108.25 258.62,-108.25 258.62,-66.5 386.38,-66.5 386.38,-108.25"/>
<text xml:space="preserve" text-anchor="start" x="266.62" y="-94.75" font-family="Helvetica,sans-Serif" font-size="10.00">src/infrastructure</text>
<text xml:space="preserve" text-anchor="start" x="266.62" y="-83.5" font-family="Helvetica,sans-Serif" font-size="10.00">/mapping/mapped_packet</text>
<text xml:space="preserve" text-anchor="middle" x="322.5" y="-72.25" font-family="Helvetica,sans-Serif" font-size="10.00">_decoder.cpp</text>
</a>
</g>
</g>
<!-- Node7&#45;&gt;Node8 -->
<g id="edge7_Node000007_Node000008" class="edge">
<title>Node7&#45;&gt;Node8</title>
<g id="a_edge7_Node000007_Node000008"><a xlink:title=" ">
<path fill="none" stroke="#63b8ff" d="M322.5,-132.5C322.5,-124.46 322.5,-116.04 322.5,-108.73"/>
<polygon fill="#63b8ff" stroke="#63b8ff" points="319,-132.31 322.5,-142.31 326,-132.31 319,-132.31"/>
</a>
</g>
</g>
<!-- Node9&#45;&gt;Node6 -->
<g id="edge10_Node000009_Node000006" class="edge">
<title>Node9&#45;&gt;Node6</title>
<g id="a_edge10_Node000009_Node000006"><a xlink:title=" ">
<path fill="none" stroke="#63b8ff" d="M467.5,-132.5C467.5,-124.46 467.5,-116.04 467.5,-108.73"/>
<polygon fill="#63b8ff" stroke="#63b8ff" points="464,-132.31 467.5,-142.31 471,-132.31 464,-132.31"/>
</a>
</g>
</g>
<!-- Node10 -->
<g id="Node000010" class="node">
<title>Node10</title>
<g id="a_Node000010"><a xlink:href="threaded__application__runtime_8cpp.html" target="_top" xlink:title=" ">
<polygon fill="white" stroke="#666666" points="692.25,-108.25 548.75,-108.25 548.75,-66.5 692.25,-66.5 692.25,-108.25"/>
<text xml:space="preserve" text-anchor="start" x="556.75" y="-94.75" font-family="Helvetica,sans-Serif" font-size="10.00">src/infrastructure</text>
<text xml:space="preserve" text-anchor="start" x="556.75" y="-83.5" font-family="Helvetica,sans-Serif" font-size="10.00">/runtime/threaded_application</text>
<text xml:space="preserve" text-anchor="middle" x="620.5" y="-72.25" font-family="Helvetica,sans-Serif" font-size="10.00">_runtime.cpp</text>
</a>
</g>
</g>
<!-- Node9&#45;&gt;Node10 -->
<g id="edge11_Node000009_Node000010" class="edge">
<title>Node9&#45;&gt;Node10</title>
<g id="a_edge11_Node000009_Node000010"><a xlink:title=" ">
<path fill="none" stroke="#63b8ff" d="M518.58,-138.84C538.35,-129.05 560.68,-117.99 579.39,-108.73"/>
<polygon fill="#63b8ff" stroke="#63b8ff" points="517.27,-135.58 509.86,-143.15 520.37,-141.85 517.27,-135.58"/>
</a>
</g>
</g>
</g>
</svg>

<g id="navigator" transform="translate(0 0)" fill="#404254">
  <rect fill="#f2f5e9" fill-opacity="0.5" stroke="#606060" stroke-width=".5" x="0" y="0" width="60" height="60"/>
  <use id="zoomplus" xlink:href="#zoomPlus" x="17" y="9" data-zoom="in"/>
  <use id="zoomminus" xlink:href="#zoomMin" x="42" y="9" data-zoom="out"/>
  <use id="reset" xlink:href="#resetDef" x="30" y="36" data-reset="true"/>
  <use id="arrowup" xlink:href="#arrowUp" x="0" y="0" data-pan-x="0" data-pan-y="-1"/>
  <use id="arrowright" xlink:href="#arrowRight" x="0" y="0" data-pan-x="1" data-pan-y="0"/>
  <use id="arrowdown" xlink:href="#arrowDown" x="0" y="0" data-pan-x="0" data-pan-y="1"/>
  <use id="arrowleft" xlink:href="#arrowLeft" x="0" y="0" data-pan-x="-1" data-pan-y="0"/>
</g>
<svg viewBox="0 0 15 15" width="100%" height="30px" preserveAspectRatio="xMaxYMin meet">
 <g id="arrow_out" transform="scale(0.3 0.3)">
  <a xlink:href="packet__decoder_8h__dep__incl_org.svg" target="_base">
   <rect id="button" ry="5" rx="5" y="6" x="6" height="38" width="38"
        fill="#f2f5e9" fill-opacity="0.5" stroke="#606060" stroke-width="1.0"/>
   <path id="arrow"
     d="M 11.500037,31.436501 C 11.940474,20.09759 22.043105,11.32322 32.158766,21.979434 L 37.068811,17.246167 C 37.068811,17.246167 37.088388,32 37.088388,32 L 22.160133,31.978069 C 22.160133,31.978069 26.997745,27.140456 26.997745,27.140456 C 18.528582,18.264221 13.291696,25.230495 11.500037,31.436501 z"
     style="fill:#404040;"/>
  </a>
 </g>
</svg>

<style type='text/css'>
<![CDATA[
[data-mouse-over-selected='false'] { opacity: 0.7; }
[data-mouse-over-selected='true']  { opacity: 1.0; }
]]>
</style>
</svg>
